PaytoneTwo.ufo
<glyph name="exclam" format="1">
  <advance width="625"/>
  <unicode hex="0021"/>
  <outline>
    <contour>
      <point x="94" y="1096" type="line"/>
      <point x="94" y="1414" type="line"/>
      <point x="526" y="1414" type="line"/>
      <point x="526" y="1096" type="line"/>
      <point x="446" y="516" type="line"/>
      <point x="176" y="516" type="line"/>
    </contour>
    <contour>
      <point x="318" y="382" type="curve" smooth="yes"/>
      <point x="442.258" y="382"/>
      <point x="548" y="299.182"/>
      <point x="548" y="176" type="curve" smooth="yes"/>
      <point x="548" y="39.1102"/>
      <point x="435.114" y="-27.1006"/>
      <point x="320.944" y="-27.1006" type="curve" smooth="yes"/>
      <point x="204.144" y="-27.1006"/>
      <point x="86" y="42.1943"/>
      <point x="86" y="176" type="curve" smooth="yes"/>
      <point x="86" y="302.187"/>
      <point x="191.873" y="382"/>
    </contour>
  </outline>
</glyph>
<glyph name="quotedbl" format="1">
  <advance width="792"/>
  <unicode hex="0022"/>
  <outline>
    <contour>
      <point x="446" y="1534" type="line"/>
      <point x="742" y="1534" type="line"/>
      <point x="684" y="1026" type="line"/>
      <point x="488" y="1026" type="line"/>
    </contour>
    <contour>
      <point x="60" y="1534" type="line"/>
      <point x="354" y="1534" type="line"/>
      <point x="296" y="1026" type="line"/>
      <point x="100" y="1026" type="line"/>
    </contour>
  </outline>
</glyph>
<glyph name="numbersign" format="1">
  <advance width="1068"/>
  <unicode hex="0023"/>
  <outline>
    <contour>
      <point x="212" y="502" type="line"/>
      <point x="56" y="502" type="line"/>
      <point x="72" y="624" type="line"/>
      <point x="240" y="624" type="line"/>
      <point x="278" y="776" type="line"/>
      <point x="94" y="776" type="line"/>
      <point x="110" y="902" type="line"/>
      <point x="308" y="902" type="line"/>
      <point x="426" y="1376" type="line"/>
      <point x="608" y="1376" type="line"/>
      <point x="490" y="902" type="line"/>
      <point x="684" y="902" type="line"/>
      <point x="800" y="1376" type="line"/>
      <point x="982" y="1376" type="line"/>
      <point x="866" y="902" type="line"/>
      <point x="1012" y="902" type="line"/>
      <point x="996" y="776" type="line"/>
      <point x="832" y="776" type="line"/>
      <point x="796" y="624" type="line"/>
      <point x="974" y="624" type="line"/>
      <point x="958" y="502" type="line"/>
      <point x="764" y="502" type="line"/>
      <point x="642" y="0" type="line"/>
      <point x="464" y="0" type="line"/>
      <point x="586" y="502" type="line"/>
      <point x="390" y="502" type="line"/>
      <point x="268" y="0" type="line"/>
      <point x="90" y="0" type="line"/>
    </contour>
    <contour>
      <point x="616" y="624" type="line"/>
      <point x="652" y="776" type="line"/>
      <point x="458" y="776" type="line"/>
      <point x="420" y="624" type="line"/>
    </contour>
  </outline>
</glyph>
<glyph name="dollar" format="1">
  <advance width="1159"/>
  <unicode hex="0024"/>
  <outline>
    <contour>
      <point x="470" y="540" type="line"/>
      <point x="243.437" y="595.324"/>
      <point x="69.3635" y="699.789"/>
      <point x="64" y="976" type="curve"/>
      <point x="64" y="1247.02"/>
      <point x="228.383" y="1373.16"/>
      <point x="470" y="1404" type="curve"/>
      <point x="470" y="1576" type="line"/>
      <point x="676" y="1576" type="line"/>
      <point x="676" y="1410" type="line"/>
      <point x="798.667" y="1399.33"/>
      <point x="916" y="1359.33"/>
      <point x="1028" y="1290" type="curve"/>
      <point x="924" y="1056" type="line"/>
      <point x="844.676" y="1081.5"/>
      <point x="766.007" y="1110.5"/>
      <point x="676" y="1124" type="curve"/>
      <point x="676" y="836" type="line"/>
      <point x="892.708" y="761.637"/>
      <point x="1108" y="657.13"/>
      <point x="1108" y="374" type="curve" smooth="yes"/>
      <point x="1108" y="138.674"/>
      <point x="900.737" y="-6.24058"/>
      <point x="676" y="-20" type="curve"/>
      <point x="676" y="-186" type="line"/>
      <point x="470" y="-186" type="line"/>
      <point x="470" y="-30" type="line"/>
      <point x="311.333" y="-15.3333"/>
      <point x="182.667" y="24"/>
      <point x="84" y="88" type="curve"/>
      <point x="186" y="334" type="line"/>
      <point x="279.824" y="303.081"/>
      <point x="369.06" y="273.739"/>
      <point x="470" y="270" type="curve"/>
    </contour>
    <contour>
      <point x="470" y="1102" type="line"/>
      <point x="426.812" y="1080.41"/>
      <point x="390" y="1056.95"/>
      <point x="390" y="998" type="curve" smooth="yes"/>
      <point x="390" y="934.794"/>
      <point x="420.817" y="913.907"/>
      <point x="470" y="894" type="curve"/>
    </contour>
    <contour>
      <point x="676" y="290" type="line"/>
      <point x="723.833" y="308.222"/>
      <point x="768" y="325.315"/>
      <point x="768" y="386" type="curve" smooth="yes"/>
      <point x="768" y="433.242"/>
      <point x="716.174" y="463.142"/>
      <point x="676" y="474" type="curve"/>
    </contour>
  </outline>
</glyph>
<glyph name="percent" format="1">
  <advance width="1818"/>
  <unicode hex="0025"/>
  <outline>
    <contour>
      <point x="998" y="1376" type="line"/>
      <point x="1140" y="1376" type="line"/>
      <point x="800" y="0" type="line"/>
      <point x="662" y="0" type="line"/>
    </contour>
    <contour>
      <point x="1768" y="368" type="curve" smooth="yes"/>
      <point x="1768" y="135.729"/>
      <point x="1626.53" y="-32"/>
      <point x="1396" y="-32" type="curve" smooth="yes"/>
      <point x="1161.23" y="-32"/>
      <point x="1024" y="133.43"/>
      <point x="1024" y="368.001" type="curve" smooth="yes"/>
      <point x="1024" y="599.653"/>
      <point x="1166.05" y="770"/>
      <point x="1396" y="770" type="curve" smooth="yes"/>
      <point x="1625.57" y="770"/>
      <point x="1768" y="596.134"/>
    </contour>
    <contour>
      <point x="1278" y="368" type="curve" smooth="yes"/>
      <point x="1278" y="276.738"/>
      <point x="1307.23" y="172"/>
      <point x="1396" y="172" type="curve" smooth="yes"/>
      <point x="1484.51" y="172"/>
      <point x="1514" y="278.568"/>
      <point x="1514" y="368" type="curve" smooth="yes"/>
      <point x="1514" y="456.977"/>
      <point x="1482.42" y="562"/>
      <point x="1396" y="562" type="curve" smooth="yes"/>
      <point x="1306.38" y="562"/>
      <point x="1278" y="459.416"/>
    </contour>
    <contour>
      <point x="794" y="1014" type="curve" smooth="yes"/>
      <point x="794" y="780.576"/>
      <point x="652.007" y="614"/>
      <point x="420" y="614" type="curve" smooth="yes"/>
      <point x="186.445" y="614"/>
      <point x="50" y="782.036"/>
      <point x="50" y="1014" type="curve" smooth="yes"/>
      <point x="50.0001" y="1247.96"/>
      <point x="192.424" y="1414"/>
      <point x="425" y="1414" type="curve" smooth="yes"/>
      <point x="654.533" y="1414"/>
      <point x="794" y="1240.67"/>
    </contour>
    <contour>
      <point x="304" y="1014" type="curve" smooth="yes"/>
      <point x="304" y="924.418"/>
      <point x="333.41" y="816"/>
      <point x="420" y="816" type="curve" smooth="yes"/>
      <point x="510.04" y="816"/>
      <point x="540" y="923.045"/>
      <point x="540" y="1014" type="curve" smooth="yes"/>
      <point x="540" y="1104.48"/>
      <point x="507.593" y="1208"/>
      <point x="420" y="1208" type="curve" smooth="yes"/>
      <point x="329.882" y="1208"/>
      <point x="304" y="1105.15"/>
    </contour>
  </outline>
</glyph>
<glyph name="ampersand" format="1">
  <advance width="1375"/>
  <unicode hex="0026"/>
  <outline>
    <contour>
      <point x="1087" y="1060" type="curve" smooth="yes"/>
      <point x="1087" y="869.536"/>
      <point x="957.104" y="751.772"/>
      <point x="819" y="692" type="curve"/>
      <point x="861.632" y="640.841"/>
      <point x="912.185" y="572.889"/>
      <point x="957" y="524" type="curve"/>
      <point x="1121" y="700" type="line"/>
      <point x="1305" y="504" type="line"/>
      <point x="1256.33" y="410"/>
      <point x="1199" y="334.667"/>
      <point x="1133" y="278" type="curve"/>
      <point x="1375" y="0" type="line"/>
      <point x="963" y="0" type="line"/>
      <point x="874" y="103" type="line"/>
      <point x="788.759" y="33.8856"/>
      <point x="668.336" y="-32"/>
      <point x="525" y="-32" type="curve" smooth="yes"/>
      <point x="251.189" y="-32"/>
      <point x="57" y="112.078"/>
      <point x="57" y="384" type="curve" smooth="yes"/>
      <point x="57.0001" y="601.91"/>
      <point x="191.452" y="690.211"/>
      <point x="341" y="760" type="curve"/>
      <point x="246.333" y="864.668"/>
      <point x="199" y="963.334"/>
      <point x="199" y="1056" type="curve" smooth="yes"/>
      <point x="199" y="1288.5"/>
      <point x="429.581" y="1414"/>
      <point x="667" y="1414" type="curve" smooth="yes"/>
      <point x="902.248" y="1414"/>
      <point x="1087" y="1292.74"/>
    </contour>
    <contour>
      <point x="421" y="398" type="curve" smooth="yes"/>
      <point x="421" y="322.365"/>
      <point x="467.209" y="270"/>
      <point x="543" y="270" type="curve" smooth="yes"/>
      <point x="596.333" y="270"/>
      <point x="637.667" y="284.667"/>
      <point x="667" y="314" type="curve"/>
      <point x="499" y="528" type="line"/>
      <point x="447" y="498.667"/>
      <point x="421" y="455.333"/>
    </contour>
    <contour>
      <point x="765" y="1052" type="curve" smooth="yes"/>
      <point x="765" y="1110.16"/>
      <point x="727.792" y="1146"/>
      <point x="669" y="1146" type="curve" smooth="yes"/>
      <point x="598.333" y="1146"/>
      <point x="563" y="1114.67"/>
      <point x="563" y="1052" type="curve" smooth="yes"/>
      <point x="563" y="983.975"/>
      <point x="616.151" y="943.089"/>
      <point x="663" y="906" type="curve"/>
      <point x="724.017" y="933.119"/>
      <point x="765" y="965.001"/>
    </contour>
  </outline>
</glyph>
<glyph name="quotesingle" format="1">
  <advance width="406"/>
  <unicode hex="0027"/>
  <outline>
    <contour>
      <point x="60" y="1534" type="line"/>
      <point x="356" y="1534" type="line"/>
      <point x="298" y="1026" type="line"/>
      <point x="102" y="1026" type="line"/>
    </contour>
  </outline>
</glyph>
<glyph name="parenleft" format="1">
  <advance width="855"/>
  <unicode hex="0028"/>
  <outline>
    <contour>
      <point x="497" y="668" type="curve" smooth="yes"/>
      <point x="497" y="359.776"/>
      <point x="552.447" y="41.813"/>
      <point x="809" y="-4" type="curve"/>
      <point x="809" y="-264" type="line"/>
      <point x="317.112" y="-219.043"/>
      <point x="41" y="132.711"/>
      <point x="41" y="668" type="curve" smooth="yes"/>
      <point x="41" y="1205.39"/>
      <point x="322.577" y="1532.53"/>
      <point x="809" y="1582" type="curve"/>
      <point x="809" y="1322" type="line"/>
      <point x="560.386" y="1279.98"/>
      <point x="497" y="969.822"/>
    </contour>
  </outline>
</glyph>
<glyph name="parenright" format="1">
  <advance width="855"/>
  <unicode hex="0029"/>
  <outline>
    <contour>
      <point x="46" y="1582" type="line"/>
      <point x="531.875" y="1530.86"/>
      <point x="814" y="1201.2"/>
      <point x="814" y="668" type="curve" smooth="yes"/>
      <point x="814" y="131.257"/>
      <point x="536.279" y="-218.205"/>
      <point x="46" y="-264" type="curve"/>
      <point x="46" y="-4" type="line"/>
      <point x="297.686" y="37.9477"/>
      <point x="358" y="362.572"/>
      <point x="358" y="668" type="curve" smooth="yes"/>
      <point x="358" y="966.396"/>
      <point x="295.704" y="1282.57"/>
      <point x="46" y="1322" type="curve"/>
    </contour>
  </outline>
</glyph>
<glyph name="asterisk" format="1">
  <advance width="1096"/>
  <unicode hex="002A"/>
  <outline>
    <contour>
      <point x="381" y="884" type="line"/>
      <point x="65" y="1022" type="line"/>
      <point x="175" y="1240" type="line"/>
      <point x="451" y="1074" type="line"/>
      <point x="429" y="1408" type="line"/>
      <point x="677" y="1408" type="line"/>
      <point x="651" y="1076" type="line"/>
      <point x="919" y="1244" type="line"/>
      <point x="1035" y="1022" type="line"/>
      <point x="715" y="884" type="line"/>
      <point x="949" y="638" type="line"/>
      <point x="741" y="474" type="line"/>
      <point x="545" y="770" type="line"/>
      <point x="353" y="474" type="line"/>
      <point x="147" y="640" type="line"/>
    </contour>
  </outline>
</glyph>
<glyph name="plus" format="1">
  <advance width="1092"/>
  <unicode hex="002B"/>
  <outline>
    <contour>
      <point x="488" y="458" type="line"/>
      <point x="48" y="458" type="line"/>
      <point x="48" y="572" type="line"/>
      <point x="488" y="572" type="line"/>
      <point x="488" y="1026" type="line"/>
      <point x="608" y="1026" type="line"/>
      <point x="608" y="572" type="line"/>
      <point x="1044" y="572" type="line"/>
      <point x="1044" y="458" type="line"/>
      <point x="608" y="458" type="line"/>
      <point x="608" y="0" type="line"/>
      <point x="488" y="0" type="line"/>
    </contour>
  </outline>
</glyph>
<glyph name="comma" format="1">
  <advance width="604"/>
  <unicode hex="002C"/>
  <outline>
    <contour>
      <point x="94" y="-106" type="line"/>
      <point x="122.998" y="-106"/>
      <point x="154.522" y="-108.513"/>
      <point x="183.287" y="-108.513" type="curve" smooth="yes"/>
      <point x="267.784" y="-108.513"/>
      <point x="284" y="-86.0324"/>
      <point x="284" y="0" type="curve"/>
      <point x="94" y="0" type="line"/>
      <point x="94" y="382" type="line"/>
      <point x="514" y="382" type="line"/>
      <point x="510" y="174" type="line" smooth="yes"/>
      <point x="504.989" y="-101.618"/>
      <point x="506.77" y="-307.819"/>
      <point x="254" y="-338" type="curve" smooth="yes"/>
      <point x="209.333" y="-343.333"/>
      <point x="156" y="-346"/>
      <point x="94" y="-346" type="curve"/>
    </contour>
  </outline>
</glyph>
<glyph name="hyphen" format="1">
  <advance width="740"/>
  <unicode hex="002D"/>
  <outline>
    <contour>
      <point x="95" y="650" type="line"/>
      <point x="645" y="650" type="line"/>
      <point x="645" y="408" type="line"/>
      <point x="95" y="408" type="line"/>
    </contour>
  </outline>
</glyph>
<glyph name="period" format="1">
  <advance width="574"/>
  <unicode hex="002E"/>
  <outline>
    <contour>
      <point x="288" y="-32" type="curve" smooth="yes"/>
      <point x="160.997" y="-32"/>
      <point x="58" y="49.9826"/>
      <point x="58" y="176" type="curve" smooth="yes"/>
      <point x="58" y="299.262"/>
      <point x="164.696" y="382"/>
      <point x="288" y="382" type="curve" smooth="yes"/>
      <point x="410.467" y="382"/>
      <point x="518" y="297.335"/>
      <point x="518" y="176" type="curve" smooth="yes"/>
      <point x="518" y="50.9052"/>
      <point x="413.206" y="-32"/>
    </contour>
  </outline>
</glyph>
<glyph name="slash" format="1">
  <advance width="658"/>
  <unicode hex="002F"/>
  <outline>
    <contour>
      <point x="396" y="1408" type="line"/>
      <point x="600" y="1408" type="line"/>
      <point x="260" y="0" type="line"/>
      <point x="60" y="0" type="line"/>
    </contour>
  </outline>
</glyph>
<glyph name="zero" format="1">
  <advance width="1420"/>
  <unicode hex="0030"/>
  <outline>
    <contour>
      <point x="710" y="1399" type="curve" smooth="yes"/>
      <point x="1088.87" y="1399"/>
      <point x="1352" y="1081.13"/>
      <point x="1352" y="692" type="curve" smooth="yes"/>
      <point x="1352" y="301.516"/>
      <point x="1093.19" y="-17"/>
      <point x="710" y="-17" type="curve" smooth="yes"/>
      <point x="304.614" y="-17"/>
      <point x="68" y="288.929"/>
      <point x="68" y="692" type="curve" smooth="yes"/>
      <point x="68" y="1025.75"/>
      <point x="230.954" y="1254.84"/>
      <point x="467" y="1351.5" type="curve" smooth="yes"/>
      <point x="544.333" y="1383.17"/>
      <point x="625.333" y="1399"/>
    </contour>
    <contour>
      <point x="710" y="1059" type="curve" smooth="yes"/>
      <point x="541.548" y="1059"/>
      <point x="489" y="861.287"/>
      <point x="489" y="692" type="curve" smooth="yes"/>
      <point x="489" y="523.338"/>
      <point x="545.352" y="323"/>
      <point x="710" y="323" type="curve" smooth="yes"/>
      <point x="870.072" y="323"/>
      <point x="929" y="524.455"/>
      <point x="929" y="692" type="curve" smooth="yes"/>
      <point x="929" y="861.085"/>
      <point x="873.86" y="1059"/>
    </contour>
  </outline>
</glyph>
<glyph name="one" format="1">
  <advance width="926"/>
  <unicode hex="0031"/>
  <outline>
    <contour>
      <point x="88" y="1237" type="line"/>
      <point x="241.328" y="1237"/>
      <point x="380.219" y="1298.73"/>
      <point x="486" y="1371" type="curve"/>
      <point x="700" y="1371" type="line"/>
      <point x="700" y="302" type="line"/>
      <point x="872" y="302" type="line"/>
      <point x="872" y="0" type="line"/>
      <point x="88" y="0" type="line"/>
      <point x="88" y="302" type="line"/>
      <point x="260" y="302" type="line"/>
      <point x="260" y="983" type="line"/>
      <point x="88" y="971" type="line"/>
    </contour>
  </outline>
</glyph>
<glyph name="two" format="1">
  <advance width="1060"/>
  <unicode hex="0032"/>
  <outline>
    <contour>
      <point x="560" y="930" type="curve" smooth="yes"/>
      <point x="560" y="1015.54"/>
      <point x="506.032" y="1042.9"/>
      <point x="436.816" y="1042.9" type="curve" smooth="yes"/>
      <point x="337.448" y="1042.9"/>
      <point x="206.653" y="986.521"/>
      <point x="159" y="965" type="curve"/>
      <point x="56" y="1270" type="line"/>
      <point x="201.115" y="1329.37"/>
      <point x="347.735" y="1384"/>
      <point x="546" y="1384" type="curve" smooth="yes"/>
      <point x="816.341" y="1384"/>
      <point x="981" y="1200.1"/>
      <point x="981" y="932" type="curve" smooth="yes"/>
      <point x="981" y="699.354"/>
      <point x="823.405" y="546.518"/>
      <point x="687" y="439" type="curve" smooth="yes"/>
      <point x="620.476" y="386.563"/>
      <point x="550.528" y="342.453"/>
      <point x="478" y="298" type="curve"/>
      <point x="939" y="298" type="line"/>
      <point x="939" y="0" type="line"/>
      <point x="79" y="0" type="line"/>
      <point x="79" y="288" type="line"/>
      <point x="246.576" y="444.715"/>
      <point x="421.418" y="613.756"/>
      <point x="525" y="815" type="curve" smooth="yes"/>
      <point x="548.333" y="860.333"/>
      <point x="560" y="898.667"/>
    </contour>
  </outline>
</glyph>
<glyph name="three" format="1">
  <advance width="1071"/>
  <unicode hex="0033"/>
  <outline>
    <contour>
      <point x="587" y="974" type="curve" smooth="yes"/>
      <point x="587" y="1051.26"/>
      <point x="536.968" y="1068"/>
      <point x="456" y="1068" type="curve" smooth="yes"/>
      <point x="371.333" y="1068"/>
      <point x="262.667" y="1048"/>
      <point x="130" y="1008" type="curve"/>
      <point x="60" y="1276" type="line"/>
      <point x="216.667" y="1349.33"/>
      <point x="370.667" y="1386"/>
      <point x="522" y="1386" type="curve" smooth="yes"/>
      <point x="731.831" y="1386"/>
      <point x="942" y="1276.23"/>
      <point x="942" y="1072" type="curve" smooth="yes"/>
      <point x="942" y="932.666"/>
      <point x="877.333" y="821.333"/>
      <point x="748" y="738" type="curve"/>
      <point x="893.004" y="676.195"/>
      <point x="1004" y="560.69"/>
      <point x="1004" y="366" type="curve" smooth="yes"/>
      <point x="1004" y="102.846"/>
      <point x="769.154" y="-22"/>
      <point x="500" y="-22" type="curve" smooth="yes"/>
      <point x="370.667" y="-22"/>
      <point x="224" y="4.66667"/>
      <point x="60" y="58" type="curve"/>
      <point x="130" y="358" type="line"/>
      <point x="238" y="314"/>
      <point x="339.333" y="292"/>
      <point x="434" y="292" type="curve" smooth="yes"/>
      <point x="532.425" y="292"/>
      <point x="599" y="315.395"/>
      <point x="599" y="409" type="curve" smooth="yes"/>
      <point x="599" y="571.335"/>
      <point x="390.781" y="580"/>
      <point x="226" y="580" type="curve"/>
      <point x="226" y="834" type="line"/>
      <point x="382.862" y="834"/>
      <point x="587" y="853.821"/>
    </contour>
  </outline>
</glyph>
<glyph name="four" format="1">
  <advance width="1300"/>
  <unicode hex="0034"/>
  <outline>
    <contour>
      <point x="36" y="333" type="line"/>
      <point x="36" y="620" type="line"/>
      <point x="582" y="1371" type="line"/>
      <point x="1040" y="1371" type="line"/>
      <point x="1040" y="617" type="line"/>
      <point x="1236" y="617" type="line"/>
      <point x="1236" y="331" type="line"/>
      <point x="1040" y="331" type="line"/>
      <point x="1040" y="0" type="line"/>
      <point x="604" y="0" type="line"/>
      <point x="604" y="333" type="line"/>
    </contour>
    <contour>
      <point x="338" y="617" type="line"/>
      <point x="604" y="617" type="line"/>
      <point x="604" y="1022" type="line"/>
    </contour>
  </outline>
</glyph>
<glyph name="five" format="1">
  <advance width="1096"/>
  <unicode hex="0035"/>
  <outline>
    <contour>
      <point x="1040" y="452" type="curve" smooth="yes"/>
      <point x="1040" y="161.879"/>
      <point x="798.739" y="-27"/>
      <point x="485" y="-27" type="curve" smooth="yes"/>
      <point x="369.667" y="-27"/>
      <point x="240" y="2.33333"/>
      <point x="96" y="61" type="curve"/>
      <point x="123" y="351" type="line"/>
      <point x="245" y="308.333"/>
      <point x="363.667" y="287"/>
      <point x="479" y="287" type="curve" smooth="yes"/>
      <point x="576.917" y="287"/>
      <point x="636" y="354.793"/>
      <point x="636" y="453" type="curve" smooth="yes"/>
      <point x="636" y="539.024"/>
      <point x="589.032" y="605"/>
      <point x="503" y="605" type="curve" smooth="yes"/>
      <point x="450.333" y="605"/>
      <point x="383.333" y="577.333"/>
      <point x="302" y="522" type="curve"/>
      <point x="88" y="615" type="line"/>
      <point x="141" y="1371" type="line"/>
      <point x="931" y="1371" type="line"/>
      <point x="902" y="1077" type="line"/>
      <point x="417" y="1077" type="line"/>
      <point x="392" y="865" type="line"/>
      <point x="461.322" y="885.447"/>
      <point x="526.496" y="913"/>
      <point x="615" y="913" type="curve" smooth="yes"/>
      <point x="859.001" y="913"/>
      <point x="1040" y="730.129"/>
    </contour>
  </outline>
</glyph>
<glyph name="six" format="1">
  <advance width="1283"/>
  <unicode hex="0036"/>
  <outline>
    <contour>
      <point x="1060" y="986" type="line"/>
      <point x="969.488" y="1022.64"/>
      <point x="862.213" y="1073"/>
      <point x="746" y="1073" type="curve" smooth="yes"/>
      <point x="540.064" y="1073"/>
      <point x="500.806" y="894.64"/>
      <point x="475" y="714" type="curve"/>
      <point x="553.262" y="788.349"/>
      <point x="633.662" y="857.023"/>
      <point x="776" y="859" type="curve"/>
      <point x="1046.35" y="859"/>
      <point x="1220" y="712.166"/>
      <point x="1220" y="443" type="curve" smooth="yes"/>
      <point x="1220" y="173.997"/>
      <point x="956.069" y="-15"/>
      <point x="682" y="-15" type="curve" smooth="yes"/>
      <point x="288.21" y="-15"/>
      <point x="70" y="250.954"/>
      <point x="70" y="647" type="curve" smooth="yes"/>
      <point x="70" y="1053.34"/>
      <point x="299.713" y="1391"/>
      <point x="699" y="1391" type="curve" smooth="yes"/>
      <point x="896.89" y="1391"/>
      <point x="1029.63" y="1327.98"/>
      <point x="1158" y="1254" type="curve"/>
    </contour>
    <contour>
      <point x="841" y="443" type="curve" smooth="yes"/>
      <point x="841" y="535.585"/>
      <point x="770.469" y="591"/>
      <point x="678" y="591" type="curve" smooth="yes"/>
      <point x="598.677" y="591"/>
      <point x="536.875" y="577.089"/>
      <point x="483" y="554" type="curve"/>
      <point x="499.323" y="431.58"/>
      <point x="521.619" y="279"/>
      <point x="659" y="279" type="curve" smooth="yes"/>
      <point x="762.199" y="279"/>
      <point x="841" y="339.705"/>
    </contour>
  </outline>
</glyph>
<glyph name="seven" format="1">
  <advance width="955"/>
  <unicode hex="0037"/>
  <outline>
    <contour>
      <point x="492" y="1073" type="line"/>
      <point x="54" y="1073" type="line"/>
      <point x="54" y="1371" type="line"/>
      <point x="912" y="1371" type="line"/>
      <point x="912" y="1033" type="line"/>
      <point x="478" y="-34" type="line"/>
      <point x="98" y="122" type="line"/>
    </contour>
  </outline>
</glyph>
<glyph name="nine" format="1">
  <advance width="1261"/>
  <unicode hex="0039"/>
  <outline>
    <contour>
      <point x="517" y="526" type="curve" smooth="yes"/>
      <point x="244.778" y="526"/>
      <point x="62" y="666.446"/>
      <point x="62" y="937" type="curve" smooth="yes"/>
      <point x="62" y="1229.07"/>
      <point x="318.33" y="1388"/>
      <point x="612" y="1388" type="curve" smooth="yes"/>
      <point x="1001.52" y="1388"/>
      <point x="1191" y="1076.79"/>
      <point x="1191" y="691" type="curve" smooth="yes"/>
      <point x="1191" y="297.716"/>
      <point x="960.474" y="-8"/>
      <point x="575" y="-8" type="curve" smooth="yes"/>
      <point x="383.211" y="-8"/>
      <point x="251.548" y="56.5676"/>
      <point x="126" y="128" type="curve"/>
      <point x="218" y="387" type="line"/>
      <point x="306.288" y="349.33"/>
      <point x="404.506" y="302"/>
      <point x="527" y="302" type="curve" smooth="yes"/>
      <point x="704.957" y="302"/>
      <point x="797.524" y="428.661"/>
      <point x="800" y="655" type="curve"/>
      <point x="723.568" y="587.927"/>
      <point x="660.276" y="526"/>
    </contour>
    <contour>
      <point x="428" y="937" type="curve" smooth="yes"/>
      <point x="428" y="826.144"/>
      <point x="498.107" y="761.702"/>
      <point x="609.564" y="761.702" type="curve" smooth="yes"/>
      <point x="680.78" y="761.702"/>
      <point x="735.198" y="780.658"/>
      <point x="790" y="800" type="curve"/>
      <point x="775.306" y="946.943"/>
      <point x="747.182" y="1104"/>
      <point x="612" y="1104" type="curve" smooth="yes"/>
      <point x="505.694" y="1104"/>
      <point x="428" y="1043.88"/>
    </contour>
  </outline>
</glyph>
<glyph name="semicolon" format="1">
  <advance width="612"/>
  <unicode hex="003B"/>
  <outline>
    <contour>
      <point x="104" y="-106" type="line"/>
      <point x="132.765" y="-106"/>
      <point x="163.921" y="-108.382"/>
      <point x="192.478" y="-108.382" type="curve" smooth="yes"/>
      <point x="277.375" y="-108.382"/>
      <point x="296" y="-86.5181"/>
      <point x="296" y="0" type="curve"/>
      <point x="104" y="0" type="line"/>
      <point x="104" y="382" type="line"/>
      <point x="524" y="382" type="line"/>
      <point x="521" y="255" type="line"/>
      <point x="517.508" y="26.2914"/>
      <point x="539.422" y="-229.193"/>
      <point x="385.5" y="-307" type="curve" smooth="yes"/>
      <point x="314.479" y="-342.901"/>
      <point x="218.596" y="-346"/>
      <point x="104" y="-346" type="curve"/>
    </contour>
    <contour>
      <point x="310" y="614" type="curve" smooth="yes"/>
      <point x="183.035" y="614"/>
      <point x="78" y="694.091"/>
      <point x="78" y="820" type="curve" smooth="yes"/>
      <point x="78" y="943.741"/>
      <point x="186.238" y="1028"/>
      <point x="310" y="1028" type="curve" smooth="yes"/>
      <point x="432.992" y="1028"/>
      <point x="538" y="941.791"/>
      <point x="538" y="820" type="curve" smooth="yes"/>
      <point x="538" y="696.379"/>
      <point x="433.624" y="614"/>
    </contour>
  </outline>
</glyph>
<glyph name="less" format="1">
  <advance width="938"/>
  <unicode hex="003C"/>
  <outline>
    <contour>
      <point x="55" y="804" type="line"/>
      <point x="835" y="1232" type="line"/>
      <point x="835" y="924" type="line"/>
      <point x="227" y="620" type="line"/>
      <point x="835" y="332" type="line"/>
      <point x="835" y="0" type="line"/>
      <point x="55" y="456" type="line"/>
    </contour>
  </outline>
</glyph>
<glyph name="equal" format="1">
  <advance width="838"/>
  <unicode hex="003D"/>
  <outline>
    <contour>
      <point x="107" y="442" type="line"/>
      <point x="731" y="442" type="line"/>
      <point x="731" y="318" type="line"/>
      <point x="107" y="318" type="line"/>
    </contour>
    <contour>
      <point x="107" y="720" type="line"/>
      <point x="731" y="720" type="line"/>
      <point x="731" y="594" type="line"/>
      <point x="107" y="594" type="line"/>
    </contour>
  </outline>
</glyph>
<glyph name="greater" format="1">
  <advance width="938"/>
  <unicode hex="003E"/>
  <outline>
    <contour>
      <point x="103" y="332" type="line"/>
      <point x="711" y="620" type="line"/>
      <point x="103" y="924" type="line"/>
      <point x="103" y="1232" type="line"/>
      <point x="883" y="804" type="line"/>
      <point x="883" y="456" type="line"/>
      <point x="103" y="0" type="line"/>
    </contour>
  </outline>
</glyph>
<glyph name="question" format="1">
  <advance width="1035"/>
  <unicode hex="003F"/>
  <outline>
    <contour>
      <point x="490" y="1440" type="curve" smooth="yes"/>
      <point x="753.419" y="1440"/>
      <point x="986" y="1317.57"/>
      <point x="986" y="1058" type="curve" smooth="yes"/>
      <point x="986" y="798.092"/>
      <point x="752.303" y="755.78"/>
      <point x="586.5" y="661.5" type="curve" smooth="yes"/>
      <point x="540.55" y="635.371"/>
      <point x="526" y="613.819"/>
      <point x="526" y="546" type="curve" smooth="yes"/>
      <point x="526" y="520" type="line"/>
      <point x="240" y="520" type="line"/>
      <point x="216" y="597" type="line"/>
      <point x="210.775" y="617.901"/>
      <point x="204" y="653.412"/>
      <point x="204" y="680" type="curve" smooth="yes"/>
      <point x="206.731" y="887.581"/>
      <point x="391.483" y="898.838"/>
      <point x="510.5" y="990" type="curve" smooth="yes"/>
      <point x="526.167" y="1002"/>
      <point x="534" y="1014"/>
      <point x="534" y="1026" type="curve" smooth="yes"/>
      <point x="534" y="1070"/>
      <point x="480" y="1092"/>
      <point x="372" y="1092" type="curve" smooth="yes"/>
      <point x="266.667" y="1092"/>
      <point x="178" y="1074"/>
      <point x="106" y="1038" type="curve"/>
      <point x="78" y="1350" type="line"/>
      <point x="224" y="1410"/>
      <point x="361.333" y="1440"/>
    </contour>
    <contour>
      <point x="380" y="-32" type="curve" smooth="yes"/>
      <point x="252.296" y="-32"/>
      <point x="148" y="49.4489"/>
      <point x="148" y="176" type="curve" smooth="yes"/>
      <point x="148" y="299.324"/>
      <point x="256.553" y="382"/>
      <point x="380" y="382" type="curve" smooth="yes"/>
      <point x="502.468" y="382"/>
      <point x="610" y="297.335"/>
      <point x="610" y="176" type="curve" smooth="yes"/>
      <point x="610" y="50.9052"/>
      <point x="505.205" y="-32"/>
    </contour>
  </outline>
</glyph>
<glyph name="at" format="1">
  <advance width="1769"/>
  <unicode hex="0040"/>
  <outline>
    <contour>
      <point x="1716" y="839" type="curve" smooth="yes"/>
      <point x="1716" y="581.927"/>
      <point x="1616.17" y="377"/>
      <point x="1362" y="377" type="curve" smooth="yes"/>
      <point x="1217.33" y="377"/>
      <point x="1114" y="427.333"/>
      <point x="1052" y="528" type="curve"/>
      <point x="1007.77" y="443.227"/>
      <point x="928.055" y="379"/>
      <point x="804" y="379" type="curve" smooth="yes"/>
      <point x="598.65" y="379"/>
      <point x="467" y="547.61"/>
      <point x="467" y="750" type="curve" smooth="yes"/>
      <point x="467" y="948.261"/>
      <point x="609.681" y="1111"/>
      <point x="806" y="1111" type="curve" smooth="yes"/>
      <point x="961.724" y="1111"/>
      <point x="1111.94" y="1103.53"/>
      <point x="1261" y="1091" type="curve"/>
      <point x="1261" y="622" type="line"/>
      <point x="1287" y="594.667"/>
      <point x="1312" y="581"/>
      <point x="1336" y="581" type="curve" smooth="yes"/>
      <point x="1439.21" y="581"/>
      <point x="1456" y="729.255"/>
      <point x="1456" y="835" type="curve" smooth="yes"/>
      <point x="1456" y="1129.67"/>
      <point x="1274" y="1277"/>
      <point x="910" y="1277" type="curve" smooth="yes"/>
      <point x="571.537" y="1277"/>
      <point x="321" y="1072.4"/>
      <point x="321" y="737" type="curve" smooth="yes"/>
      <point x="321" y="401.65"/>
      <point x="567.907" y="213"/>
      <point x="900" y="213" type="curve" smooth="yes"/>
      <point x="1050" y="213"/>
      <point x="1186.67" y="244.333"/>
      <point x="1310" y="307" type="curve"/>
      <point x="1430" y="103" type="line"/>
      <point x="1285.97" y="18.9811"/>
      <point x="1127.69" y="-32"/>
      <point x="900" y="-32" type="curve" smooth="yes"/>
      <point x="509.453" y="-32"/>
      <point x="240.299" y="152.347"/>
      <point x="123" y="428" type="curve" smooth="yes"/>
      <point x="83" y="522"/>
      <point x="63" y="624.667"/>
      <point x="63" y="736" type="curve" smooth="yes"/>
      <point x="63" y="1106.77"/>
      <point x="278.483" y="1343.65"/>
      <point x="551" y="1453" type="curve" smooth="yes"/>
      <point x="655.667" y="1495"/>
      <point x="774.667" y="1516"/>
      <point x="908" y="1516" type="curve" smooth="yes"/>
      <point x="1374.2" y="1516"/>
      <point x="1716" y="1301.45"/>
    </contour>
    <contour>
      <point x="876" y="607" type="curve" smooth="yes"/>
      <point x="951.573" y="607"/>
      <point x="1012" y="663.676"/>
      <point x="1012" y="739" type="curve" smooth="yes"/>
      <point x="1012" y="902" type="line"/>
      <point x="876" y="902" type="line" smooth="yes"/>
      <point x="790.094" y="902"/>
      <point x="737" y="830.995"/>
      <point x="737" y="745" type="curve" smooth="yes"/>
      <point x="737" y="663.935"/>
      <point x="794.919" y="607"/>
    </contour>
  </outline>
</glyph>
<glyph name="A" format="1">
  <advance width="1431"/>
  <unicode hex="0041"/>
  <outline>
    <contour>
      <point x="395.5" y="1408" type="line"/>
      <point x="1017.5" y="1408" type="line"/>
      <point x="1425.5" y="0" type="line"/>
      <point x="943.5" y="0" type="line"/>
      <point x="874.5" y="270" type="line"/>
      <point x="535.5" y="270" type="line"/>
      <point x="467.5" y="0" type="line"/>
      <point x="5.5" y="0" type="line"/>
    </contour>
    <contour>
      <point x="826.5" y="522" type="line"/>
      <point x="707.5" y="1048" type="line"/>
      <point x="579.5" y="522" type="line"/>
    </contour>
  </outline>
</glyph>
<glyph name="C" format="1">
  <advance width="1237"/>
  <unicode hex="0043"/>
  <outline>
    <contour>
      <point x="523" y="707" type="curve" smooth="yes"/>
      <point x="523" y="476.513"/>
      <point x="644.984" y="338"/>
      <point x="875" y="338" type="curve" smooth="yes"/>
      <point x="980.971" y="338"/>
      <point x="1050.65" y="365.072"/>
      <point x="1129" y="396" type="curve"/>
      <point x="1185" y="71" type="line"/>
      <point x="1066.33" y="2.33333"/>
      <point x="936.999" y="-32"/>
      <point x="797" y="-32" type="curve" smooth="yes"/>
      <point x="383.048" y="-32"/>
      <point x="66.7752" y="290.988"/>
      <point x="63" y="705" type="curve"/>
      <point x="63.0001" y="1138.13"/>
      <point x="354.578" y="1439"/>
      <point x="785" y="1439" type="curve" smooth="yes"/>
      <point x="931.001" y="1439"/>
      <point x="1063.67" y="1405"/>
      <point x="1183" y="1337" type="curve"/>
      <point x="1129" y="1019" type="line"/>
      <point x="1032.33" y="1056.33"/>
      <point x="943.667" y="1075"/>
      <point x="863" y="1075" type="curve" smooth="yes"/>
      <point x="636.539" y="1075"/>
      <point x="523" y="935.552"/>
    </contour>
  </outline>
</glyph>
<glyph name="D" format="1">
  <advance width="1565"/>
  <unicode hex="0044"/>
  <outline>
    <contour>
      <point x="134" y="1408" type="line"/>
      <point x="746" y="1408" type="line" smooth="yes"/>
      <point x="1187.38" y="1408"/>
      <point x="1500" y="1151.2"/>
      <point x="1500" y="714" type="curve" smooth="yes"/>
      <point x="1500" y="264.182"/>
      <point x="1196.08" y="7.53041e-06"/>
      <point x="746" y="0" type="curve" smooth="yes"/>
      <point x="134" y="0" type="line"/>
    </contour>
    <contour>
      <point x="1040" y="718" type="curve" smooth="yes"/>
      <point x="1040" y="902.996"/>
      <point x="929.633" y="1040"/>
      <point x="746" y="1040" type="curve" smooth="yes"/>
      <point x="586" y="1040" type="line"/>
      <point x="586" y="368" type="line"/>
      <point x="746" y="368" type="line" smooth="yes"/>
      <point x="936.227" y="368"/>
      <point x="1040" y="530.188"/>
    </contour>
  </outline>
</glyph>
<glyph name="E" format="1">
  <advance width="1218"/>
  <unicode hex="0045"/>
  <outline>
    <contour>
      <point x="134" y="1408" type="line"/>
      <point x="1122" y="1408" type="line"/>
      <point x="1122" y="1098" type="line"/>
      <point x="630" y="1098" type="line"/>
      <point x="630" y="842" type="line"/>
      <point x="1080" y="842" type="line"/>
      <point x="1080" y="584" type="line"/>
      <point x="630" y="584" type="line"/>
      <point x="630" y="308" type="line"/>
      <point x="1122" y="308" type="line"/>
      <point x="1122" y="0" type="line"/>
      <point x="134" y="0" type="line"/>
    </contour>
  </outline>
</glyph>
<glyph name="F" format="1">
  <advance width="1168"/>
  <unicode hex="0046"/>
  <outline>
    <contour>
      <point x="134" y="1408" type="line"/>
      <point x="1104" y="1408" type="line"/>
      <point x="1104" y="1098" type="line"/>
      <point x="574" y="1098" type="line"/>
      <point x="574" y="814" type="line"/>
      <point x="1064" y="814" type="line"/>
      <point x="1064" y="554" type="line"/>
      <point x="574" y="554" type="line"/>
      <point x="574" y="0" type="line"/>
      <point x="134" y="0" type="line"/>
    </contour>
  </outline>
</glyph>
<glyph name="G" format="1">
  <advance width="1349"/>
  <unicode hex="0047"/>
  <outline>
    <contour>
      <point x="61" y="716" type="curve" smooth="yes"/>
      <point x="61" y="1106.13"/>
      <point x="379.192" y="1440"/>
      <point x="767" y="1440" type="curve" smooth="yes"/>
      <point x="941.667" y="1440"/>
      <point x="1099.67" y="1406"/>
      <point x="1241" y="1338" type="curve"/>
      <point x="1105" y="1020" type="line"/>
      <point x="985" y="1058.67"/>
      <point x="891.667" y="1078"/>
      <point x="825" y="1078" type="curve" smooth="yes"/>
      <point x="624.63" y="1078"/>
      <point x="517" y="910.917"/>
      <point x="517" y="711" type="curve" smooth="yes"/>
      <point x="517" y="509.812"/>
      <point x="626.513" y="336"/>
      <point x="825" y="336" type="curve" smooth="yes"/>
      <point x="849.667" y="336"/>
      <point x="877" y="338"/>
      <point x="907" y="342" type="curve"/>
      <point x="907" y="674" type="line"/>
      <point x="1261" y="714" type="line"/>
      <point x="1261" y="74" type="line"/>
      <point x="1101" y="3.33333"/>
      <point x="937" y="-32"/>
      <point x="769" y="-32" type="curve" smooth="yes"/>
      <point x="370.816" y="-32"/>
      <point x="61" y="313.819"/>
    </contour>
  </outline>
</glyph>
<glyph name="H" format="1">
  <advance width="1626"/>
  <unicode hex="0048"/>
  <outline>
    <contour>
      <point x="134" y="1408" type="line"/>
      <point x="594" y="1408" type="line"/>
      <point x="594" y="848" type="line"/>
      <point x="1030" y="848" type="line"/>
      <point x="1030" y="1408" type="line"/>
      <point x="1492" y="1408" type="line"/>
      <point x="1492" y="0" type="line"/>
      <point x="1030" y="0" type="line"/>
      <point x="1030" y="552" type="line"/>
      <point x="594" y="552" type="line"/>
      <point x="594" y="0" type="line"/>
      <point x="134" y="0" type="line"/>
    </contour>
  </outline>
</glyph>
<glyph name="I" format="1">
  <advance width="740"/>
  <unicode hex="0049"/>
  <outline>
    <contour>
      <point x="134" y="1408" type="line"/>
      <point x="606" y="1408" type="line"/>
      <point x="606" y="0" type="line"/>
      <point x="134" y="0" type="line"/>
    </contour>
  </outline>
</glyph>
<glyph name="J" format="1">
  <advance width="934"/>
  <unicode hex="004A"/>
  <outline>
    <contour>
      <point x="810" y="412" type="line" smooth="yes"/>
      <point x="810" y="108.194"/>
      <point x="651.932" y="-92"/>
      <point x="350" y="-92" type="curve" smooth="yes"/>
      <point x="223.333" y="-92"/>
      <point x="106" y="-56"/>
      <point x="-2" y="16" type="curve"/>
      <point x="94" y="270" type="line"/>
      <point x="149.333" y="251.333"/>
      <point x="196" y="242"/>
      <point x="234" y="242" type="curve" smooth="yes"/>
      <point x="324.667" y="242"/>
      <point x="370" y="298.667"/>
      <point x="370" y="412" type="curve" smooth="yes"/>
      <point x="370" y="1408" type="line"/>
      <point x="810" y="1408" type="line"/>
    </contour>
  </outline>
</glyph>
<glyph name="K" format="1">
  <advance width="1570"/>
  <unicode hex="004B"/>
  <outline>
    <contour>
      <point x="134" y="1408" type="line"/>
      <point x="608" y="1408" type="line"/>
      <point x="608" y="834" type="line"/>
      <point x="756" y="834" type="line"/>
      <point x="1028" y="1408" type="line"/>
      <point x="1502" y="1408" type="line"/>
      <point x="1502" y="1316" type="line"/>
      <point x="1178" y="710" type="line"/>
      <point x="1548" y="92" type="line"/>
      <point x="1548" y="0" type="line"/>
      <point x="1050" y="0" type="line"/>
      <point x="748" y="560" type="line"/>
      <point x="608" y="560" type="line"/>
      <point x="608" y="0" type="line"/>
      <point x="134" y="0" type="line"/>
    </contour>
  </outline>
</glyph>
<glyph name="L" format="1">
  <advance width="1102"/>
  <unicode hex="004C"/>
  <outline>
    <contour>
      <point x="134" y="1408" type="line"/>
      <point x="576" y="1408" type="line"/>
      <point x="576" y="302" type="line"/>
      <point x="1064" y="302" type="line"/>
      <point x="1064" y="0" type="line"/>
      <point x="134" y="0" type="line"/>
    </contour>
  </outline>
</glyph>
<glyph name="M" format="1">
  <advance width="1816"/>
  <unicode hex="004D"/>
  <outline>
    <contour>
      <point x="134" y="1408" type="line"/>
      <point x="560" y="1408" type="line"/>
      <point x="912" y="724" type="line"/>
      <point x="1256" y="1408" type="line"/>
      <point x="1682" y="1408" type="line"/>
      <point x="1682" y="0" type="line"/>
      <point x="1256" y="0" type="line"/>
      <point x="1256" y="752" type="line"/>
      <point x="996" y="260" type="line"/>
      <point x="822" y="260" type="line"/>
      <point x="560" y="752" type="line"/>
      <point x="560" y="0" type="line"/>
      <point x="134" y="0" type="line"/>
    </contour>
  </outline>
</glyph>
<glyph name="N" format="1">
  <advance width="1606"/>
  <unicode hex="004E"/>
  <outline>
    <contour>
      <point x="134" y="1408" type="line"/>
      <point x="544" y="1408" type="line"/>
      <point x="1106" y="650" type="line"/>
      <point x="1106" y="1408" type="line"/>
      <point x="1472" y="1408" type="line"/>
      <point x="1472" y="0" type="line"/>
      <point x="1062" y="0" type="line"/>
      <point x="498" y="734" type="line"/>
      <point x="498" y="0" type="line"/>
      <point x="134" y="0" type="line"/>
    </contour>
  </outline>
</glyph>
<glyph name="P" format="1">
  <advance width="1330"/>
  <unicode hex="0050"/>
  <outline>
    <contour>
      <point x="795.434" y="1414.13" type="curve" smooth="yes"/>
      <point x="1181.94" y="1414.13"/>
      <point x="1322.16" y="1233.84"/>
      <point x="1322.16" y="959.734" type="curve" smooth="yes"/>
      <point x="1322.16" y="700.569"/>
      <point x="1150.52" y="518.615"/>
      <point x="782.291" y="518.615" type="curve" smooth="yes"/>
      <point x="719.318" y="518.615"/>
      <point x="650.596" y="524.226"/>
      <point x="576" y="536" type="curve"/>
      <point x="576" y="0" type="line"/>
      <point x="134" y="0" type="line"/>
      <point x="134" y="1380" type="line"/>
      <point x="351.467" y="1392.71"/>
      <point x="569.572" y="1414.13"/>
    </contour>
    <contour>
      <point x="576" y="814" type="line"/>
      <point x="622.847" y="802.705"/>
      <point x="669.356" y="796.025"/>
      <point x="712.3" y="796.025" type="curve" smooth="yes"/>
      <point x="841.353" y="796.025"/>
      <point x="941.405" y="838.726"/>
      <point x="941.405" y="959.863" type="curve" smooth="yes"/>
      <point x="941.405" y="1040.35"/>
      <point x="880.367" y="1119"/>
      <point x="749" y="1119" type="curve" smooth="yes"/>
      <point x="576" y="1119" type="line"/>
    </contour>
  </outline>
</glyph>
<glyph name="Q" format="1">
  <advance width="1634"/>
  <unicode hex="0051"/>
  <outline>
    <contour>
      <point x="1570" y="706" type="curve" smooth="yes"/>
      <point x="1570" y="438.54"/>
      <point x="1457.6" y="248.282"/>
      <point x="1308" y="124" type="curve"/>
      <point x="1570" y="-47" type="line"/>
      <point x="1570" y="-124" type="line"/>
      <point x="1312" y="-326" type="line"/>
      <point x="860" y="-28" type="line"/>
      <point x="846.667" y="-30.6667"/>
      <point x="832" y="-32"/>
      <point x="816" y="-32" type="curve" smooth="yes"/>
      <point x="366.048" y="-32"/>
      <point x="62" y="257.925"/>
      <point x="62" y="706" type="curve" smooth="yes"/>
      <point x="62" y="1133.88"/>
      <point x="384.585" y="1439"/>
      <point x="816" y="1439" type="curve" smooth="yes"/>
      <point x="1269.44" y="1439"/>
      <point x="1570" y="1153.36"/>
    </contour>
    <contour>
      <point x="522" y="706" type="curve" smooth="yes"/>
      <point x="522" y="509.61"/>
      <point x="622.253" y="338"/>
      <point x="816" y="338" type="curve" smooth="yes"/>
      <point x="1013.91" y="338"/>
      <point x="1110" y="510.12"/>
      <point x="1110" y="706" type="curve" smooth="yes"/>
      <point x="1110" y="906.179"/>
      <point x="1013.69" y="1075"/>
      <point x="816" y="1075" type="curve" smooth="yes"/>
      <point x="616.593" y="1075"/>
      <point x="522" y="903.204"/>
    </contour>
  </outline>
</glyph>
<glyph name="R" format="1">
  <advance width="1429"/>
  <unicode hex="0052"/>
  <outline>
    <contour>
      <point x="1318" y="330" type="curve" smooth="yes"/>
      <point x="1340.91" y="330"/>
      <point x="1361.77" y="334.11"/>
      <point x="1389" y="338" type="curve"/>
      <point x="1389" y="4" type="line"/>
      <point x="1301.67" y="-20"/>
      <point x="1238.67" y="-32"/>
      <point x="1200" y="-32" type="curve" smooth="yes"/>
      <point x="952.666" y="-32"/>
      <point x="789.83" y="78.6914"/>
      <point x="734" y="306" type="curve" smooth="yes"/>
      <point x="678" y="534" type="line"/>
      <point x="582" y="534" type="line"/>
      <point x="582" y="0" type="line"/>
      <point x="134" y="0" type="line"/>
      <point x="134" y="1408" type="line"/>
      <point x="760" y="1408" type="line" smooth="yes"/>
      <point x="1060.14" y="1408"/>
      <point x="1346" y="1289.24"/>
      <point x="1346" y="994" type="curve" smooth="yes"/>
      <point x="1346" y="779.101"/>
      <point x="1225.44" y="676.262"/>
      <point x="1074" y="610" type="curve"/>
      <point x="1104.39" y="444.564"/>
      <point x="1121.82" y="330"/>
    </contour>
    <contour>
      <point x="936" y="974" type="curve" smooth="yes"/>
      <point x="936" y="1084.64"/>
      <point x="833.61" y="1104"/>
      <point x="722" y="1104" type="curve" smooth="yes"/>
      <point x="582" y="1104" type="line"/>
      <point x="582" y="822" type="line"/>
      <point x="660" y="822" type="line" smooth="yes"/>
      <point x="792.481" y="822"/>
      <point x="936" y="836.334"/>
    </contour>
  </outline>
</glyph>
<glyph name="S" format="1">
  <advance width="1213"/>
  <unicode hex="0053"/>
  <outline>
    <contour>
      <point x="625" y="1099" type="curve" smooth="yes"/>
      <point x="566.849" y="1099"/>
      <point x="492" y="1087.64"/>
      <point x="492" y="1030" type="curve" smooth="yes"/>
      <point x="492" y="988"/>
      <point x="528.667" y="956"/>
      <point x="602" y="934" type="curve" smooth="yes"/>
      <point x="778.5" y="882.507" type="line" smooth="yes"/>
      <point x="987.102" y="821.648"/>
      <point x="1152" y="683.957"/>
      <point x="1152" y="460" type="curve" smooth="yes"/>
      <point x="1152" y="116.202"/>
      <point x="934.727" y="-32"/>
      <point x="590" y="-32" type="curve" smooth="yes"/>
      <point x="395.333" y="-32"/>
      <point x="224" y="3.33334"/>
      <point x="76" y="74" type="curve"/>
      <point x="122.941" y="191.738"/>
      <point x="144.955" y="290.387"/>
      <point x="184" y="388" type="curve"/>
      <point x="301.314" y="359.062"/>
      <point x="425.587" y="312"/>
      <point x="562" y="312" type="curve" smooth="yes"/>
      <point x="644.701" y="312"/>
      <point x="736" y="316.346"/>
      <point x="736" y="398" type="curve" smooth="yes"/>
      <point x="736" y="455.653"/>
      <point x="677.157" y="480.611"/>
      <point x="635" y="494" type="curve" smooth="yes"/>
      <point x="402" y="568" type="line"/>
      <point x="223.218" y="623.397"/>
      <point x="70" y="752.51"/>
      <point x="70" y="984" type="curve" smooth="yes"/>
      <point x="70" y="1288"/>
      <point x="252.667" y="1440"/>
      <point x="618" y="1440" type="curve" smooth="yes"/>
      <point x="791.333" y="1440"/>
      <point x="952.667" y="1404"/>
      <point x="1102" y="1332" type="curve"/>
      <point x="992" y="1026" type="line"/>
      <point x="870.801" y="1064.97"/>
      <point x="716.886" y="1099"/>
    </contour>
  </outline>
</glyph>
<glyph name="T" format="1">
  <advance width="1182"/>
  <unicode hex="0054"/>
  <outline>
    <contour>
      <point x="352" y="1110" type="line"/>
      <point x="60" y="1110" type="line"/>
      <point x="60" y="1408" type="line"/>
      <point x="1122" y="1408" type="line"/>
      <point x="1122" y="1110" type="line"/>
      <point x="830" y="1110" type="line"/>
      <point x="830" y="0" type="line"/>
      <point x="352" y="0" type="line"/>
    </contour>
  </outline>
</glyph>
<glyph name="U" format="1">
  <advance width="1634"/>
  <unicode hex="0055"/>
  <outline>
    <contour>
      <point x="817" y="-32" type="curve" smooth="yes"/>
      <point x="430.949" y="-32"/>
      <point x="121" y="202.594"/>
      <point x="121" y="584" type="curve" smooth="yes"/>
      <point x="121" y="1408" type="line"/>
      <point x="583" y="1408" type="line"/>
      <point x="583" y="584" type="line" smooth="yes"/>
      <point x="583" y="420"/>
      <point x="661" y="338"/>
      <point x="817" y="338" type="curve" smooth="yes"/>
      <point x="973.238" y="338"/>
      <point x="1051" y="425.934"/>
      <point x="1051" y="584" type="curve" smooth="yes"/>
      <point x="1051" y="1408" type="line"/>
      <point x="1513" y="1408" type="line"/>
      <point x="1513" y="584" type="line" smooth="yes"/>
      <point x="1513" y="181.756"/>
      <point x="1214.47" y="-31.9999"/>
    </contour>
  </outline>
</glyph>
<glyph name="V" format="1">
  <advance width="1377"/>
  <unicode hex="0056"/>
  <outline>
    <contour>
      <point x="4" y="1408" type="line"/>
      <point x="466" y="1408" type="line"/>
      <point x="684" y="530" type="line"/>
      <point x="902" y="1408" type="line"/>
      <point x="1384" y="1408" type="line"/>
      <point x="944" y="0" type="line"/>
      <point x="422" y="0" type="line"/>
    </contour>
  </outline>
</glyph>
<glyph name="W" format="1">
  <advance width="2028"/>
  <unicode hex="0057"/>
  <outline>
    <contour>
      <point x="43" y="1408" type="line"/>
      <point x="503" y="1408" type="line"/>
      <point x="637" y="510" type="line"/>
      <point x="775" y="1170" type="line"/>
      <point x="1251" y="1170" type="line"/>
      <point x="1391" y="510" type="line"/>
      <point x="1523" y="1408" type="line"/>
      <point x="1985" y="1408" type="line"/>
      <point x="1665" y="0" type="line"/>
      <point x="1187" y="0" type="line"/>
      <point x="1013" y="758" type="line"/>
      <point x="839" y="0" type="line"/>
      <point x="363" y="0" type="line"/>
    </contour>
  </outline>
</glyph>
<glyph name="X" format="1">
  <advance width="1296"/>
  <unicode hex="0058"/>
  <outline>
    <contour>
      <point x="391" y="700" type="line"/>
      <point x="13" y="1408" type="line"/>
      <point x="477" y="1408" type="line"/>
      <point x="643" y="1052" type="line"/>
      <point x="809" y="1408" type="line"/>
      <point x="1283" y="1408" type="line"/>
      <point x="901" y="700" type="line"/>
      <point x="1295" y="0" type="line"/>
      <point x="821" y="0" type="line"/>
      <point x="643" y="350" type="line"/>
      <point x="465" y="0" type="line"/>
      <point x="1" y="0" type="line"/>
    </contour>
  </outline>
</glyph>
<glyph name="Y" format="1">
  <advance width="1253"/>
  <unicode hex="0059"/>
  <outline>
    <contour>
      <point x="400" y="392" type="line"/>
      <point x="-6" y="1408" type="line"/>
      <point x="422" y="1408" type="line"/>
      <point x="620" y="776" type="line"/>
      <point x="816" y="1408" type="line"/>
      <point x="1266" y="1408" type="line"/>
      <point x="840" y="392" type="line"/>
      <point x="840" y="0" type="line"/>
      <point x="400" y="0" type="line"/>
    </contour>
  </outline>
</glyph>
<glyph name="Z" format="1">
  <advance width="1107"/>
  <unicode hex="005A"/>
  <outline>
    <contour>
      <point x="73" y="296" type="line"/>
      <point x="555" y="1110" type="line"/>
      <point x="93" y="1110" type="line"/>
      <point x="93" y="1408" type="line"/>
      <point x="1013" y="1408" type="line"/>
      <point x="1013" y="1110" type="line"/>
      <point x="543" y="296" type="line"/>
      <point x="1034" y="296" type="line"/>
      <point x="1034" y="0" type="line"/>
      <point x="73" y="0" type="line"/>
    </contour>
  </outline>
</glyph>
<glyph name="bracketleft" format="1">
  <advance width="915"/>
  <unicode hex="005B"/>
  <outline>
    <contour>
      <point x="119" y="1408" type="line"/>
      <point x="845" y="1408" type="line"/>
      <point x="845" y="1104" type="line"/>
      <point x="559" y="1104" type="line"/>
      <point x="559" y="302" type="line"/>
      <point x="845" y="302" type="line"/>
      <point x="845" y="0" type="line"/>
      <point x="119" y="0" type="line"/>
    </contour>
  </outline>
</glyph>
<glyph name="backslash" format="1">
  <advance width="656"/>
  <unicode hex="005C"/>
  <outline>
    <contour>
      <point x="597" y="0" type="line"/>
      <point x="397" y="0" type="line"/>
      <point x="57" y="1408" type="line"/>
      <point x="261" y="1408" type="line"/>
    </contour>
  </outline>
</glyph>
<glyph name="bracketright" format="1">
  <advance width="915"/>
  <unicode hex="005D"/>
  <outline>
    <contour>
      <point x="70" y="302" type="line"/>
      <point x="356" y="302" type="line"/>
      <point x="356" y="1104" type="line"/>
      <point x="70" y="1104" type="line"/>
      <point x="70" y="1408" type="line"/>
      <point x="796" y="1408" type="line"/>
      <point x="796" y="0" type="line"/>
      <point x="70" y="0" type="line"/>
    </contour>
  </outline>
</glyph>
<glyph name="asciicircum" format="1">
  <advance width="1204"/>
  <unicode hex="005E"/>
  <outline>
    <contour>
      <point x="418" y="1376" type="line"/>
      <point x="784" y="1376" type="line"/>
      <point x="1134" y="350" type="line"/>
      <point x="830" y="350" type="line"/>
      <point x="604" y="1184" type="line"/>
      <point x="382" y="350" type="line"/>
      <point x="72" y="350" type="line"/>
    </contour>
  </outline>
</glyph>
<glyph name="underscore" format="1">
  <advance width="844"/>
  <unicode hex="005F"/>
  <outline>
    <contour>
      <point x="82" y="142" type="line"/>
      <point x="762" y="142" type="line"/>
      <point x="762" y="-32" type="line"/>
      <point x="82" y="-32" type="line"/>
    </contour>
  </outline>
</glyph>
<glyph name="grave" format="1">
  <advance width="864"/>
  <unicode hex="0060"/>
  <outline>
    <contour>
      <point x="238" y="1790" type="line"/>
      <point x="838" y="1370" type="line"/>
      <point x="712" y="1150" type="line"/>
      <point x="30" y="1424" type="line"/>
    </contour>
  </outline>
</glyph>
<glyph name="a" format="1">
  <advance width="1425"/>
  <unicode hex="0061"/>
  <outline>
    <contour>
      <point x="554" y="1056" type="curve" smooth="yes"/>
      <point x="762.614" y="1056"/>
      <point x="890.384" y="934.782"/>
      <point x="950" y="802" type="curve"/>
      <point x="890" y="742" type="line"/>
      <point x="890" y="1056" type="line"/>
      <point x="1320" y="1026" type="line"/>
      <point x="1320" y="0" type="line"/>
      <point x="890" y="-32" type="line"/>
      <point x="890" y="252" type="line"/>
      <point x="950" y="190" type="line"/>
      <point x="880.669" y="67.3359"/>
      <point x="763.002" y="-32"/>
      <point x="552" y="-32" type="curve" smooth="yes"/>
      <point x="254.927" y="-32"/>
      <point x="52" y="221.332"/>
      <point x="52" y="519" type="curve" smooth="yes"/>
      <point x="52" y="816.184"/>
      <point x="261.6" y="1056"/>
    </contour>
    <contour>
      <point x="688" y="308" type="curve" smooth="yes"/>
      <point x="808.072" y="308"/>
      <point x="890" y="399.695"/>
      <point x="890" y="520" type="curve"/>
      <point x="884.65" y="628.576"/>
      <point x="801.012" y="716"/>
      <point x="688" y="716" type="curve" smooth="yes"/>
      <point x="570.305" y="716"/>
      <point x="482" y="629.296"/>
      <point x="482" y="512" type="curve" smooth="yes"/>
      <point x="482" y="394.717"/>
      <point x="571.357" y="308"/>
    </contour>
  </outline>
</glyph>
<glyph name="b" format="1">
  <advance width="1472"/>
  <unicode hex="0062"/>
  <outline>
    <contour>
      <point x="890" y="-32" type="curve" smooth="yes"/>
      <point x="686.934" y="-32"/>
      <point x="564.222" y="76.0342"/>
      <point x="496" y="210" type="curve"/>
      <point x="556" y="284" type="line"/>
      <point x="556" y="0" type="line"/>
      <point x="122" y="0" type="line"/>
      <point x="122" y="1350" type="line"/>
      <point x="556" y="1414" type="line"/>
      <point x="556" y="754" type="line"/>
      <point x="496" y="820" type="line"/>
      <point x="599.015" y="983.606"/>
      <point x="749.404" y="1057.07"/>
      <point x="897.553" y="1057.07" type="curve" smooth="yes"/>
      <point x="1146.95" y="1057.07"/>
      <point x="1390" y="848.871"/>
      <point x="1390" y="512" type="curve" smooth="yes"/>
      <point x="1390" y="215.023"/>
      <point x="1182" y="-32"/>
    </contour>
    <contour>
      <point x="758" y="716" type="curve" smooth="yes"/>
      <point x="640.518" y="716"/>
      <point x="556" y="629.275"/>
      <point x="556" y="512" type="curve" smooth="yes"/>
      <point x="556" y="395.116"/>
      <point x="641.651" y="308"/>
      <point x="758" y="308" type="curve" smooth="yes"/>
      <point x="873.766" y="308"/>
      <point x="962" y="396.617"/>
      <point x="962" y="512" type="curve" smooth="yes"/>
      <point x="962" y="629.638"/>
      <point x="874.979" y="716"/>
    </contour>
  </outline>
</glyph>
<glyph name="c" format="1">
  <advance width="966"/>
  <unicode hex="0063"/>
  <outline>
    <contour>
      <point x="918" y="50" type="line"/>
      <point x="830.242" y="4.99582"/>
      <point x="737.703" y="-32"/>
      <point x="608" y="-32" type="curve" smooth="yes"/>
      <point x="278.626" y="-32"/>
      <point x="52" y="184.09"/>
      <point x="52" y="512" type="curve" smooth="yes"/>
      <point x="52" y="838.456"/>
      <point x="285.433" y="1056"/>
      <point x="608" y="1056" type="curve" smooth="yes"/>
      <point x="750.026" y="1056"/>
      <point x="831.682" y="1011.76"/>
      <point x="922" y="958" type="curve"/>
      <point x="882" y="686" type="line"/>
      <point x="808" y="708.667"/>
      <point x="741.333" y="720"/>
      <point x="682" y="720" type="curve" smooth="yes"/>
      <point x="554.971" y="720"/>
      <point x="478" y="639.083"/>
      <point x="478" y="512" type="curve" smooth="yes"/>
      <point x="478" y="383.055"/>
      <point x="556.767" y="302"/>
      <point x="686" y="302" type="curve" smooth="yes"/>
      <point x="745.333" y="302"/>
      <point x="809.333" y="313.333"/>
      <point x="878" y="336" type="curve"/>
    </contour>
  </outline>
</glyph>
<glyph name="d" format="1">
  <advance width="1428"/>
  <unicode hex="0064"/>
  <outline>
    <contour>
      <point x="551" y="-32" type="curve" smooth="yes"/>
      <point x="272.27" y="-32"/>
      <point x="53" y="229.066"/>
      <point x="53" y="512" type="curve" smooth="yes"/>
      <point x="53" y="809.361"/>
      <point x="260.26" y="1056"/>
      <point x="553" y="1056" type="curve" smooth="yes"/>
      <point x="707.667" y="1056"/>
      <point x="819.667" y="982"/>
      <point x="889" y="834" type="curve"/>
      <point x="889" y="1350" type="line"/>
      <point x="1321" y="1414" type="line"/>
      <point x="1321" y="0" type="line"/>
      <point x="889" y="0" type="line"/>
      <point x="889" y="190" type="line"/>
      <point x="830.902" y="66.5427"/>
      <point x="730.121" y="-31.9999"/>
    </contour>
    <contour>
      <point x="687" y="308" type="curve" smooth="yes"/>
      <point x="802.218" y="308"/>
      <point x="889" y="397.267"/>
      <point x="889" y="512" type="curve" smooth="yes"/>
      <point x="889" y="626.231"/>
      <point x="800.849" y="716"/>
      <point x="687" y="716" type="curve" smooth="yes"/>
      <point x="569.362" y="716"/>
      <point x="483" y="628.979"/>
      <point x="483" y="512" type="curve" smooth="yes"/>
      <point x="483" y="395.123"/>
      <point x="570.473" y="308"/>
    </contour>
  </outline>
</glyph>
<glyph name="e" format="1">
  <advance width="1138"/>
  <unicode hex="0065"/>
  <outline>
    <contour>
      <point x="618" y="1056" type="curve" smooth="yes"/>
      <point x="922.861" y="1056"/>
      <point x="1092" y="840.845"/>
      <point x="1092" y="538" type="curve" smooth="yes"/>
      <point x="1092" y="519.333"/>
      <point x="1090.67" y="502"/>
      <point x="1088" y="486" type="curve"/>
      <point x="474" y="406" type="line"/>
      <point x="506" y="310"/>
      <point x="580.667" y="262"/>
      <point x="698" y="262" type="curve" smooth="yes"/>
      <point x="791.333" y="262"/>
      <point x="892" y="286"/>
      <point x="1000" y="334" type="curve"/>
      <point x="1050" y="52" type="line"/>
      <point x="926" y="-4"/>
      <point x="786.667" y="-32"/>
      <point x="632" y="-32" type="curve" smooth="yes"/>
      <point x="297.035" y="-32"/>
      <point x="52" y="180.605"/>
      <point x="52" y="512" type="curve" smooth="yes"/>
      <point x="52" y="839.066"/>
      <point x="292.63" y="1056"/>
    </contour>
    <contour>
      <point x="774" y="664" type="line"/>
      <point x="750.667" y="749.333"/>
      <point x="698.667" y="792"/>
      <point x="618" y="792" type="curve" smooth="yes"/>
      <point x="508.077" y="792"/>
      <point x="458.544" y="701.41"/>
      <point x="456" y="594" type="curve"/>
    </contour>
  </outline>
</glyph>
<glyph name="f" format="1">
  <advance width="890"/>
  <unicode hex="0066"/>
  <outline>
    <contour>
      <point x="180" y="1026" type="line"/>
      <point x="180" y="1341.19"/>
      <point x="244.448" y="1572"/>
      <point x="554" y="1572" type="curve" smooth="yes"/>
      <point x="659.333" y="1572"/>
      <point x="770.667" y="1546"/>
      <point x="888" y="1494" type="curve"/>
      <point x="874" y="1216" type="line"/>
      <point x="796" y="1248"/>
      <point x="730" y="1264"/>
      <point x="676" y="1264" type="curve" smooth="yes"/>
      <point x="597.804" y="1264"/>
      <point x="549" y="1225.43"/>
      <point x="549" y="1148" type="curve" smooth="yes"/>
      <point x="549" y="1112"/>
      <point x="560.667" y="1071.33"/>
      <point x="584" y="1026" type="curve"/>
      <point x="870" y="1026" type="line"/>
      <point x="870" y="772" type="line"/>
      <point x="612" y="772" type="line"/>
      <point x="612" y="0" type="line"/>
      <point x="180" y="0" type="line"/>
      <point x="180" y="772" type="line"/>
      <point x="52" y="772" type="line"/>
      <point x="52" y="1026" type="line"/>
    </contour>
  </outline>
</glyph>
<glyph name="g" format="1">
  <advance width="1423"/>
  <unicode hex="0067"/>
  <outline>
    <contour>
      <point x="549" y="0" type="curve" smooth="yes"/>
      <point x="254.449" y="0"/>
      <point x="50.0351" y="235.968"/>
      <point x="50.0351" y="527.262" type="curve" smooth="yes"/>
      <point x="50.0351" y="808.515"/>
      <point x="268.236" y="1056"/>
      <point x="545" y="1056" type="curve" smooth="yes"/>
      <point x="724.101" y="1056"/>
      <point x="847.682" y="943.543"/>
      <point x="887" y="802" type="curve"/>
      <point x="887" y="1056" type="line"/>
      <point x="1319" y="1024" type="line"/>
      <point x="1319" y="260" type="line" smooth="yes"/>
      <point x="1319" y="-186.585"/>
      <point x="1128.94" y="-470"/>
      <point x="683" y="-470" type="curve" smooth="yes"/>
      <point x="607.658" y="-470"/>
      <point x="537.3" y="-461.717"/>
      <point x="467" y="-450" type="curve"/>
      <point x="499" y="-144" type="line"/>
      <point x="565.668" y="-152"/>
      <point x="612.334" y="-156"/>
      <point x="639" y="-156" type="curve" smooth="yes"/>
      <point x="846.735" y="-156"/>
      <point x="888.774" y="-9.62201"/>
      <point x="917" y="170" type="curve"/>
      <point x="837.667" y="56.6667"/>
      <point x="715" y="0"/>
    </contour>
    <contour>
      <point x="683" y="308" type="curve" smooth="yes"/>
      <point x="802.571" y="308"/>
      <point x="887" y="400.048"/>
      <point x="887" y="520" type="curve"/>
      <point x="881.627" y="627.46"/>
      <point x="795.232" y="716"/>
      <point x="683" y="716" type="curve" smooth="yes"/>
      <point x="565.362" y="716"/>
      <point x="479" y="628.979"/>
      <point x="479" y="512" type="curve" smooth="yes"/>
      <point x="479" y="393.59"/>
      <point x="567.053" y="308"/>
    </contour>
  </outline>
</glyph>
<glyph name="h" format="1">
  <advance width="1413"/>
  <unicode hex="0068"/>
  <outline>
    <contour>
      <point x="743" y="716" type="curve" smooth="yes"/>
      <point x="621.639" y="716"/>
      <point x="539" y="619.349"/>
      <point x="539" y="498" type="curve" smooth="yes"/>
      <point x="539" y="0" type="line"/>
      <point x="107" y="0" type="line"/>
      <point x="107" y="1350" type="line"/>
      <point x="539" y="1414" type="line"/>
      <point x="539" y="798" type="line"/>
      <point x="596.932" y="937.259"/>
      <point x="698.511" y="1056"/>
      <point x="877" y="1056" type="curve" smooth="yes"/>
      <point x="1160.43" y="1056"/>
      <point x="1317" y="805.56"/>
      <point x="1317" y="520" type="curve" smooth="yes"/>
      <point x="1317" y="0" type="line"/>
      <point x="887" y="0" type="line"/>
      <point x="887" y="512" type="line" smooth="yes"/>
      <point x="887" y="609.021"/>
      <point x="837.871" y="716"/>
    </contour>
  </outline>
</glyph>
<glyph name="i" format="1">
  <advance width="748"/>
  <unicode hex="0069"/>
  <outline>
    <contour>
      <point x="323" y="1158" type="curve" smooth="yes"/>
      <point x="194.945" y="1158"/>
      <point x="91" y="1239.56"/>
      <point x="91" y="1366" type="curve" smooth="yes"/>
      <point x="91" y="1490.74"/>
      <point x="197.735" y="1572"/>
      <point x="323" y="1572" type="curve" smooth="yes"/>
      <point x="446.714" y="1572"/>
      <point x="553" y="1486.66"/>
      <point x="553" y="1366" type="curve" smooth="yes"/>
      <point x="553" y="1240.85"/>
      <point x="448.149" y="1158"/>
    </contour>
    <contour>
      <point x="533" y="410" type="line" smooth="yes"/>
      <point x="533" y="322.604"/>
      <point x="586.418" y="296.216"/>
      <point x="645.497" y="296.216" type="curve" smooth="yes"/>
      <point x="685.734" y="296.216"/>
      <point x="728.597" y="308.456"/>
      <point x="759" y="322" type="curve"/>
      <point x="781" y="38" type="line"/>
      <point x="683.784" y="-9.00881"/>
      <point x="584.674" y="-32.6489"/>
      <point x="493.219" y="-32.6489" type="curve" smooth="yes"/>
      <point x="274.15" y="-32.6489"/>
      <point x="99" y="102.991"/>
      <point x="99" y="378" type="curve" smooth="yes"/>
      <point x="99" y="1026" type="line"/>
      <point x="533" y="1026" type="line"/>
    </contour>
  </outline>
</glyph>
<glyph name="j" format="1">
  <advance width="646"/>
  <unicode hex="006A"/>
  <outline>
    <contour>
      <point x="539" y="60" type="line" smooth="yes"/>
      <point x="539" y="-241.019"/>
      <point x="384.23" y="-442"/>
      <point x="85" y="-442" type="curve" smooth="yes"/>
      <point x="-40.3333" y="-442"/>
      <point x="-157" y="-406"/>
      <point x="-265" y="-334" type="curve"/>
      <point x="-171" y="-80" type="line"/>
      <point x="-108.333" y="-100"/>
      <point x="-61" y="-110"/>
      <point x="-29" y="-110" type="curve" smooth="yes"/>
      <point x="61.6667" y="-110"/>
      <point x="107" y="-53.3333"/>
      <point x="107" y="60" type="curve" smooth="yes"/>
      <point x="107" y="1026" type="line"/>
      <point x="539" y="1026" type="line"/>
    </contour>
    <contour>
      <point x="315" y="1158" type="curve" smooth="yes"/>
      <point x="188.509" y="1158"/>
      <point x="85" y="1240.88"/>
      <point x="85" y="1366" type="curve" smooth="yes"/>
      <point x="85" y="1488.47"/>
      <point x="192.176" y="1572"/>
      <point x="315" y="1572" type="curve" smooth="yes"/>
      <point x="440.233" y="1572"/>
      <point x="547" y="1488.21"/>
      <point x="547" y="1366" type="curve" smooth="yes"/>
      <point x="547" y="1239.47"/>
      <point x="441.874" y="1158"/>
    </contour>
  </outline>
</glyph>
<glyph name="k" format="1">
  <advance width="1314"/>
  <unicode hex="006B"/>
  <outline>
    <contour>
      <point x="1113" y="-30" type="curve" smooth="yes"/>
      <point x="807.009" y="-30"/>
      <point x="726.368" y="135.205"/>
      <point x="661" y="378" type="curve"/>
      <point x="541" y="282" type="line"/>
      <point x="541" y="0" type="line"/>
      <point x="107" y="0" type="line"/>
      <point x="107" y="1350" type="line"/>
      <point x="541" y="1414" type="line"/>
      <point x="541" y="712" type="line"/>
      <point x="1067" y="1142" type="line"/>
      <point x="1303" y="822" type="line"/>
      <point x="973" y="592" type="line"/>
      <point x="997.048" y="449.9"/>
      <point x="1021.14" y="314"/>
      <point x="1179" y="314" type="curve" smooth="yes"/>
      <point x="1198.34" y="314"/>
      <point x="1227.67" y="318"/>
      <point x="1267" y="326" type="curve"/>
      <point x="1227" y="-24" type="line"/>
      <point x="1185" y="-28"/>
      <point x="1147" y="-30"/>
    </contour>
  </outline>
</glyph>
<glyph name="l" format="1">
  <advance width="935"/>
  <unicode hex="006C"/>
  <outline>
    <contour>
      <point x="556" y="410" type="line" smooth="yes"/>
      <point x="556" y="322.604"/>
      <point x="609.418" y="296.216"/>
      <point x="668.497" y="296.216" type="curve" smooth="yes"/>
      <point x="708.734" y="296.216"/>
      <point x="751.598" y="308.456"/>
      <point x="782" y="322" type="curve"/>
      <point x="804" y="38" type="line"/>
      <point x="706.784" y="-9.00879"/>
      <point x="607.674" y="-32.6484"/>
      <point x="516.219" y="-32.6484" type="curve" smooth="yes"/>
      <point x="297.15" y="-32.6484"/>
      <point x="122" y="102.991"/>
      <point x="122" y="378" type="curve" smooth="yes"/>
      <point x="122" y="1350" type="line"/>
      <point x="554" y="1414" type="line"/>
    </contour>
  </outline>
</glyph>
<glyph name="m" format="1">
  <advance width="2100"/>
  <unicode hex="006D"/>
  <outline>
    <contour>
      <point x="884" y="1056" type="curve" smooth="yes"/>
      <point x="1075.13" y="1056"/>
      <point x="1186.39" y="929.686"/>
      <point x="1240" y="786" type="curve"/>
      <point x="1292.78" y="943.084"/>
      <point x="1411.74" y="1056"/>
      <point x="1616" y="1056" type="curve" smooth="yes"/>
      <point x="1882.75" y="1056"/>
      <point x="2004" y="782.117"/>
      <point x="2004" y="512" type="curve" smooth="yes"/>
      <point x="2004" y="0" type="line"/>
      <point x="1572" y="0" type="line"/>
      <point x="1572" y="512" type="line" smooth="yes"/>
      <point x="1572" y="614.314"/>
      <point x="1532.32" y="712"/>
      <point x="1432" y="712" type="curve" smooth="yes"/>
      <point x="1326.15" y="712"/>
      <point x="1268" y="616.303"/>
      <point x="1268" y="512" type="curve" smooth="yes"/>
      <point x="1268" y="0" type="line"/>
      <point x="840" y="0" type="line"/>
      <point x="840" y="512" type="line" smooth="yes"/>
      <point x="840" y="615.605"/>
      <point x="797.74" y="712"/>
      <point x="696" y="712" type="curve" smooth="yes"/>
      <point x="591.159" y="712"/>
      <point x="536.647" y="623.247"/>
      <point x="534" y="520" type="curve"/>
      <point x="534" y="0" type="line"/>
      <point x="102" y="0" type="line"/>
      <point x="102" y="990" type="line"/>
      <point x="534" y="1056" type="line"/>
      <point x="534" y="802" type="line"/>
      <point x="610" y="971.333"/>
      <point x="726.667" y="1056"/>
    </contour>
  </outline>
</glyph>
<glyph name="n" format="1">
  <advance width="1444"/>
  <unicode hex="006E"/>
  <outline>
    <contour>
      <point x="756" y="716" type="curve" smooth="yes"/>
      <point x="642.393" y="716"/>
      <point x="556.834" y="630.507"/>
      <point x="554" y="520" type="curve"/>
      <point x="554" y="0" type="line"/>
      <point x="122" y="0" type="line"/>
      <point x="122" y="990" type="line"/>
      <point x="554" y="1036" type="line"/>
      <point x="554" y="802" type="line"/>
      <point x="622.28" y="938.509"/>
      <point x="737.163" y="1056"/>
      <point x="932" y="1056" type="curve" smooth="yes"/>
      <point x="1193.64" y="1056"/>
      <point x="1330" y="856"/>
      <point x="1330" y="542" type="curve" smooth="yes"/>
      <point x="1330" y="0" type="line"/>
      <point x="900" y="0" type="line"/>
      <point x="900" y="542" type="line" smooth="yes"/>
      <point x="900" y="624.753"/>
      <point x="850.871" y="716"/>
    </contour>
  </outline>
</glyph>
<glyph name="p" format="1">
  <advance width="1423"/>
  <unicode hex="0070"/>
  <outline>
    <contour>
      <point x="1370" y="512" type="curve" smooth="yes"/>
      <point x="1370" y="227.82"/>
      <point x="1150.52" y="-32"/>
      <point x="870" y="-32" type="curve" smooth="yes"/>
      <point x="718.667" y="-32"/>
      <point x="606.667" y="42"/>
      <point x="534" y="190" type="curve"/>
      <point x="534" y="-266" type="line"/>
      <point x="102" y="-348" type="line"/>
      <point x="102" y="990" type="line"/>
      <point x="534" y="1056" type="line"/>
      <point x="534" y="834" type="line"/>
      <point x="604.667" y="982"/>
      <point x="716" y="1056"/>
      <point x="868" y="1056" type="curve" smooth="yes"/>
      <point x="1148.87" y="1056"/>
      <point x="1370" y="798.705"/>
    </contour>
    <contour>
      <point x="736" y="716" type="curve" smooth="yes"/>
      <point x="620.706" y="716"/>
      <point x="534" y="623.987"/>
      <point x="534" y="512" type="curve" smooth="yes"/>
      <point x="534" y="396.232"/>
      <point x="620.801" y="308"/>
      <point x="736" y="308" type="curve" smooth="yes"/>
      <point x="854.185" y="308"/>
      <point x="942" y="394.373"/>
      <point x="942" y="512" type="curve" smooth="yes"/>
      <point x="942" y="631.375"/>
      <point x="853.278" y="716"/>
    </contour>
  </outline>
</glyph>
<glyph name="q" format="1">
  <advance width="1425"/>
  <unicode hex="0071"/>
  <outline>
    <contour>
      <point x="555" y="1056" type="curve" smooth="yes"/>
      <point x="707" y="1056"/>
      <point x="819" y="982"/>
      <point x="891" y="834" type="curve"/>
      <point x="891" y="1056" type="line"/>
      <point x="1323" y="990" type="line"/>
      <point x="1323" y="-266" type="line"/>
      <point x="891" y="-348" type="line"/>
      <point x="891" y="190" type="line"/>
      <point x="817.667" y="42"/>
      <point x="705" y="-32"/>
      <point x="553" y="-32" type="curve" smooth="yes"/>
      <point x="250.775" y="-32"/>
      <point x="53" y="234.507"/>
      <point x="53" y="512" type="curve" smooth="yes"/>
      <point x="53" y="813.486"/>
      <point x="256.701" y="1056"/>
    </contour>
    <contour>
      <point x="689" y="308" type="curve" smooth="yes"/>
      <point x="807.728" y="308"/>
      <point x="891" y="400.844"/>
      <point x="891" y="520" type="curve" smooth="yes"/>
      <point x="891" y="626.4"/>
      <point x="800.276" y="716"/>
      <point x="689" y="716" type="curve" smooth="yes"/>
      <point x="571.73" y="716"/>
      <point x="483" y="628.562"/>
      <point x="483" y="512" type="curve" smooth="yes"/>
      <point x="483" y="395.241"/>
      <point x="572.742" y="308"/>
    </contour>
  </outline>
</glyph>
<glyph name="r" format="1">
  <advance width="914"/>
  <unicode hex="0072"/>
  <outline>
    <contour>
      <point x="912" y="706" type="line"/>
      <point x="723.239" y="706"/>
      <point x="534" y="685.851"/>
      <point x="534" y="532" type="curve" smooth="yes"/>
      <point x="534" y="0" type="line"/>
      <point x="102" y="0" type="line"/>
      <point x="102" y="990" type="line"/>
      <point x="534" y="1056" type="line"/>
      <point x="534" y="802" type="line"/>
      <point x="587.594" y="936.527"/>
      <point x="681.525" y="1056"/>
      <point x="850" y="1056" type="curve"/>
    </contour>
  </outline>
</glyph>
<glyph name="s" format="1">
  <advance width="947"/>
  <unicode hex="0073"/>
  <outline>
    <contour>
      <point x="56" y="712" type="curve"/>
      <point x="65.7477" y="949.228"/>
      <point x="225.014" y="1056"/>
      <point x="454" y="1056" type="curve" smooth="yes"/>
      <point x="613.41" y="1056"/>
      <point x="754.744" y="1025.33"/>
      <point x="878" y="964" type="curve"/>
      <point x="804" y="735" type="line"/>
      <point x="750.515" y="757.178"/>
      <point x="604.411" y="804.6"/>
      <point x="509.675" y="804.6" type="curve" smooth="yes"/>
      <point x="461.148" y="804.6"/>
      <point x="423.816" y="792.343"/>
      <point x="423.816" y="754.996" type="curve" smooth="yes"/>
      <point x="423.816" y="639.013"/>
      <point x="896" y="655.909"/>
      <point x="896" y="342" type="curve" smooth="yes"/>
      <point x="896" y="110.021"/>
      <point x="743.239" y="-33"/>
      <point x="527" y="-33" type="curve" smooth="yes"/>
      <point x="338.233" y="-33"/>
      <point x="179.233" y="0.666671"/>
      <point x="50" y="68" type="curve"/>
      <point x="136" y="320" type="line"/>
      <point x="167.591" y="301.164"/>
      <point x="328.01" y="236.823"/>
      <point x="430.058" y="236.823" type="curve" smooth="yes"/>
      <point x="480.027" y="236.823"/>
      <point x="516" y="252.25"/>
      <point x="516" y="296" type="curve" smooth="yes"/>
      <point x="516" y="401"/>
      <point x="56" y="351.358"/>
    </contour>
  </outline>
</glyph>
<glyph name="t" format="1">
  <advance width="890"/>
  <unicode hex="0074"/>
  <outline>
    <contour>
      <point x="588" y="410" type="line" smooth="yes"/>
      <point x="588" y="323"/>
      <point x="641" y="296"/>
      <point x="701" y="296" type="curve" smooth="yes"/>
      <point x="741" y="296"/>
      <point x="785" y="308"/>
      <point x="815" y="322" type="curve"/>
      <point x="837" y="38" type="line"/>
      <point x="740" y="-9"/>
      <point x="640" y="-33"/>
      <point x="549" y="-33" type="curve" smooth="yes"/>
      <point x="330" y="-33"/>
      <point x="155" y="103"/>
      <point x="155" y="378" type="curve" smooth="yes"/>
      <point x="155" y="807" type="line"/>
      <point x="587" y="915" type="line"/>
    </contour>
    <contour>
      <point x="20" y="772" type="line"/>
      <point x="20" y="862" type="line"/>
      <point x="494" y="1352" type="line"/>
      <point x="587" y="1352" type="line"/>
      <point x="587" y="1026" type="line"/>
      <point x="816" y="1026" type="line"/>
      <point x="816" y="772" type="line"/>
    </contour>
  </outline>
</glyph>
<glyph name="u" format="1">
  <advance width="1286"/>
  <unicode hex="0075"/>
  <outline>
    <contour>
      <point x="1190" y="440" type="line" smooth="yes"/>
      <point x="1190" y="138.125"/>
      <point x="952.687" y="-32"/>
      <point x="648" y="-32" type="curve" smooth="yes"/>
      <point x="341.393" y="-32"/>
      <point x="94" y="135.964"/>
      <point x="94" y="440" type="curve" smooth="yes"/>
      <point x="94" y="1026" type="line"/>
      <point x="516" y="1026" type="line"/>
      <point x="516" y="426" type="line" smooth="yes"/>
      <point x="516" y="351.195"/>
      <point x="575.239" y="304"/>
      <point x="650" y="304" type="curve" smooth="yes"/>
      <point x="721.18" y="304"/>
      <point x="776" y="354.914"/>
      <point x="776" y="426" type="curve" smooth="yes"/>
      <point x="776" y="1026" type="line"/>
      <point x="1190" y="1026" type="line"/>
    </contour>
  </outline>
</glyph>
<glyph name="v" format="1">
  <advance width="1168"/>
  <unicode hex="0076"/>
  <outline>
    <contour>
      <point x="2" y="1026" type="line"/>
      <point x="478" y="1026" type="line"/>
      <point x="640" y="396" type="line"/>
      <point x="788" y="1026" type="line"/>
      <point x="1164" y="1026" type="line"/>
      <point x="838" y="0" type="line"/>
      <point x="340" y="0" type="line"/>
    </contour>
  </outline>
</glyph>
<glyph name="w" format="1">
  <advance width="1707"/>
  <unicode hex="0077"/>
  <outline>
    <contour>
      <point x="41" y="1026" type="line"/>
      <point x="459" y="1026" type="line"/>
      <point x="575" y="360" type="line"/>
      <point x="717" y="1026" type="line"/>
      <point x="1069" y="1026" type="line"/>
      <point x="1209" y="344" type="line"/>
      <point x="1329" y="1026" type="line"/>
      <point x="1665" y="1026" type="line"/>
      <point x="1453" y="0" type="line"/>
      <point x="957" y="0" type="line"/>
      <point x="847" y="542" type="line"/>
      <point x="739" y="0" type="line"/>
      <point x="267" y="0" type="line"/>
    </contour>
  </outline>
</glyph>
<glyph name="x" format="1">
  <advance width="1136"/>
  <unicode hex="0078"/>
  <outline>
    <contour>
      <point x="316" y="532" type="line"/>
      <point x="24" y="1026" type="line"/>
      <point x="456" y="1026" type="line"/>
      <point x="572" y="784" type="line"/>
      <point x="690" y="1026" type="line"/>
      <point x="1110" y="1026" type="line"/>
      <point x="824" y="532" type="line"/>
      <point x="1130" y="0" type="line"/>
      <point x="710" y="0" type="line"/>
      <point x="572" y="262" type="line"/>
      <point x="436" y="0" type="line"/>
      <point x="4" y="0" type="line"/>
    </contour>
  </outline>
</glyph>
<glyph name="y" format="1">
  <advance width="1369"/>
  <unicode hex="0079"/>
  <outline>
    <contour>
      <point x="556" y="-124" type="line"/>
      <point x="588.112" y="-132.325"/>
      <point x="619.601" y="-136"/>
      <point x="657" y="-136" type="curve" smooth="yes"/>
      <point x="814.695" y="-136"/>
      <point x="838.874" y="25.6151"/>
      <point x="852" y="170" type="curve"/>
      <point x="783.568" y="47.5429"/>
      <point x="673.752" y="-1.53924"/>
      <point x="558.865" y="-1.14648" type="curve" smooth="yes"/>
      <point x="223.5" y="0"/>
      <point x="98" y="187.194"/>
      <point x="98" y="434" type="curve" smooth="yes"/>
      <point x="98" y="1026" type="line"/>
      <point x="528" y="1026" type="line"/>
      <point x="528" y="454" type="line" smooth="yes"/>
      <point x="528" y="376.081"/>
      <point x="590.628" y="308"/>
      <point x="668" y="308" type="curve" smooth="yes"/>
      <point x="769.257" y="308"/>
      <point x="832" y="380.818"/>
      <point x="832" y="482" type="curve" smooth="yes"/>
      <point x="832" y="1026" type="line"/>
      <point x="1264" y="1026" type="line"/>
      <point x="1264" y="260" type="line" smooth="yes"/>
      <point x="1264" y="-164.741"/>
      <point x="1107.82" y="-480"/>
      <point x="690" y="-480" type="curve" smooth="yes"/>
      <point x="648" y="-480"/>
      <point x="588.667" y="-473.333"/>
      <point x="512" y="-460" type="curve"/>
    </contour>
  </outline>
</glyph>
<glyph name="z" format="1">
  <advance width="1003"/>
  <unicode hex="007A"/>
  <outline>
    <contour>
      <point x="63" y="220" type="line"/>
      <point x="423" y="764" type="line"/>
      <point x="77" y="764" type="line"/>
      <point x="77" y="1026" type="line"/>
      <point x="929" y="1026" type="line"/>
      <point x="929" y="804" type="line"/>
      <point x="611" y="262" type="line"/>
      <point x="939" y="262" type="line"/>
      <point x="939" y="0" type="line"/>
      <point x="63" y="0" type="line"/>
    </contour>
  </outline>
</glyph>
<glyph name="braceleft" format="1">
  <advance width="728"/>
  <unicode hex="007B"/>
  <outline>
    <contour>
      <point x="660" y="-74" type="line"/>
      <point x="342.409" y="-50.5712"/>
      <point x="138" y="148.803"/>
      <point x="138" y="488" type="curve" smooth="yes"/>
      <point x="138" y="566.759"/>
      <point x="84.5284" y="604.365"/>
      <point x="12" y="612" type="curve"/>
      <point x="12" y="772" type="line"/>
      <point x="84.5302" y="779.635"/>
      <point x="138" y="815.218"/>
      <point x="138" y="894" type="curve" smooth="yes"/>
      <point x="138" y="1237.21"/>
      <point x="343.351" y="1431.39"/>
      <point x="660" y="1458" type="curve"/>
      <point x="660" y="1280" type="line"/>
      <point x="550.74" y="1239.83"/>
      <point x="534" y="1062.46"/>
      <point x="534" y="894" type="curve" smooth="yes"/>
      <point x="534" y="785.978"/>
      <point x="457.193" y="732.696"/>
      <point x="378" y="692" type="curve"/>
      <point x="458.938" y="649.866"/>
      <point x="534" y="598.821"/>
      <point x="534" y="488" type="curve" smooth="yes"/>
      <point x="534" y="318.68"/>
      <point x="554.617" y="144.793"/>
      <point x="660" y="104" type="curve"/>
    </contour>
  </outline>
</glyph>
<glyph name="bar" format="1">
  <advance width="434"/>
  <unicode hex="007C"/>
  <outline>
    <contour>
      <point x="119" y="1408" type="line"/>
      <point x="315" y="1408" type="line"/>
      <point x="315" y="0" type="line"/>
      <point x="119" y="0" type="line"/>
    </contour>
  </outline>
</glyph>
<glyph name="braceright" format="1">
  <advance width="728"/>
  <unicode hex="007D"/>
  <outline>
    <contour>
      <point x="590" y="894" type="curve" smooth="yes"/>
      <point x="590" y="815.226"/>
      <point x="643.486" y="779.633"/>
      <point x="716" y="772" type="curve"/>
      <point x="716" y="612" type="line"/>
      <point x="643.456" y="604.364"/>
      <point x="590" y="566.768"/>
      <point x="590" y="488" type="curve" smooth="yes"/>
      <point x="590" y="143.908"/>
      <point x="385.877" y="-47.5102"/>
      <point x="68" y="-74" type="curve"/>
      <point x="68" y="104" type="line"/>
      <point x="176.026" y="144.308"/>
      <point x="194" y="320.689"/>
      <point x="194" y="488" type="curve" smooth="yes"/>
      <point x="194" y="598.761"/>
      <point x="269.151" y="649.914"/>
      <point x="350" y="692" type="curve"/>
      <point x="270.714" y="732.746"/>
      <point x="194" y="785.916"/>
      <point x="194" y="894" type="curve" smooth="yes"/>
      <point x="194" y="1064.78"/>
      <point x="173.91" y="1239"/>
      <point x="68" y="1280" type="curve"/>
      <point x="68" y="1458" type="line"/>
      <point x="386.471" y="1432.11"/>
      <point x="590" y="1236.47"/>
    </contour>
  </outline>
</glyph>
<glyph name="asciitilde" format="1">
  <advance width="1188"/>
  <unicode hex="007E"/>
  <outline>
    <contour>
      <point x="1156" y="938" type="line"/>
      <point x="1098.73" y="767.181"/>
      <point x="1013.17" y="598"/>
      <point x="822" y="598" type="curve" smooth="yes"/>
      <point x="725.063" y="598"/>
      <point x="655.635" y="621.644"/>
      <point x="586" y="649" type="curve"/>
      <point x="486" y="692" type="line" smooth="yes"/>
      <point x="456.667" y="704"/>
      <point x="424.667" y="710"/>
      <point x="390" y="710" type="curve" smooth="yes"/>
      <point x="325.028" y="710"/>
      <point x="303.99" y="650.644"/>
      <point x="284" y="604" type="curve"/>
      <point x="42" y="702" type="line"/>
      <point x="90.7252" y="843.135"/>
      <point x="165.289" y="972.969"/>
      <point x="289.5" y="1032" type="curve" smooth="yes"/>
      <point x="323.167" y="1048"/>
      <point x="357.333" y="1056"/>
      <point x="392" y="1056" type="curve" smooth="yes"/>
      <point x="572.071" y="1056"/>
      <point x="652.765" y="944"/>
      <point x="814" y="944" type="curve" smooth="yes"/>
      <point x="876.081" y="944"/>
      <point x="899.548" y="987.564"/>
      <point x="918" y="1036" type="curve"/>
    </contour>
  </outline>
</glyph>
<glyph name="cent" format="1">
  <advance width="1008"/>
  <unicode hex="00A2"/>
  <outline>
    <contour>
      <point x="918" y="50" type="line"/>
      <point x="868.403" y="27.6012"/>
      <point x="816.499" y="7.89054"/>
      <point x="758" y="-12" type="curve"/>
      <point x="758" y="-186" type="line"/>
      <point x="624" y="-186" type="line"/>
      <point x="624" y="-32" type="line"/>
      <point x="606" y="-32" type="line" smooth="yes"/>
      <point x="277.888" y="-32"/>
      <point x="52" y="185.188"/>
      <point x="52" y="512" type="curve" smooth="yes"/>
      <point x="52" y="836.861"/>
      <point x="282.344" y="1056"/>
      <point x="606" y="1056" type="curve" smooth="yes"/>
      <point x="624" y="1056" type="line"/>
      <point x="624" y="1190" type="line"/>
      <point x="758" y="1190" type="line"/>
      <point x="758" y="1034" type="line"/>
      <point x="818.668" y="1013.33"/>
      <point x="873.335" y="988"/>
      <point x="922" y="958" type="curve"/>
      <point x="880" y="686" type="line"/>
      <point x="839.413" y="698.755"/>
      <point x="800.157" y="707.514"/>
      <point x="758" y="714" type="curve"/>
      <point x="758" y="308" type="line"/>
      <point x="796.667" y="312"/>
      <point x="836" y="321.333"/>
      <point x="876" y="336" type="curve"/>
    </contour>
    <contour>
      <point x="624" y="714" type="line"/>
      <point x="538.275" y="693.218"/>
      <point x="478" y="617.564"/>
      <point x="478" y="512" type="curve" smooth="yes"/>
      <point x="478" y="405.007"/>
      <point x="536.836" y="329.677"/>
      <point x="624" y="310" type="curve"/>
    </contour>
  </outline>
</glyph>
<glyph name="sterling" format="1">
  <advance width="1074"/>
  <unicode hex="00A3"/>
  <outline>
    <contour>
      <point x="204" y="894" type="line" smooth="yes"/>
      <point x="204" y="1236.28"/>
      <point x="306.611" y="1440"/>
      <point x="649" y="1440" type="curve" smooth="yes"/>
      <point x="761" y="1440"/>
      <point x="879" y="1414"/>
      <point x="1003" y="1362" type="curve"/>
      <point x="969" y="1084" type="line"/>
      <point x="891" y="1116"/>
      <point x="825" y="1132"/>
      <point x="771" y="1132" type="curve" smooth="yes"/>
      <point x="692.804" y="1132"/>
      <point x="644" y="1093.43"/>
      <point x="644" y="1016" type="curve" smooth="yes"/>
      <point x="644" y="790" type="line"/>
      <point x="900" y="790" type="line"/>
      <point x="900" y="616" type="line"/>
      <point x="644" y="616" type="line"/>
      <point x="644" y="300" type="line"/>
      <point x="988" y="300" type="line"/>
      <point x="988" y="0" type="line"/>
      <point x="74" y="0" type="line"/>
      <point x="74" y="128" type="line"/>
      <point x="161.887" y="133.58"/>
      <point x="204" y="204.071"/>
      <point x="204" y="300" type="curve" smooth="yes"/>
      <point x="204" y="616" type="line"/>
      <point x="74" y="616" type="line"/>
      <point x="74" y="790" type="line"/>
      <point x="204" y="790" type="line"/>
    </contour>
  </outline>
</glyph>
<glyph name="currency" format="1">
  <advance width="1145"/>
  <unicode hex="00A4"/>
  <outline>
    <contour>
      <point x="121" y="644" type="curve" smooth="yes"/>
      <point x="121" y="756.568"/>
      <point x="159.934" y="841.357"/>
      <point x="215" y="906" type="curve"/>
      <point x="74" y="1047" type="line"/>
      <point x="166" y="1138" type="line"/>
      <point x="315" y="989" type="line"/>
      <point x="390.334" y="1033.67"/>
      <point x="474.667" y="1056"/>
      <point x="568" y="1056" type="curve" smooth="yes"/>
      <point x="660.667" y="1056"/>
      <point x="746.667" y="1032.33"/>
      <point x="826" y="985" type="curve"/>
      <point x="979" y="1138" type="line"/>
      <point x="1071" y="1047" type="line"/>
      <point x="926" y="902" type="line"/>
      <point x="988.667" y="831.333"/>
      <point x="1020" y="745.333"/>
      <point x="1020" y="644" type="curve" smooth="yes"/>
      <point x="1020" y="542.667"/>
      <point x="987.333" y="455.333"/>
      <point x="922" y="382" type="curve"/>
      <point x="1071" y="233" type="line"/>
      <point x="980" y="141" type="line"/>
      <point x="819" y="301" type="line"/>
      <point x="743.667" y="258.333"/>
      <point x="659.334" y="237"/>
      <point x="566.002" y="237" type="curve" smooth="yes"/>
      <point x="564.257" y="236.984"/>
      <point x="562.516" y="236.976"/>
      <point x="560.778" y="236.976" type="curve" smooth="yes"/>
      <point x="471.248" y="236.976"/>
      <point x="390.841" y="258.384"/>
      <point x="322" y="298" type="curve"/>
      <point x="165" y="141" type="line"/>
      <point x="74" y="233" type="line"/>
      <point x="219" y="378" type="line"/>
      <point x="153.667" y="452.667"/>
      <point x="121" y="541.333"/>
    </contour>
    <contour>
      <point x="400" y="644" type="curve" smooth="yes"/>
      <point x="400" y="540.112"/>
      <point x="466.406" y="471"/>
      <point x="569" y="471" type="curve" smooth="yes"/>
      <point x="672.149" y="471"/>
      <point x="738" y="540.646"/>
      <point x="738" y="644" type="curve" smooth="yes"/>
      <point x="738" y="747.198"/>
      <point x="673.114" y="817"/>
      <point x="570" y="817" type="curve" smooth="yes"/>
      <point x="465.78" y="817"/>
      <point x="400" y="748.446"/>
    </contour>
  </outline>
</glyph>
<glyph name="yen" format="1">
  <advance width="1172"/>
  <unicode hex="00A5"/>
  <outline>
    <contour>
      <point x="158" y="298" type="line"/>
      <point x="466" y="298" type="line"/>
      <point x="466" y="388" type="line"/>
      <point x="158" y="388" type="line"/>
      <point x="158" y="516" type="line"/>
      <point x="414" y="516" type="line"/>
      <point x="48" y="1376" type="line"/>
      <point x="316" y="1376" type="line"/>
      <point x="586" y="632" type="line"/>
      <point x="852" y="1376" type="line"/>
      <point x="1120" y="1376" type="line"/>
      <point x="756" y="516" type="line"/>
      <point x="1028" y="516" type="line"/>
      <point x="1028" y="388" type="line"/>
      <point x="702" y="388" type="line"/>
      <point x="702" y="298" type="line"/>
      <point x="1028" y="298" type="line"/>
      <point x="1028" y="176" type="line"/>
      <point x="702" y="176" type="line"/>
      <point x="702" y="0" type="line"/>
      <point x="466" y="0" type="line"/>
      <point x="466" y="176" type="line"/>
      <point x="158" y="176" type="line"/>
    </contour>
  </outline>
</glyph>
<glyph name="brokenbar" format="1">
  <advance width="438"/>
  <unicode hex="00A6"/>
  <outline>
    <contour>
      <point x="121" y="552" type="line"/>
      <point x="317" y="552" type="line"/>
      <point x="317" y="0" type="line"/>
      <point x="121" y="0" type="line"/>
    </contour>
    <contour>
      <point x="121" y="1408" type="line"/>
      <point x="317" y="1408" type="line"/>
      <point x="317" y="856" type="line"/>
      <point x="121" y="856" type="line"/>
    </contour>
  </outline>
</glyph>
<glyph name="section" format="1">
  <advance width="1091"/>
  <unicode hex="00A7"/>
  <outline>
    <contour>
      <point x="1011" y="764" type="curve" smooth="yes"/>
      <point x="1011" y="645.198"/>
      <point x="958.484" y="562.549"/>
      <point x="883" y="516" type="curve"/>
      <point x="965.667" y="462"/>
      <point x="1007" y="384"/>
      <point x="1007" y="282" type="curve" smooth="yes"/>
      <point x="1007" y="43.1932"/>
      <point x="775.619" y="-32"/>
      <point x="537" y="-32" type="curve" smooth="yes"/>
      <point x="390.333" y="-32"/>
      <point x="248.333" y="-6.66667"/>
      <point x="111" y="44" type="curve"/>
      <point x="155" y="292" type="line"/>
      <point x="252.55" y="260.44"/>
      <point x="368.855" y="232"/>
      <point x="495" y="232" type="curve" smooth="yes"/>
      <point x="557.667" y="232"/>
      <point x="589" y="247.333"/>
      <point x="589" y="278" type="curve" smooth="yes"/>
      <point x="589" y="327.192"/>
      <point x="477.651" y="345.499"/>
      <point x="433" y="362" type="curve" smooth="yes"/>
      <point x="352" y="391" type="line" smooth="yes"/>
      <point x="233.062" y="434.25"/>
      <point x="85" y="507.5"/>
      <point x="85" y="670" type="curve" smooth="yes"/>
      <point x="85" y="774"/>
      <point x="126.333" y="856"/>
      <point x="209" y="916" type="curve"/>
      <point x="126.333" y="968.667"/>
      <point x="85" y="1047.33"/>
      <point x="85" y="1152" type="curve"/>
      <point x="95.8646" y="1374.72"/>
      <point x="312.621" y="1440"/>
      <point x="547" y="1440" type="curve" smooth="yes"/>
      <point x="705.667" y="1440"/>
      <point x="839.667" y="1414.67"/>
      <point x="949" y="1364" type="curve"/>
      <point x="905" y="1136" type="line"/>
      <point x="818.952" y="1166.11"/>
      <point x="703.392" y="1184"/>
      <point x="587" y="1184" type="curve" smooth="yes"/>
      <point x="523" y="1184"/>
      <point x="491" y="1170.67"/>
      <point x="491" y="1144" type="curve" smooth="yes"/>
      <point x="491" y="1090.71"/>
      <point x="660.591" y="1054.15"/>
      <point x="704.5" y="1038.5" type="curve" smooth="yes"/>
      <point x="830.184" y="993.716"/>
      <point x="1011" y="930.391"/>
    </contour>
    <contour>
      <point x="677" y="694" type="curve" smooth="yes"/>
      <point x="677" y="755.707"/>
      <point x="560.576" y="784.46"/>
      <point x="491" y="804" type="curve"/>
      <point x="438.393" y="800.054"/>
      <point x="403" y="768.427"/>
      <point x="403" y="712" type="curve" smooth="yes"/>
      <point x="403" y="655.796"/>
      <point x="523.32" y="619.6"/>
      <point x="575" y="606" type="curve"/>
      <point x="633.836" y="606"/>
      <point x="677" y="636.178"/>
    </contour>
  </outline>
</glyph>
<glyph name="copyright" format="1">
  <advance width="1426"/>
  <unicode hex="00A9"/>
  <outline>
    <contour>
      <point x="711" y="90" type="curve" smooth="yes"/>
      <point x="945.265" y="90"/>
      <point x="1103.05" y="240.556"/>
      <point x="1173.5" y="410" type="curve" smooth="yes"/>
      <point x="1199.83" y="473.333"/>
      <point x="1213" y="540.667"/>
      <point x="1213" y="612" type="curve" smooth="yes"/>
      <point x="1213" y="856.668"/>
      <point x="1070.66" y="1022.67"/>
      <point x="897" y="1096" type="curve" smooth="yes"/>
      <point x="837" y="1121.33"/>
      <point x="775" y="1134"/>
      <point x="711" y="1134" type="curve" smooth="yes"/>
      <point x="415.632" y="1134"/>
      <point x="209" y="906.466"/>
      <point x="209" y="612" type="curve" smooth="yes"/>
      <point x="209" y="371.315"/>
      <point x="344.785" y="205.62"/>
      <point x="514.5" y="130.5" type="curve" smooth="yes"/>
      <point x="575.5" y="103.5"/>
      <point x="641" y="90"/>
    </contour>
    <contour>
      <point x="1355" y="612" type="curve" smooth="yes"/>
      <point x="1355" y="260.977"/>
      <point x="1063.46" y="-32"/>
      <point x="711" y="-32" type="curve" smooth="yes"/>
      <point x="357.628" y="-32"/>
      <point x="71" y="264.082"/>
      <point x="71" y="619" type="curve" smooth="yes"/>
      <point x="71.0001" y="990.249"/>
      <point x="349.518" y="1252"/>
      <point x="718" y="1252" type="curve" smooth="yes"/>
      <point x="1062" y="1252"/>
      <point x="1355" y="959.294"/>
    </contour>
    <contour>
      <point x="751" y="862" type="curve" smooth="yes"/>
      <point x="594.802" y="862"/>
      <point x="505" y="766.388"/>
      <point x="505" y="610" type="curve" smooth="yes"/>
      <point x="505" y="453.555"/>
      <point x="592.75" y="360"/>
      <point x="749" y="360" type="curve" smooth="yes"/>
      <point x="803.667" y="360"/>
      <point x="867" y="374"/>
      <point x="939" y="402" type="curve"/>
      <point x="959" y="282" type="line"/>
      <point x="890.333" y="247.333"/>
      <point x="815.667" y="230"/>
      <point x="735" y="230" type="curve" smooth="yes"/>
      <point x="497.723" y="232.666"/>
      <point x="345.721" y="373.303"/>
      <point x="343" y="610" type="curve"/>
      <point x="343" y="836.56"/>
      <point x="504.627" y="990"/>
      <point x="729" y="990" type="curve" smooth="yes"/>
      <point x="816.333" y="990"/>
      <point x="893.667" y="969.333"/>
      <point x="961" y="928" type="curve"/>
      <point x="943" y="814" type="line"/>
      <point x="879.667" y="846"/>
      <point x="815.667" y="862"/>
    </contour>
  </outline>
</glyph>
<glyph name="guillemotleft" format="1">
  <advance width="1109"/>
  <unicode hex="00AB"/>
  <outline>
    <contour>
      <point x="585" y="810" type="line"/>
      <point x="1015" y="1116" type="line"/>
      <point x="1015" y="744" type="line"/>
      <point x="817" y="626" type="line"/>
      <point x="1015" y="502" type="line"/>
      <point x="1015" y="128" type="line"/>
      <point x="585" y="442" type="line"/>
    </contour>
    <contour>
      <point x="53" y="810" type="line"/>
      <point x="483" y="1116" type="line"/>
      <point x="483" y="744" type="line"/>
      <point x="287" y="626" type="line"/>
      <point x="483" y="502" type="line"/>
      <point x="483" y="128" type="line"/>
      <point x="53" y="442" type="line"/>
    </contour>
  </outline>
</glyph>
<glyph name="logicalnot" format="1">
  <advance width="1094"/>
  <unicode hex="00AC"/>
  <outline>
    <contour>
      <point x="982" y="852" type="line"/>
      <point x="982" y="174" type="line"/>
      <point x="762" y="174" type="line"/>
      <point x="762" y="530" type="line"/>
      <point x="80" y="530" type="line"/>
      <point x="80" y="852" type="line"/>
    </contour>
  </outline>
</glyph>
<glyph name="registered" format="1">
  <advance width="1426"/>
  <unicode hex="00AE"/>
  <outline>
    <contour>
      <point x="832" y="565" type="line"/>
      <point x="856.054" y="455.423"/>
      <point x="877.651" y="353"/>
      <point x="1012" y="353" type="curve" smooth="yes"/>
      <point x="1020" y="353"/>
      <point x="1028.33" y="354.667"/>
      <point x="1037" y="358" type="curve"/>
      <point x="1011" y="256" type="line"/>
      <point x="851.017" y="258.623"/>
      <point x="786.104" y="324.455"/>
      <point x="752" y="453" type="curve" smooth="yes"/>
      <point x="715" y="596" type="line"/>
      <point x="583" y="596" type="line"/>
      <point x="583" y="272" type="line"/>
      <point x="467" y="272" type="line"/>
      <point x="467" y="994" type="line"/>
      <point x="723" y="994" type="line" smooth="yes"/>
      <point x="909.667" y="994"/>
      <point x="1003" y="928"/>
      <point x="1003" y="796" type="curve" smooth="yes"/>
      <point x="1003" y="681.333"/>
      <point x="943.667" y="616.667"/>
      <point x="825" y="602" type="curve"/>
    </contour>
    <contour>
      <point x="741" y="690" type="line"/>
      <point x="826.565" y="695.186"/>
      <point x="877" y="704.565"/>
      <point x="877" y="796" type="curve" smooth="yes"/>
      <point x="877" y="888.256"/>
      <point x="806.63" y="898"/>
      <point x="713" y="898" type="curve" smooth="yes"/>
      <point x="583" y="898" type="line"/>
      <point x="583" y="690" type="line"/>
    </contour>
    <contour>
      <point x="711" y="90" type="curve" smooth="yes"/>
      <point x="945.265" y="90"/>
      <point x="1103.05" y="240.556"/>
      <point x="1173.5" y="410" type="curve" smooth="yes"/>
      <point x="1199.83" y="473.333"/>
      <point x="1213" y="540.667"/>
      <point x="1213" y="612" type="curve" smooth="yes"/>
      <point x="1213" y="856.668"/>
      <point x="1070.66" y="1022.67"/>
      <point x="897" y="1096" type="curve" smooth="yes"/>
      <point x="837" y="1121.33"/>
      <point x="775" y="1134"/>
      <point x="711" y="1134" type="curve" smooth="yes"/>
      <point x="415.632" y="1134"/>
      <point x="209" y="906.466"/>
      <point x="209" y="612" type="curve" smooth="yes"/>
      <point x="209" y="371.315"/>
      <point x="344.785" y="205.62"/>
      <point x="514.5" y="130.5" type="curve" smooth="yes"/>
      <point x="575.5" y="103.5"/>
      <point x="641" y="90"/>
    </contour>
    <contour>
      <point x="1355" y="612" type="curve" smooth="yes"/>
      <point x="1355" y="260.977"/>
      <point x="1063.46" y="-32"/>
      <point x="711" y="-32" type="curve" smooth="yes"/>
      <point x="357.628" y="-32"/>
      <point x="71" y="264.082"/>
      <point x="71" y="619" type="curve" smooth="yes"/>
      <point x="71.0001" y="990.249"/>
      <point x="349.518" y="1252"/>
      <point x="718" y="1252" type="curve" smooth="yes"/>
      <point x="1062" y="1252"/>
      <point x="1355" y="959.294"/>
    </contour>
  </outline>
</glyph>
<glyph name="plusminus" format="1">
  <advance width="1140"/>
  <unicode hex="00B1"/>
  <outline>
    <contour>
      <point x="512" y="644" type="line"/>
      <point x="72" y="644" type="line"/>
      <point x="72" y="760" type="line"/>
      <point x="512" y="760" type="line"/>
      <point x="512" y="1212" type="line"/>
      <point x="632" y="1212" type="line"/>
      <point x="632" y="760" type="line"/>
      <point x="1068" y="760" type="line"/>
      <point x="1068" y="644" type="line"/>
      <point x="632" y="644" type="line"/>
      <point x="632" y="186" type="line"/>
      <point x="512" y="186" type="line"/>
    </contour>
    <contour>
      <point x="72" y="114" type="line"/>
      <point x="1068" y="114" type="line"/>
      <point x="1068" y="0" type="line"/>
      <point x="72" y="0" type="line"/>
    </contour>
  </outline>
</glyph>
<glyph name="twosuperior" format="1">
  <advance width="666"/>
  <unicode hex="00B2"/>
  <outline>
    <contour>
      <point x="590" y="1192" type="curve" smooth="yes"/>
      <point x="590" y="1030.04"/>
      <point x="452.108" y="927.338"/>
      <point x="328" y="856" type="curve"/>
      <point x="568" y="856" type="line"/>
      <point x="568" y="686" type="line"/>
      <point x="84" y="686" type="line"/>
      <point x="84" y="848" type="line"/>
      <point x="173.333" y="931.333"/>
      <point x="240" y="1001.83"/>
      <point x="284" y="1059.5" type="curve" smooth="yes"/>
      <point x="328" y="1117.17"/>
      <point x="350" y="1160.67"/>
      <point x="350" y="1190" type="curve" smooth="yes"/>
      <point x="350" y="1227.33"/>
      <point x="322.667" y="1246"/>
      <point x="268" y="1246" type="curve" smooth="yes"/>
      <point x="236" y="1246"/>
      <point x="190" y="1231.33"/>
      <point x="130" y="1202" type="curve"/>
      <point x="70" y="1376" type="line"/>
      <point x="168" y="1418.67"/>
      <point x="260.667" y="1440"/>
      <point x="348" y="1440" type="curve" smooth="yes"/>
      <point x="498.895" y="1440"/>
      <point x="590" y="1342.79"/>
    </contour>
  </outline>
</glyph>
<glyph name="threesuperior" format="1">
  <advance width="644"/>
  <unicode hex="00B3"/>
  <outline>
    <contour>
      <point x="320" y="1440" type="curve" smooth="yes"/>
      <point x="439.055" y="1440"/>
      <point x="550" y="1375.36"/>
      <point x="550" y="1258" type="curve" smooth="yes"/>
      <point x="550" y="1183.33"/>
      <point x="514.667" y="1122.67"/>
      <point x="444" y="1076" type="curve"/>
      <point x="537.333" y="1034.67"/>
      <point x="584" y="966.667"/>
      <point x="584" y="872" type="curve" smooth="yes"/>
      <point x="584" y="721.925"/>
      <point x="459" y="656"/>
      <point x="308" y="656" type="curve" smooth="yes"/>
      <point x="244" y="656"/>
      <point x="164" y="672"/>
      <point x="68" y="704" type="curve"/>
      <point x="106" y="868" type="line"/>
      <point x="178" y="844"/>
      <point x="235.333" y="832"/>
      <point x="278" y="832" type="curve" smooth="yes"/>
      <point x="319.855" y="832"/>
      <point x="362" y="844.425"/>
      <point x="362" y="884" type="curve" smooth="yes"/>
      <point x="362" y="954.667"/>
      <point x="294.667" y="990"/>
      <point x="160" y="990" type="curve"/>
      <point x="160" y="1128" type="line"/>
      <point x="242.458" y="1128"/>
      <point x="356" y="1131.26"/>
      <point x="356" y="1210" type="curve" smooth="yes"/>
      <point x="356" y="1242"/>
      <point x="328.665" y="1256"/>
      <point x="296" y="1256" type="curve" smooth="yes"/>
      <point x="246" y="1256"/>
      <point x="182.667" y="1244.67"/>
      <point x="106" y="1222" type="curve"/>
      <point x="68" y="1380" type="line"/>
      <point x="156" y="1420"/>
      <point x="240" y="1440"/>
    </contour>
  </outline>
</glyph>
<glyph name="acute" format="1">
  <advance width="818"/>
  <unicode hex="00B4"/>
  <outline>
    <contour>
      <point x="4" y="1370" type="line"/>
      <point x="604" y="1790" type="line"/>
      <point x="812" y="1424" type="line"/>
      <point x="130" y="1150" type="line"/>
    </contour>
  </outline>
</glyph>
<glyph name="paragraph" format="1">
  <advance width="1138"/>
  <unicode hex="00B6"/>
  <outline>
    <contour>
      <point x="47" y="1068" type="curve" smooth="yes"/>
      <point x="47" y="1307.77"/>
      <point x="282.138" y="1408"/>
      <point x="529" y="1408" type="curve" smooth="yes"/>
      <point x="987" y="1408" type="line"/>
      <point x="987" y="0" type="line"/>
      <point x="823" y="0" type="line"/>
      <point x="823" y="1254" type="line"/>
      <point x="695" y="1254" type="line"/>
      <point x="695" y="0" type="line"/>
      <point x="529" y="0" type="line"/>
      <point x="529" y="728" type="line"/>
      <point x="443" y="728" type="line" smooth="yes"/>
      <point x="222.92" y="728"/>
      <point x="47" y="850.654"/>
    </contour>
  </outline>
</glyph>
<glyph name="cedilla" format="1">
  <advance width="560"/>
  <unicode hex="00B8"/>
  <outline>
    <contour>
      <point x="514" y="-276" type="curve" smooth="yes"/>
      <point x="514" y="-425.606"/>
      <point x="365.117" y="-508"/>
      <point x="218" y="-508" type="curve" smooth="yes"/>
      <point x="158" y="-508"/>
      <point x="98" y="-493.333"/>
      <point x="38" y="-464" type="curve"/>
      <point x="66" y="-388" type="line"/>
      <point x="100" y="-397.333"/>
      <point x="130.667" y="-402"/>
      <point x="158" y="-402" type="curve" smooth="yes"/>
      <point x="246" y="-402"/>
      <point x="290" y="-359.333"/>
      <point x="290" y="-274" type="curve" smooth="yes"/>
      <point x="290" y="-207.23"/>
      <point x="240.253" y="-180"/>
      <point x="172" y="-180" type="curve" smooth="yes"/>
      <point x="168" y="-180" type="line"/>
      <point x="228" y="0" type="line"/>
      <point x="342" y="0" type="line"/>
      <point x="302" y="-116" type="line"/>
      <point x="410.203" y="-127.902"/>
      <point x="514" y="-168.602"/>
    </contour>
  </outline>
</glyph>
<glyph name="onesuperior" format="1">
  <advance width="560"/>
  <unicode hex="00B9"/>
  <outline>
    <contour>
      <point x="86" y="1338" type="line"/>
      <point x="162" y="1338"/>
      <point x="231.333" y="1361.33"/>
      <point x="294" y="1408" type="curve"/>
      <point x="408" y="1408" type="line"/>
      <point x="408" y="842" type="line"/>
      <point x="498" y="842" type="line"/>
      <point x="498" y="682" type="line"/>
      <point x="86" y="682" type="line"/>
      <point x="86" y="842" type="line"/>
      <point x="176" y="842" type="line"/>
      <point x="176" y="1204" type="line"/>
      <point x="86" y="1196" type="line"/>
    </contour>
  </outline>
</glyph>
<glyph name="guillemotright" format="1">
  <advance width="1107"/>
  <unicode hex="00BB"/>
  <outline>
    <contour>
      <point x="624" y="502" type="line"/>
      <point x="820" y="626" type="line"/>
      <point x="624" y="744" type="line"/>
      <point x="624" y="1116" type="line"/>
      <point x="1054" y="810" type="line"/>
      <point x="1054" y="442" type="line"/>
      <point x="624" y="128" type="line"/>
    </contour>
    <contour>
      <point x="94" y="502" type="line"/>
      <point x="290" y="626" type="line"/>
      <point x="94" y="744" type="line"/>
      <point x="94" y="1116" type="line"/>
      <point x="524" y="810" type="line"/>
      <point x="524" y="442" type="line"/>
      <point x="94" y="128" type="line"/>
    </contour>
  </outline>
</glyph>
<glyph name="questiondown" format="1">
  <advance width="1036"/>
  <unicode hex="00BF"/>
  <outline>
    <contour>
      <point x="545" y="-32" type="curve" smooth="yes"/>
      <point x="281.664" y="-32"/>
      <point x="49" y="90.1461"/>
      <point x="49" y="350" type="curve" smooth="yes"/>
      <point x="49" y="579.677"/>
      <point x="239.823" y="649.79"/>
      <point x="394" y="719" type="curve" smooth="yes"/>
      <point x="466.036" y="751.343"/>
      <point x="509" y="765.731"/>
      <point x="509" y="862" type="curve" smooth="yes"/>
      <point x="509" y="888" type="line"/>
      <point x="795" y="888" type="line"/>
      <point x="818" y="810" type="line"/>
      <point x="829.602" y="775.194"/>
      <point x="834.8" y="744.487"/>
      <point x="834.8" y="717.131" type="curve" smooth="yes"/>
      <point x="834.8" y="548.466"/>
      <point x="637.194" y="507.216"/>
      <point x="524.5" y="418.5" type="curve" smooth="yes"/>
      <point x="508.833" y="406.167"/>
      <point x="501" y="394"/>
      <point x="501" y="382" type="curve" smooth="yes"/>
      <point x="501" y="338"/>
      <point x="555" y="316"/>
      <point x="663" y="316" type="curve" smooth="yes"/>
      <point x="768.333" y="316"/>
      <point x="857" y="334"/>
      <point x="929" y="370" type="curve"/>
      <point x="957" y="58" type="line"/>
      <point x="811" y="-2"/>
      <point x="673.667" y="-32"/>
    </contour>
    <contour>
      <point x="655" y="1440" type="curve" smooth="yes"/>
      <point x="780.111" y="1440"/>
      <point x="887" y="1355.85"/>
      <point x="887" y="1232" type="curve" smooth="yes"/>
      <point x="887" y="1108.65"/>
      <point x="778.72" y="1026"/>
      <point x="655" y="1026" type="curve" smooth="yes"/>
      <point x="532.301" y="1026"/>
      <point x="425" y="1110.6"/>
      <point x="425" y="1232" type="curve" smooth="yes"/>
      <point x="425" y="1356.92"/>
      <point x="529.925" y="1440"/>
    </contour>
  </outline>
</glyph>
<glyph name="AE" format="1">
  <advance width="1914"/>
  <unicode hex="00C6"/>
  <outline>
    <contour>
      <point x="476" y="1408" type="line"/>
      <point x="1652" y="1408" type="line"/>
      <point x="1708" y="1098" type="line"/>
      <point x="1143" y="1098" type="line"/>
      <point x="1192" y="842" type="line"/>
      <point x="1702" y="842" type="line"/>
      <point x="1752" y="584" type="line"/>
      <point x="1254" y="584" type="line"/>
      <point x="1314" y="308" type="line"/>
      <point x="1842" y="308" type="line"/>
      <point x="1898" y="0" type="line"/>
      <point x="918" y="0" type="line"/>
      <point x="872" y="270" type="line"/>
      <point x="526" y="270" type="line"/>
      <point x="442" y="0" type="line"/>
      <point x="-6" y="0" type="line"/>
    </contour>
    <contour>
      <point x="824" y="522" type="line"/>
      <point x="740" y="1036" type="line"/>
      <point x="602" y="522" type="line"/>
    </contour>
  </outline>
</glyph>
<glyph name="Eth" format="1">
  <advance width="1618"/>
  <unicode hex="00D0"/>
  <outline>
    <contour>
      <point x="1553" y="698" type="curve" smooth="yes"/>
      <point x="1553" y="275.628"/>
      <point x="1226.72" y="0"/>
      <point x="799" y="0" type="curve" smooth="yes"/>
      <point x="187" y="0" type="line"/>
      <point x="187" y="618" type="line"/>
      <point x="3" y="618" type="line"/>
      <point x="3" y="792" type="line"/>
      <point x="187" y="792" type="line"/>
      <point x="187" y="1376" type="line"/>
      <point x="799" y="1376" type="line" smooth="yes"/>
      <point x="1146.59" y="1376"/>
      <point x="1390.75" y="1212.27"/>
      <point x="1498" y="969.5" type="curve" smooth="yes"/>
      <point x="1534.67" y="886.5"/>
      <point x="1553" y="796"/>
    </contour>
    <contour>
      <point x="1093" y="702" type="curve" smooth="yes"/>
      <point x="1093" y="880.913"/>
      <point x="976.976" y="1008"/>
      <point x="799" y="1008" type="curve" smooth="yes"/>
      <point x="639" y="1008" type="line"/>
      <point x="639" y="792" type="line"/>
      <point x="801" y="792" type="line"/>
      <point x="801" y="618" type="line"/>
      <point x="639" y="618" type="line"/>
      <point x="639" y="368" type="line"/>
      <point x="799" y="368" type="line" smooth="yes"/>
      <point x="986.457" y="368"/>
      <point x="1093" y="513.808"/>
    </contour>
  </outline>
</glyph>
<glyph name="multiply" format="1">
  <advance width="941"/>
  <unicode hex="00D7"/>
  <outline>
    <contour>
      <point x="386" y="514" type="line"/>
      <point x="66" y="836" type="line"/>
      <point x="150" y="920" type="line"/>
      <point x="472" y="600" type="line"/>
      <point x="792" y="920" type="line"/>
      <point x="876" y="836" type="line"/>
      <point x="558" y="514" type="line"/>
      <point x="868" y="202" type="line"/>
      <point x="786" y="122" type="line"/>
      <point x="472" y="434" type="line"/>
      <point x="156" y="122" type="line"/>
      <point x="74" y="202" type="line"/>
    </contour>
  </outline>
</glyph>
<glyph name="Oslash" format="1">
  <advance width="1636"/>
  <unicode hex="00D8"/>
  <outline>
    <contour>
      <point x="65" y="702" type="curve" smooth="yes"/>
      <point x="65" y="1137.21"/>
      <point x="381.263" y="1439"/>
      <point x="819" y="1439" type="curve" smooth="yes"/>
      <point x="862.595" y="1439"/>
      <point x="905.042" y="1436.19"/>
      <point x="944" y="1431" type="curve"/>
      <point x="1007" y="1677" type="line"/>
      <point x="1147" y="1677" type="line"/>
      <point x="1076" y="1402" type="line"/>
      <point x="1362.04" y="1311.81"/>
      <point x="1571" y="1075.13"/>
      <point x="1571" y="702" type="curve" smooth="yes"/>
      <point x="1571" y="252.469"/>
      <point x="1266.58" y="-32"/>
      <point x="819" y="-32" type="curve" smooth="yes"/>
      <point x="780.333" y="-32"/>
      <point x="743.667" y="-30"/>
      <point x="709" y="-26" type="curve"/>
      <point x="628" y="-340" type="line"/>
      <point x="492" y="-340" type="line"/>
      <point x="579" y="0" type="line"/>
      <point x="283.289" y="84.8561"/>
      <point x="65" y="324.96"/>
    </contour>
    <contour>
      <point x="819" y="1080" type="curve"/>
      <point x="619.182" y="1077.3"/>
      <point x="523" y="906.61"/>
      <point x="523" y="704" type="curve" smooth="yes"/>
      <point x="523" y="552.64"/>
      <point x="581.134" y="437.667"/>
      <point x="675" y="379" type="curve"/>
      <point x="853" y="1076" type="line"/>
      <point x="843.162" y="1076"/>
      <point x="833.075" y="1078.24"/>
    </contour>
    <contour>
      <point x="819" y="340" type="line" smooth="yes"/>
      <point x="1016.5" y="340"/>
      <point x="1113" y="508.482"/>
      <point x="1113" y="704" type="curve" smooth="yes"/>
      <point x="1113" y="849.073"/>
      <point x="1061.67" y="961.012"/>
      <point x="979" y="1024" type="curve"/>
      <point x="803" y="340" type="line"/>
    </contour>
  </outline>
</glyph>
<glyph name="Thorn" format="1">
  <advance width="1334"/>
  <unicode hex="00DE"/>
  <outline>
    <contour>
      <point x="642" y="1266" type="line" smooth="yes"/>
      <point x="998.495" y="1266"/>
      <point x="1302" y="1148.1"/>
      <point x="1302" y="800" type="curve" smooth="yes"/>
      <point x="1302" y="476.137"/>
      <point x="986.958" y="340"/>
      <point x="660" y="340" type="curve" smooth="yes"/>
      <point x="574" y="340" type="line"/>
      <point x="574" y="0" type="line"/>
      <point x="134" y="0" type="line"/>
      <point x="134" y="1408" type="line"/>
      <point x="574" y="1408" type="line"/>
      <point x="574" y="1266" type="line"/>
    </contour>
    <contour>
      <point x="574" y="628" type="line"/>
      <point x="600.789" y="624.651"/>
      <point x="628.743" y="624"/>
      <point x="662" y="624" type="curve" smooth="yes"/>
      <point x="790.769" y="624"/>
      <point x="890" y="675.479"/>
      <point x="890" y="800" type="curve" smooth="yes"/>
      <point x="890" y="918.717"/>
      <point x="782.551" y="972"/>
      <point x="662" y="972" type="curve" smooth="yes"/>
      <point x="574" y="972" type="line"/>
    </contour>
  </outline>
</glyph>
<glyph name="germandbls" format="1">
  <advance width="1448"/>
  <unicode hex="00DF"/>
  <outline>
    <contour>
      <point x="874" y="1050" type="curve" smooth="yes"/>
      <point x="874" y="1138.31"/>
      <point x="783.733" y="1168"/>
      <point x="694" y="1168" type="curve" smooth="yes"/>
      <point x="607.191" y="1168"/>
      <point x="546" y="1115.71"/>
      <point x="546" y="1030" type="curve" smooth="yes"/>
      <point x="546" y="0" type="line"/>
      <point x="106" y="-32" type="line"/>
      <point x="106" y="1104" type="line" smooth="yes"/>
      <point x="106" y="1355"/>
      <point x="438.183" y="1440"/>
      <point x="698" y="1440" type="curve" smooth="yes"/>
      <point x="910.152" y="1440"/>
      <point x="1087.99" y="1369.52"/>
      <point x="1172" y="1240.5" type="curve" smooth="yes"/>
      <point x="1200" y="1197.5"/>
      <point x="1214" y="1148.67"/>
      <point x="1214" y="1094" type="curve" smooth="yes"/>
      <point x="1214" y="958.941"/>
      <point x="1147.04" y="866.222"/>
      <point x="1060" y="814" type="curve"/>
      <point x="1236.95" y="763.096"/>
      <point x="1410" y="623.538"/>
      <point x="1410" y="400" type="curve" smooth="yes"/>
      <point x="1410" y="60.0388"/>
      <point x="1138.87" y="-92"/>
      <point x="800" y="-92" type="curve" smooth="yes"/>
      <point x="780.994" y="-92"/>
      <point x="753.386" y="-91"/>
      <point x="732" y="-91" type="curve" smooth="yes"/>
      <point x="711.276" y="-91"/>
      <point x="682.193" y="-90"/>
      <point x="664" y="-90" type="curve"/>
      <point x="664" y="240" type="line"/>
      <point x="697.44" y="237.428"/>
      <point x="728.904" y="236"/>
      <point x="764" y="236" type="curve" smooth="yes"/>
      <point x="898.411" y="236"/>
      <point x="970" y="333.452"/>
      <point x="970" y="468" type="curve" smooth="yes"/>
      <point x="970" y="612.04"/>
      <point x="840.64" y="687.981"/>
      <point x="704" y="718" type="curve"/>
      <point x="704" y="908" type="line"/>
      <point x="782.102" y="921.017"/>
      <point x="874" y="961.833"/>
    </contour>
  </outline>
</glyph>
<glyph name="ae" format="1">
  <advance width="2162"/>
  <unicode hex="00E6"/>
  <outline>
    <contour>
      <point x="1613" y="1056" type="curve" smooth="yes"/>
      <point x="1925.47" y="1056"/>
      <point x="2117" y="850.671"/>
      <point x="2117" y="538" type="curve" smooth="yes"/>
      <point x="2117" y="519.333"/>
      <point x="2115.67" y="502"/>
      <point x="2113" y="486" type="curve"/>
      <point x="1439" y="406" type="line"/>
      <point x="1475.67" y="310"/>
      <point x="1560.33" y="262"/>
      <point x="1693" y="262" type="curve" smooth="yes"/>
      <point x="1798.33" y="262"/>
      <point x="1909" y="286"/>
      <point x="2025" y="334" type="curve"/>
      <point x="2075" y="52" type="line"/>
      <point x="1931.67" y="-4"/>
      <point x="1772.33" y="-32"/>
      <point x="1597" y="-32" type="curve" smooth="yes"/>
      <point x="1465.05" y="-32"/>
      <point x="1363.07" y="25.525"/>
      <point x="1290" y="90" type="curve"/>
      <point x="1290" y="0" type="line"/>
      <point x="890" y="-32" type="line"/>
      <point x="890" y="190" type="line"/>
      <point x="831.121" y="67.3359"/>
      <point x="731.193" y="-32"/>
      <point x="552" y="-32" type="curve" smooth="yes"/>
      <point x="316.83" y="-32"/>
      <point x="162.125" y="130.727"/>
      <point x="92.5" y="303.5" type="curve" smooth="yes"/>
      <point x="65.5" y="370.5"/>
      <point x="52" y="442.333"/>
      <point x="52" y="519" type="curve" smooth="yes"/>
      <point x="52" y="765.009"/>
      <point x="192.937" y="937.275"/>
      <point x="364.5" y="1015" type="curve" smooth="yes"/>
      <point x="424.833" y="1042.33"/>
      <point x="488" y="1056"/>
      <point x="554" y="1056" type="curve" smooth="yes"/>
      <point x="731.006" y="1056"/>
      <point x="839.417" y="934.782"/>
      <point x="890" y="802" type="curve"/>
      <point x="890" y="1056" type="line"/>
      <point x="1290" y="1026" type="line"/>
      <point x="1290" y="936" type="line"/>
      <point x="1376.67" y="1016"/>
      <point x="1484.33" y="1056"/>
    </contour>
    <contour>
      <point x="688" y="308" type="curve" smooth="yes"/>
      <point x="802.671" y="308"/>
      <point x="884.403" y="394.848"/>
      <point x="890" y="504" type="curve"/>
      <point x="890" y="520" type="line"/>
      <point x="884.65" y="628.576"/>
      <point x="801.012" y="716"/>
      <point x="688" y="716" type="curve" smooth="yes"/>
      <point x="570.305" y="716"/>
      <point x="482" y="629.296"/>
      <point x="482" y="512" type="curve" smooth="yes"/>
      <point x="482" y="394.717"/>
      <point x="571.357" y="308"/>
    </contour>
    <contour>
      <point x="1799" y="664" type="line"/>
      <point x="1773.93" y="740.461"/>
      <point x="1711.44" y="792"/>
      <point x="1613" y="792" type="curve" smooth="yes"/>
      <point x="1493.47" y="792"/>
      <point x="1424.9" y="710.853"/>
      <point x="1421" y="594" type="curve"/>
    </contour>
  </outline>
</glyph>
<glyph name="eth" format="1">
  <advance width="1324"/>
  <unicode hex="00F0"/>
  <outline>
    <contour>
      <point x="33" y="444" type="curve" smooth="yes"/>
      <point x="33" y="739.269"/>
      <point x="242.68" y="880"/>
      <point x="540" y="880" type="curve" smooth="yes"/>
      <point x="643.333" y="880"/>
      <point x="732.667" y="849.333"/>
      <point x="808" y="788" type="curve"/>
      <point x="798" y="859.333"/>
      <point x="782.667" y="916"/>
      <point x="762" y="958" type="curve"/>
      <point x="615" y="906" type="line"/>
      <point x="569" y="1021" type="line"/>
      <point x="674" y="1058" type="line"/>
      <point x="645.333" y="1072.67"/>
      <point x="614" y="1080"/>
      <point x="580" y="1080" type="curve" smooth="yes"/>
      <point x="494" y="1080"/>
      <point x="380.667" y="1062"/>
      <point x="240" y="1026" type="curve"/>
      <point x="132" y="1330" type="line"/>
      <point x="302.667" y="1403.33"/>
      <point x="469.333" y="1440"/>
      <point x="632" y="1440" type="curve" smooth="yes"/>
      <point x="827.333" y="1440"/>
      <point x="984" y="1363.33"/>
      <point x="1102" y="1210" type="curve"/>
      <point x="1247" y="1262" type="line"/>
      <point x="1293" y="1147" type="line"/>
      <point x="1170" y="1103" type="line"/>
      <point x="1231.33" y="983.667"/>
      <point x="1262" y="846"/>
      <point x="1262" y="690" type="curve" smooth="yes"/>
      <point x="1262" y="357.062"/>
      <point x="1121.16" y="122.126"/>
      <point x="890" y="19.5" type="curve" smooth="yes"/>
      <point x="812.667" y="-14.8333"/>
      <point x="726.667" y="-32"/>
      <point x="632" y="-32" type="curve" smooth="yes"/>
      <point x="305.436" y="-32"/>
      <point x="33" y="123.902"/>
    </contour>
    <contour>
      <point x="460" y="444" type="curve" smooth="yes"/>
      <point x="460" y="348.625"/>
      <point x="535.365" y="302"/>
      <point x="632" y="302" type="curve" smooth="yes"/>
      <point x="764.142" y="302"/>
      <point x="792.455" y="444.352"/>
      <point x="806" y="564" type="curve"/>
      <point x="752" y="584"/>
      <point x="690.667" y="594"/>
      <point x="622" y="594" type="curve" smooth="yes"/>
      <point x="528.503" y="594"/>
      <point x="460" y="537.642"/>
    </contour>
  </outline>
</glyph>
<glyph name="divide" format="1">
  <advance width="926"/>
  <unicode hex="00F7"/>
  <outline>
    <contour>
      <point x="50" y="580" type="line"/>
      <point x="876" y="580" type="line"/>
      <point x="876" y="466" type="line"/>
      <point x="50" y="466" type="line"/>
    </contour>
    <contour>
      <point x="462" y="20" type="curve" smooth="yes"/>
      <point x="351.758" y="20"/>
      <point x="259" y="91.0216"/>
      <point x="259" y="200" type="curve" smooth="yes"/>
      <point x="259" y="309.731"/>
      <point x="352.141" y="382"/>
      <point x="462" y="382" type="curve" smooth="yes"/>
      <point x="570.38" y="382"/>
      <point x="662" y="307.301"/>
      <point x="662" y="200" type="curve" smooth="yes"/>
      <point x="662" y="90.7314"/>
      <point x="571.56" y="20"/>
    </contour>
    <contour>
      <point x="462" y="666" type="curve" smooth="yes"/>
      <point x="350.032" y="666"/>
      <point x="259" y="735.749"/>
      <point x="259" y="846" type="curve" smooth="yes"/>
      <point x="259" y="954.147"/>
      <point x="353.835" y="1028"/>
      <point x="462" y="1028" type="curve" smooth="yes"/>
      <point x="569.216" y="1028"/>
      <point x="662" y="952.092"/>
      <point x="662" y="846" type="curve" smooth="yes"/>
      <point x="662" y="736.731"/>
      <point x="571.56" y="666"/>
    </contour>
  </outline>
</glyph>
<glyph name="oslash" format="1">
  <advance width="1244"/>
  <unicode hex="00F8"/>
  <outline>
    <contour>
      <point x="559" y="-32" type="line" smooth="yes"/>
      <point x="552.723" y="-32"/>
      <point x="545.661" y="-31.1379"/>
      <point x="540" y="-30" type="curve"/>
      <point x="506" y="-174" type="line"/>
      <point x="390" y="-174" type="line"/>
      <point x="432" y="-2" type="line"/>
      <point x="217.362" y="66.9908"/>
      <point x="54" y="233.158"/>
      <point x="54" y="514" type="curve" smooth="yes"/>
      <point x="54" y="868.6"/>
      <point x="304.94" y="1056"/>
      <point x="656" y="1056" type="curve"/>
      <point x="655.333" y="1055.33"/>
      <point x="657.833" y="1055.17"/>
      <point x="663.5" y="1055.5" type="curve" smooth="yes"/>
      <point x="669.172" y="1055.83"/>
      <point x="677.339" y="1055.33"/>
      <point x="688" y="1054" type="curve"/>
      <point x="690" y="1054" type="line"/>
      <point x="726" y="1202" type="line"/>
      <point x="844" y="1202" type="line"/>
      <point x="802" y="1032" type="line"/>
      <point x="1019.77" y="965.389"/>
      <point x="1190" y="795.768"/>
      <point x="1190" y="514" type="curve" smooth="yes"/>
      <point x="1190" y="157.205"/>
      <point x="927.613" y="-31.9999"/>
      <point x="575" y="-32" type="curve" smooth="yes"/>
    </contour>
    <contour>
      <point x="620" y="288" type="line"/>
      <point x="726.185" y="303.928"/>
      <point x="810" y="393.051"/>
      <point x="810" y="514" type="curve" smooth="yes"/>
      <point x="810" y="597.787"/>
      <point x="769.837" y="663.868"/>
      <point x="720" y="700" type="curve"/>
    </contour>
    <contour>
      <point x="614" y="738" type="line"/>
      <point x="499.667" y="732.399"/>
      <point x="430" y="634.544"/>
      <point x="430" y="514" type="curve" smooth="yes"/>
      <point x="430" y="431.607"/>
      <point x="467.062" y="364.79"/>
      <point x="514" y="328" type="curve"/>
    </contour>
  </outline>
</glyph>
<glyph name="thorn" format="1">
  <advance width="1427"/>
  <unicode hex="00FE"/>
  <outline>
    <contour>
      <point x="875" y="-32" type="curve" smooth="yes"/>
      <point x="701.911" y="-32"/>
      <point x="597.04" y="66.6655"/>
      <point x="539" y="190" type="curve"/>
      <point x="539" y="-510" type="line"/>
      <point x="107" y="-510" type="line"/>
      <point x="107" y="1350" type="line"/>
      <point x="539" y="1414" type="line"/>
      <point x="539" y="834" type="line"/>
      <point x="607.667" y="982"/>
      <point x="719" y="1056"/>
      <point x="873" y="1056" type="curve" smooth="yes"/>
      <point x="1111.58" y="1056"/>
      <point x="1265.95" y="899.725"/>
      <point x="1335.5" y="724.5" type="curve" smooth="yes"/>
      <point x="1361.83" y="658.166"/>
      <point x="1375" y="587.333"/>
      <point x="1375" y="512" type="curve" smooth="yes"/>
      <point x="1375" y="239.051"/>
      <point x="1211.75" y="53.9527"/>
      <point x="1004" y="-12" type="curve" smooth="yes"/>
      <point x="962" y="-25.3333"/>
      <point x="919" y="-32"/>
    </contour>
    <contour>
      <point x="741" y="716" type="curve" smooth="yes"/>
      <point x="626.291" y="716"/>
      <point x="541.792" y="631.668"/>
      <point x="539" y="520" type="curve"/>
      <point x="539" y="512" type="line" smooth="yes"/>
      <point x="539" y="396.722"/>
      <point x="626.132" y="308"/>
      <point x="741" y="308" type="curve" smooth="yes"/>
      <point x="857.669" y="308"/>
      <point x="947" y="396.033"/>
      <point x="947" y="512" type="curve" smooth="yes"/>
      <point x="947" y="631.201"/>
      <point x="857.792" y="716"/>
    </contour>
  </outline>
</glyph>
<glyph name="Dcroat" format="1">
  <advance width="1565"/>
  <unicode hex="0110"/>
  <outline>
    <contour>
      <point x="1500" y="698" type="curve" smooth="yes"/>
      <point x="1500" y="277.322"/>
      <point x="1172.71" y="0"/>
      <point x="746" y="0" type="curve" smooth="yes"/>
      <point x="134" y="0" type="line"/>
      <point x="134" y="592" type="line"/>
      <point x="78" y="592" type="line"/>
      <point x="78" y="766" type="line"/>
      <point x="134" y="766" type="line"/>
      <point x="134" y="1376" type="line"/>
      <point x="746" y="1376" type="line" smooth="yes"/>
      <point x="1093.45" y="1376"/>
      <point x="1337.78" y="1213.21"/>
      <point x="1445" y="970.5" type="curve" smooth="yes"/>
      <point x="1481.67" y="887.5"/>
      <point x="1500" y="796.667"/>
    </contour>
    <contour>
      <point x="1040" y="702" type="curve" smooth="yes"/>
      <point x="1040" y="880.04"/>
      <point x="922.94" y="1008"/>
      <point x="746" y="1008" type="curve" smooth="yes"/>
      <point x="586" y="1008" type="line"/>
      <point x="586" y="766" type="line"/>
      <point x="718" y="766" type="line"/>
      <point x="718" y="592" type="line"/>
      <point x="586" y="592" type="line"/>
      <point x="586" y="368" type="line"/>
      <point x="746" y="368" type="line" smooth="yes"/>
      <point x="933.457" y="368"/>
      <point x="1040" y="513.808"/>
    </contour>
  </outline>
</glyph>
<glyph name="dcroat" format="1">
  <advance width="1428"/>
  <unicode hex="0111"/>
  <outline>
    <contour>
      <point x="551" y="-32" type="curve" smooth="yes"/>
      <point x="272.27" y="-32"/>
      <point x="53" y="229.066"/>
      <point x="53" y="512" type="curve" smooth="yes"/>
      <point x="53" y="758.231"/>
      <point x="192.38" y="933.609"/>
      <point x="362.5" y="1013.5" type="curve" smooth="yes"/>
      <point x="422.833" y="1041.83"/>
      <point x="486.333" y="1056"/>
      <point x="553" y="1056" type="curve" smooth="yes"/>
      <point x="707.667" y="1056"/>
      <point x="819.667" y="982"/>
      <point x="889" y="834" type="curve"/>
      <point x="889" y="1106" type="line"/>
      <point x="747" y="1106" type="line"/>
      <point x="747" y="1280" type="line"/>
      <point x="889" y="1280" type="line"/>
      <point x="889" y="1350" type="line"/>
      <point x="1321" y="1414" type="line"/>
      <point x="1321" y="1280" type="line"/>
      <point x="1387" y="1280" type="line"/>
      <point x="1387" y="1106" type="line"/>
      <point x="1321" y="1106" type="line"/>
      <point x="1321" y="0" type="line"/>
      <point x="889" y="0" type="line"/>
      <point x="889" y="190" type="line"/>
      <point x="830.902" y="66.5427"/>
      <point x="730.121" y="-31.9999"/>
    </contour>
    <contour>
      <point x="687" y="308" type="curve" smooth="yes"/>
      <point x="802.218" y="308"/>
      <point x="889" y="397.267"/>
      <point x="889" y="512" type="curve" smooth="yes"/>
      <point x="889" y="520" type="line"/>
      <point x="883.677" y="628.576"/>
      <point x="799.994" y="716"/>
      <point x="687" y="716" type="curve" smooth="yes"/>
      <point x="569.362" y="716"/>
      <point x="483" y="628.979"/>
      <point x="483" y="512" type="curve" smooth="yes"/>
      <point x="483" y="395.123"/>
      <point x="570.473" y="308"/>
    </contour>
  </outline>
</glyph>
<glyph name="Hbar" format="1">
  <advance width="1647"/>
  <unicode hex="0126"/>
  <outline>
    <contour>
      <point x="86" y="1152" type="line"/>
      <point x="144" y="1152" type="line"/>
      <point x="144" y="1376" type="line"/>
      <point x="604" y="1376" type="line"/>
      <point x="604" y="1152" type="line"/>
      <point x="1040" y="1152" type="line"/>
      <point x="1040" y="1376" type="line"/>
      <point x="1502" y="1376" type="line"/>
      <point x="1502" y="1152" type="line"/>
      <point x="1562" y="1152" type="line"/>
      <point x="1562" y="978" type="line"/>
      <point x="1502" y="978" type="line"/>
      <point x="1502" y="0" type="line"/>
      <point x="1040" y="0" type="line"/>
      <point x="1040" y="552" type="line"/>
      <point x="604" y="552" type="line"/>
      <point x="604" y="0" type="line"/>
      <point x="144" y="0" type="line"/>
      <point x="144" y="978" type="line"/>
      <point x="86" y="978" type="line"/>
    </contour>
    <contour>
      <point x="1040" y="848" type="line"/>
      <point x="1040" y="978" type="line"/>
      <point x="604" y="978" type="line"/>
      <point x="604" y="848" type="line"/>
    </contour>
  </outline>
</glyph>
<glyph name="dotlessi" format="1">
  <advance width="748"/>
  <unicode hex="0131"/>
  <outline>
    <contour>
      <point x="533" y="398" type="line" smooth="yes"/>
      <point x="533" y="337.385"/>
      <point x="567.348" y="300"/>
      <point x="625" y="300" type="curve" smooth="yes"/>
      <point x="651.667" y="300"/>
      <point x="679.667" y="308"/>
      <point x="709" y="324" type="curve"/>
      <point x="731" y="38" type="line"/>
      <point x="649.666" y="-8.66667"/>
      <point x="560.333" y="-32"/>
      <point x="463" y="-32" type="curve" smooth="yes"/>
      <point x="219.69" y="-32"/>
      <point x="99" y="133.57"/>
      <point x="99" y="378" type="curve" smooth="yes"/>
      <point x="99" y="1026" type="line"/>
      <point x="533" y="1026" type="line"/>
    </contour>
  </outline>
</glyph>
<glyph name="kgreenlandic" format="1">
  <advance width="1309"/>
  <unicode hex="0138"/>
  <outline>
    <contour>
      <point x="1113" y="-30" type="curve" smooth="yes"/>
      <point x="812.794" y="-30"/>
      <point x="725.53" y="122.769"/>
      <point x="659" y="358" type="curve"/>
      <point x="539" y="262" type="line"/>
      <point x="539" y="0" type="line"/>
      <point x="107" y="0" type="line"/>
      <point x="107" y="1024" type="line"/>
      <point x="539" y="1024" type="line"/>
      <point x="539" y="692" type="line"/>
      <point x="925" y="1024" type="line"/>
      <point x="1145" y="1024" type="line"/>
      <point x="1293" y="848" type="line"/>
      <point x="951" y="572" type="line"/>
      <point x="963" y="513" type="line"/>
      <point x="978" y="461" type="line" smooth="yes"/>
      <point x="1004.09" y="374.033"/>
      <point x="1054.94" y="314"/>
      <point x="1169" y="314" type="curve" smooth="yes"/>
      <point x="1186.34" y="314"/>
      <point x="1215.67" y="318"/>
      <point x="1257" y="326" type="curve"/>
      <point x="1225" y="-24" type="line"/>
      <point x="1185" y="-28"/>
      <point x="1147.67" y="-30"/>
    </contour>
  </outline>
</glyph>
<glyph name="Lslash" format="1">
  <advance width="1156"/>
  <unicode hex="0141"/>
  <outline>
    <contour>
      <point x="6" y="788" type="line"/>
      <point x="190" y="835" type="line"/>
      <point x="190" y="1408" type="line"/>
      <point x="630" y="1408" type="line"/>
      <point x="630" y="947" type="line"/>
      <point x="936" y="1026" type="line"/>
      <point x="936" y="852" type="line"/>
      <point x="630" y="773" type="line"/>
      <point x="630" y="302" type="line"/>
      <point x="1120" y="302" type="line"/>
      <point x="1120" y="0" type="line"/>
      <point x="190" y="0" type="line"/>
      <point x="190" y="661" type="line"/>
      <point x="6" y="614" type="line"/>
    </contour>
  </outline>
</glyph>
<glyph name="lslash" format="1">
  <advance width="863"/>
  <unicode hex="0142"/>
  <outline>
    <contour>
      <point x="550" y="-32" type="curve" smooth="yes"/>
      <point x="307.938" y="-32"/>
      <point x="188" y="134.664"/>
      <point x="188" y="378" type="curve" smooth="yes"/>
      <point x="188" y="666" type="line"/>
      <point x="16" y="614" type="line"/>
      <point x="16" y="788" type="line"/>
      <point x="188" y="840" type="line"/>
      <point x="188" y="1350" type="line"/>
      <point x="620" y="1414" type="line"/>
      <point x="620" y="972" type="line"/>
      <point x="796" y="1026" type="line"/>
      <point x="796" y="852" type="line"/>
      <point x="620" y="798" type="line"/>
      <point x="620" y="408" type="line" smooth="yes"/>
      <point x="620" y="336"/>
      <point x="652.667" y="300"/>
      <point x="718" y="300" type="curve" smooth="yes"/>
      <point x="746.667" y="300"/>
      <point x="776" y="308"/>
      <point x="806" y="324" type="curve"/>
      <point x="828" y="38" type="line"/>
      <point x="739.333" y="-8.66667"/>
      <point x="646.667" y="-32"/>
    </contour>
  </outline>
</glyph>
<glyph name="Eng" format="1">
  <advance width="1606"/>
  <unicode hex="014A"/>
  <outline>
    <contour>
      <point x="1472" y="-32" type="line" smooth="yes"/>
      <point x="1472" y="-297.002"/>
      <point x="1349.79" y="-508"/>
      <point x="1088" y="-508" type="curve" smooth="yes"/>
      <point x="988" y="-508"/>
      <point x="871.333" y="-480.667"/>
      <point x="738" y="-426" type="curve"/>
      <point x="832" y="-172" type="line"/>
      <point x="894.667" y="-192"/>
      <point x="942" y="-202"/>
      <point x="974" y="-202" type="curve" smooth="yes"/>
      <point x="1063.33" y="-202"/>
      <point x="1108" y="-145.333"/>
      <point x="1108" y="-32" type="curve"/>
      <point x="498" y="734" type="line"/>
      <point x="498" y="0" type="line"/>
      <point x="134" y="0" type="line"/>
      <point x="134" y="1376" type="line"/>
      <point x="544" y="1376" type="line"/>
      <point x="1106" y="650" type="line"/>
      <point x="1106" y="1376" type="line"/>
      <point x="1472" y="1376" type="line"/>
    </contour>
  </outline>
</glyph>
<glyph name="eng" format="1">
  <advance width="1406"/>
  <unicode hex="014B"/>
  <outline>
    <contour>
      <point x="1310" y="0" type="line" smooth="yes"/>
      <point x="1310" y="-302.21"/>
      <point x="1157.99" y="-504"/>
      <point x="858" y="-504" type="curve" smooth="yes"/>
      <point x="732.667" y="-504"/>
      <point x="616" y="-468"/>
      <point x="508" y="-396" type="curve"/>
      <point x="602" y="-142" type="line"/>
      <point x="657.333" y="-160.667"/>
      <point x="704" y="-170"/>
      <point x="742" y="-170" type="curve" smooth="yes"/>
      <point x="834" y="-170"/>
      <point x="880" y="-113.333"/>
      <point x="880" y="0" type="curve" smooth="yes"/>
      <point x="880" y="512" type="line" smooth="yes"/>
      <point x="880" y="609.021"/>
      <point x="830.871" y="716"/>
      <point x="736" y="716" type="curve" smooth="yes"/>
      <point x="622.393" y="716"/>
      <point x="536.834" y="630.507"/>
      <point x="534" y="520" type="curve"/>
      <point x="534" y="0" type="line"/>
      <point x="102" y="0" type="line"/>
      <point x="102" y="990" type="line"/>
      <point x="534" y="1056" type="line"/>
      <point x="534" y="802" type="line"/>
      <point x="595.69" y="937.947"/>
      <point x="707.492" y="1056"/>
      <point x="890" y="1056" type="curve" smooth="yes"/>
      <point x="1167.03" y="1056"/>
      <point x="1310" y="791.39"/>
      <point x="1310" y="512" type="curve" smooth="yes"/>
    </contour>
  </outline>
</glyph>
<glyph name="OE" format="1">
  <advance width="2098"/>
  <unicode hex="0152"/>
  <outline>
    <contour>
      <point x="696" y="-32" type="curve" smooth="yes"/>
      <point x="322.295" y="-32"/>
      <point x="64" y="308.716"/>
      <point x="64" y="692" type="curve" smooth="yes"/>
      <point x="64" y="1038.5"/>
      <point x="267.107" y="1294.04"/>
      <point x="526.5" y="1384" type="curve" smooth="yes"/>
      <point x="584.167" y="1404"/>
      <point x="646" y="1414"/>
      <point x="712" y="1414" type="curve" smooth="yes"/>
      <point x="847.555" y="1414"/>
      <point x="934.108" y="1366.86"/>
      <point x="1020" y="1314" type="curve"/>
      <point x="1020" y="1376" type="line"/>
      <point x="2000" y="1376" type="line"/>
      <point x="2000" y="1066" type="line"/>
      <point x="1508" y="1066" type="line"/>
      <point x="1508" y="842" type="line"/>
      <point x="1958" y="842" type="line"/>
      <point x="1958" y="584" type="line"/>
      <point x="1508" y="584" type="line"/>
      <point x="1508" y="308" type="line"/>
      <point x="2000" y="308" type="line"/>
      <point x="2000" y="0" type="line"/>
      <point x="1014" y="0" type="line"/>
      <point x="1014" y="60" type="line"/>
      <point x="896.667" y="-1.33333"/>
      <point x="790.667" y="-32"/>
    </contour>
    <contour>
      <point x="522" y="694" type="curve" smooth="yes"/>
      <point x="522" y="519.577"/>
      <point x="577.151" y="338"/>
      <point x="748" y="338" type="curve" smooth="yes"/>
      <point x="848" y="338"/>
      <point x="936.667" y="348"/>
      <point x="1014" y="368" type="curve"/>
      <point x="1014" y="1018" type="line"/>
      <point x="918.667" y="1039.33"/>
      <point x="830" y="1050"/>
      <point x="748" y="1050" type="curve" smooth="yes"/>
      <point x="582.449" y="1050"/>
      <point x="522" y="865.797"/>
    </contour>
  </outline>
</glyph>
<glyph name="oe" format="1">
  <advance width="1894"/>
  <unicode hex="0153"/>
  <outline>
    <contour>
      <point x="1228" y="406" type="line"/>
      <point x="1261.9" y="310.808"/>
      <point x="1326.72" y="262"/>
      <point x="1454" y="262" type="curve" smooth="yes"/>
      <point x="1574.23" y="262"/>
      <point x="1668.35" y="298.944"/>
      <point x="1756" y="334" type="curve"/>
      <point x="1806" y="52" type="line"/>
      <point x="1682" y="-4"/>
      <point x="1542" y="-32"/>
      <point x="1386" y="-32" type="curve" smooth="yes"/>
      <point x="1238.67" y="-32"/>
      <point x="1112.67" y="23.3333"/>
      <point x="1008" y="134" type="curve"/>
      <point x="907.333" y="23.3333"/>
      <point x="785.333" y="-32"/>
      <point x="642" y="-32" type="curve" smooth="yes"/>
      <point x="298.939" y="-32"/>
      <point x="52" y="174.043"/>
      <point x="52" y="514" type="curve" smooth="yes"/>
      <point x="52" y="786.528"/>
      <point x="211.907" y="941.391"/>
      <point x="414.5" y="1017" type="curve" smooth="yes"/>
      <point x="484.167" y="1043"/>
      <point x="560.667" y="1056"/>
      <point x="644" y="1056" type="curve" smooth="yes"/>
      <point x="781.333" y="1056"/>
      <point x="902.667" y="1007.33"/>
      <point x="1008" y="910" type="curve"/>
      <point x="1113.33" y="1007.33"/>
      <point x="1235.33" y="1056"/>
      <point x="1374" y="1056" type="curve" smooth="yes"/>
      <point x="1676.71" y="1056"/>
      <point x="1848" y="842.976"/>
      <point x="1848" y="538" type="curve" smooth="yes"/>
      <point x="1848" y="519.333"/>
      <point x="1846.67" y="502"/>
      <point x="1844" y="486" type="curve"/>
    </contour>
    <contour>
      <point x="460" y="514" type="curve" smooth="yes"/>
      <point x="460" y="402.838"/>
      <point x="534.133" y="310"/>
      <point x="644" y="310" type="curve" smooth="yes"/>
      <point x="753.299" y="310"/>
      <point x="828" y="407.238"/>
      <point x="828" y="514" type="curve" smooth="yes"/>
      <point x="828" y="623.652"/>
      <point x="752.775" y="718"/>
      <point x="644" y="718" type="curve" smooth="yes"/>
      <point x="531.671" y="718"/>
      <point x="460" y="626.14"/>
    </contour>
    <contour>
      <point x="1530" y="664" type="line"/>
      <point x="1506.67" y="749.333"/>
      <point x="1454.67" y="792"/>
      <point x="1374" y="792" type="curve" smooth="yes"/>
      <point x="1263.07" y="792"/>
      <point x="1217.06" y="700.265"/>
      <point x="1212" y="594" type="curve"/>
    </contour>
  </outline>
</glyph>
<glyph name="Tbar" format="1">
  <advance width="1202"/>
  <unicode hex="0166"/>
  <outline>
    <contour>
      <point x="362" y="518" type="line"/>
      <point x="216" y="518" type="line"/>
      <point x="216" y="692" type="line"/>
      <point x="362" y="692" type="line"/>
      <point x="362" y="1078" type="line"/>
      <point x="70" y="1078" type="line"/>
      <point x="70" y="1376" type="line"/>
      <point x="1132" y="1376" type="line"/>
      <point x="1132" y="1078" type="line"/>
      <point x="840" y="1078" type="line"/>
      <point x="840" y="692" type="line"/>
      <point x="986" y="692" type="line"/>
      <point x="986" y="518" type="line"/>
      <point x="840" y="518" type="line"/>
      <point x="840" y="0" type="line"/>
      <point x="362" y="0" type="line"/>
    </contour>
  </outline>
</glyph>
<glyph name="tbar" format="1">
  <advance width="921"/>
  <unicode hex="0167"/>
  <outline>
    <contour>
      <point x="616" y="408" type="line" smooth="yes"/>
      <point x="616" y="333.206"/>
      <point x="669.677" y="300"/>
      <point x="746" y="300" type="curve" smooth="yes"/>
      <point x="777.333" y="300"/>
      <point x="808.667" y="308"/>
      <point x="840" y="324" type="curve"/>
      <point x="856" y="38" type="line"/>
      <point x="763.333" y="-8.66667"/>
      <point x="660.667" y="-32"/>
      <point x="548" y="-32" type="curve" smooth="yes"/>
      <point x="304.048" y="-32"/>
      <point x="184" y="132.812"/>
      <point x="184" y="378" type="curve" smooth="yes"/>
      <point x="184" y="518" type="line"/>
      <point x="70" y="518" type="line"/>
      <point x="70" y="692" type="line"/>
      <point x="186" y="692" type="line"/>
      <point x="186" y="772" type="line"/>
      <point x="56" y="772" type="line"/>
      <point x="56" y="1026" type="line"/>
      <point x="186" y="1026" type="line"/>
      <point x="186" y="1274" type="line"/>
      <point x="616" y="1414" type="line"/>
      <point x="616" y="1026" type="line"/>
      <point x="852" y="1026" type="line"/>
      <point x="852" y="772" type="line"/>
      <point x="616" y="772" type="line"/>
      <point x="616" y="692" type="line"/>
      <point x="840" y="692" type="line"/>
      <point x="840" y="518" type="line"/>
      <point x="616" y="518" type="line"/>
    </contour>
  </outline>
</glyph>
<glyph name="florin" format="1">
  <advance width="891"/>
  <unicode hex="0192"/>
  <outline>
    <contour>
      <point x="179" y="1136" type="line" smooth="yes"/>
      <point x="179" y="1401.67"/>
      <point x="290.827" y="1572"/>
      <point x="555" y="1572" type="curve" smooth="yes"/>
      <point x="654.333" y="1572"/>
      <point x="765.667" y="1546"/>
      <point x="889" y="1494" type="curve"/>
      <point x="875" y="1216" type="line"/>
      <point x="815" y="1236"/>
      <point x="766.333" y="1246"/>
      <point x="729" y="1246" type="curve" smooth="yes"/>
      <point x="651.667" y="1246"/>
      <point x="613" y="1204.67"/>
      <point x="613" y="1122" type="curve" smooth="yes"/>
      <point x="613" y="1026" type="line"/>
      <point x="871" y="1026" type="line"/>
      <point x="871" y="772" type="line"/>
      <point x="613" y="772" type="line"/>
      <point x="613" y="0" type="line"/>
      <point x="179" y="0" type="line"/>
      <point x="179" y="772" type="line"/>
      <point x="53" y="772" type="line"/>
      <point x="53" y="1026" type="line"/>
      <point x="179" y="1026" type="line"/>
    </contour>
  </outline>
</glyph>
<glyph name="dotlessj" format="1">
  <advance width="646"/>
  <unicode hex="0237"/>
  <outline>
    <contour>
      <point x="539" y="60" type="line" smooth="yes"/>
      <point x="539" y="-241.019"/>
      <point x="384.23" y="-442"/>
      <point x="85" y="-442" type="curve" smooth="yes"/>
      <point x="-40.3333" y="-442"/>
      <point x="-157" y="-406"/>
      <point x="-265" y="-334" type="curve"/>
      <point x="-171" y="-80" type="line"/>
      <point x="-108.333" y="-100"/>
      <point x="-61" y="-110"/>
      <point x="-29" y="-110" type="curve" smooth="yes"/>
      <point x="61.6667" y="-110"/>
      <point x="107" y="-53.3333"/>
      <point x="107" y="60" type="curve" smooth="yes"/>
      <point x="107" y="1026" type="line"/>
      <point x="539" y="1026" type="line"/>
    </contour>
  </outline>
</glyph>
<glyph name="circumflex" format="1">
  <advance width="986"/>
  <unicode hex="02C6"/>
  <outline>
    <contour>
      <point x="300" y="1640" type="line"/>
      <point x="678" y="1640" type="line"/>
      <point x="930" y="1130" type="line"/>
      <point x="590" y="1130" type="line"/>
      <point x="512" y="1348" type="line"/>
      <point x="488" y="1426" type="line"/>
      <point x="466" y="1348" type="line"/>
      <point x="388" y="1130" type="line"/>
      <point x="48" y="1130" type="line"/>
    </contour>
  </outline>
</glyph>
<glyph name="caron" format="1">
  <advance width="986"/>
  <unicode hex="02C7"/>
  <outline>
    <contour>
      <point x="488" y="1342" type="line"/>
      <point x="516.552" y="1438.36"/>
      <point x="559.623" y="1545.5"/>
      <point x="590" y="1640" type="curve"/>
      <point x="930" y="1640" type="line"/>
      <point x="678" y="1130" type="line"/>
      <point x="300" y="1130" type="line"/>
      <point x="48" y="1640" type="line"/>
      <point x="388" y="1640" type="line"/>
      <point x="466" y="1422" type="line"/>
    </contour>
  </outline>
</glyph>
<glyph name="breve" format="1">
  <advance width="842"/>
  <unicode hex="02D8"/>
  <outline>
    <contour>
      <point x="422" y="1376" type="curve" smooth="yes"/>
      <point x="496.139" y="1376"/>
      <point x="540" y="1425.33"/>
      <point x="540" y="1500" type="curve"/>
      <point x="772" y="1500" type="line"/>
      <point x="772" y="1286.92"/>
      <point x="634.197" y="1150"/>
      <point x="422" y="1150" type="curve" smooth="yes"/>
      <point x="208.846" y="1150"/>
      <point x="70" y="1287.68"/>
      <point x="70" y="1500" type="curve"/>
      <point x="296" y="1500" type="line"/>
      <point x="296" y="1427.03"/>
      <point x="349.085" y="1376"/>
    </contour>
  </outline>
</glyph>
<glyph name="ring" format="1">
  <advance width="842"/>
  <unicode hex="02DA"/>
  <outline>
    <contour>
      <point x="540" y="1500" type="curve" smooth="yes"/>
      <point x="540" y="1574.56"/>
      <point x="492.045" y="1628"/>
      <point x="418" y="1628" type="curve" smooth="yes"/>
      <point x="342.987" y="1628"/>
      <point x="296" y="1575.21"/>
      <point x="296" y="1500" type="curve" smooth="yes"/>
      <point x="296" y="1425.29"/>
      <point x="348.019" y="1376"/>
      <point x="422" y="1376" type="curve" smooth="yes"/>
      <point x="497.393" y="1376"/>
      <point x="540" y="1425.11"/>
    </contour>
    <contour>
      <point x="422" y="1150" type="curve" smooth="yes"/>
      <point x="209.181" y="1150"/>
      <point x="70" y="1287.4"/>
      <point x="70" y="1500" type="curve" smooth="yes"/>
      <point x="70" y="1714.08"/>
      <point x="208.746" y="1854"/>
      <point x="422" y="1854" type="curve" smooth="yes"/>
      <point x="635.878" y="1854"/>
      <point x="772" y="1712.17"/>
      <point x="772" y="1500" type="curve" smooth="yes"/>
      <point x="772" y="1286.92"/>
      <point x="634.197" y="1150"/>
    </contour>
  </outline>
</glyph>
<glyph name="ogonek" format="1">
  <advance width="642"/>
  <unicode hex="02DB"/>
  <outline>
    <contour>
      <point x="310" y="-508" type="curve" smooth="yes"/>
      <point x="186.523" y="-508"/>
      <point x="86" y="-454.581"/>
      <point x="86" y="-332" type="curve" smooth="yes"/>
      <point x="86" y="-219.089"/>
      <point x="187.228" y="-146.472"/>
      <point x="250" y="-93" type="curve" smooth="yes"/>
      <point x="307" y="-45" type="line" smooth="yes"/>
      <point x="327.746" y="-27.3676"/>
      <point x="347.251" y="-16.8565"/>
      <point x="362" y="0" type="curve"/>
      <point x="474" y="0" type="line"/>
      <point x="434.729" y="-82.2229"/>
      <point x="393.378" y="-156.894"/>
      <point x="346" y="-225" type="curve"/>
      <point x="326" y="-256" type="line" smooth="yes"/>
      <point x="316.861" y="-269.708"/>
      <point x="309.104" y="-304.645"/>
      <point x="308" y="-328" type="curve"/>
      <point x="308" y="-377.333"/>
      <point x="342" y="-402"/>
      <point x="410" y="-402" type="curve" smooth="yes"/>
      <point x="431.333" y="-402"/>
      <point x="463.333" y="-397.333"/>
      <point x="506" y="-388" type="curve"/>
      <point x="508" y="-464" type="line"/>
      <point x="438" y="-493.333"/>
      <point x="372" y="-508"/>
    </contour>
  </outline>
</glyph>
<glyph name="tilde" format="1">
  <advance width="1112"/>
  <unicode hex="02DC"/>
  <outline>
    <contour>
      <point x="1054" y="1492" type="line"/>
      <point x="993.649" y="1319.71"/>
      <point x="908.492" y="1152"/>
      <point x="720" y="1152" type="curve" smooth="yes"/>
      <point x="610.969" y="1152"/>
      <point x="550.691" y="1208.46"/>
      <point x="481.5" y="1248" type="curve" smooth="yes"/>
      <point x="460.5" y="1260"/>
      <point x="437.333" y="1266"/>
      <point x="412" y="1266" type="curve" smooth="yes"/>
      <point x="346.907" y="1266"/>
      <point x="321.772" y="1206.24"/>
      <point x="304" y="1158" type="curve"/>
      <point x="62" y="1256" type="line"/>
      <point x="112.842" y="1395.41"/>
      <point x="188.271" y="1528.25"/>
      <point x="311.5" y="1588" type="curve" smooth="yes"/>
      <point x="344.5" y="1604"/>
      <point x="378.667" y="1612"/>
      <point x="414" y="1612" type="curve" smooth="yes"/>
      <point x="457.429" y="1612"/>
      <point x="495.85" y="1597.31"/>
      <point x="525" y="1583" type="curve"/>
      <point x="572" y="1555" type="line"/>
      <point x="576.729" y="1550.27"/>
      <point x="584.169" y="1546.88"/>
      <point x="591" y="1542" type="curve" smooth="yes"/>
      <point x="634" y="1517" type="line"/>
      <point x="656.813" y="1505.59"/>
      <point x="679.162" y="1498"/>
      <point x="712" y="1498" type="curve" smooth="yes"/>
      <point x="758.667" y="1498"/>
      <point x="792.667" y="1528.67"/>
      <point x="814" y="1590" type="curve"/>
    </contour>
  </outline>
</glyph>
<glyph name="hungarumlaut" format="1">
  <advance width="1302"/>
  <unicode hex="02DD"/>
  <outline>
    <contour>
      <point x="258" y="2006" type="line"/>
      <point x="658" y="1888" type="line"/>
      <point x="358" y="1218" type="line"/>
      <point x="114" y="1288" type="line"/>
    </contour>
    <contour>
      <point x="860" y="2010" type="line"/>
      <point x="1234" y="1822" type="line"/>
      <point x="818" y="1216" type="line"/>
      <point x="592" y="1328" type="line"/>
    </contour>
  </outline>
</glyph>
<glyph name="uni030F" format="1">
  <advance width="1302"/>
  <unicode hex="030F"/>
  <outline>
    <contour>
      <point x="642" y="1888" type="line"/>
      <point x="1044" y="2006" type="line"/>
      <point x="1188" y="1288" type="line"/>
      <point x="944" y="1218" type="line"/>
    </contour>
    <contour>
      <point x="68" y="1822" type="line"/>
      <point x="442" y="2010" type="line"/>
      <point x="710" y="1328" type="line"/>
      <point x="482" y="1216" type="line"/>
    </contour>
  </outline>
</glyph>
<glyph name="uni0311" format="1">
  <advance width="842"/>
  <unicode hex="0311"/>
  <outline>
    <contour>
      <point x="50" y="1182" type="line"/>
      <point x="50.0001" y="1411.54"/>
      <point x="193.531" y="1562"/>
      <point x="422" y="1562" type="curve" smooth="yes"/>
      <point x="650.443" y="1562"/>
      <point x="794" y="1409.61"/>
      <point x="794" y="1182" type="curve"/>
      <point x="548" y="1182" type="line"/>
      <point x="548" y="1256.78"/>
      <point x="496.443" y="1308"/>
      <point x="422" y="1308" type="curve" smooth="yes"/>
      <point x="347.554" y="1308"/>
      <point x="296" y="1256.78"/>
      <point x="296" y="1182" type="curve"/>
    </contour>
  </outline>
</glyph>
<glyph name="Delta" format="1">
  <advance width="1210"/>
  <unicode hex="0394"/>
  <outline>
    <contour>
      <point x="421" y="1376" type="line"/>
      <point x="785" y="1376" type="line"/>
      <point x="1161" y="0" type="line"/>
      <point x="51" y="0" type="line"/>
    </contour>
    <contour>
      <point x="799" y="230" type="line"/>
      <point x="605" y="1060" type="line"/>
      <point x="417" y="230" type="line"/>
    </contour>
  </outline>
</glyph>
<glyph name="mu" format="1">
  <advance width="1272"/>
  <unicode hex="03BC"/>
  <outline>
    <contour>
      <point x="1202" y="440" type="line" smooth="yes"/>
      <point x="1202" y="169.31"/>
      <point x="1023.8" y="-32"/>
      <point x="755" y="-32" type="curve" smooth="yes"/>
      <point x="680.333" y="-32"/>
      <point x="604" y="-13.3333"/>
      <point x="526" y="24" type="curve"/>
      <point x="526" y="-270" type="line"/>
      <point x="116" y="-300" type="line"/>
      <point x="116" y="1026" type="line"/>
      <point x="538" y="1026" type="line"/>
      <point x="538" y="344" type="line"/>
      <point x="578.668" y="317.333"/>
      <point x="621.334" y="304"/>
      <point x="666" y="304" type="curve" smooth="yes"/>
      <point x="737.021" y="304"/>
      <point x="790" y="354.891"/>
      <point x="790" y="426" type="curve" smooth="yes"/>
      <point x="790" y="1026" type="line"/>
      <point x="1202" y="1026" type="line"/>
    </contour>
  </outline>
</glyph>
<glyph name="pi" format="1">
  <advance width="1432"/>
  <unicode hex="03C0"/>
  <outline>
    <contour>
      <point x="148" y="300" type="curve" smooth="yes"/>
      <point x="205.636" y="300"/>
      <point x="240" y="337.405"/>
      <point x="240" y="398" type="curve" smooth="yes"/>
      <point x="240" y="1026" type="line"/>
      <point x="1318" y="1026" type="line"/>
      <point x="1318" y="3" type="line"/>
      <point x="886" y="3" type="line"/>
      <point x="886" y="852" type="line"/>
      <point x="674" y="852" type="line"/>
      <point x="674" y="378" type="line" smooth="yes"/>
      <point x="674" y="133.4"/>
      <point x="552.75" y="-32"/>
      <point x="310" y="-32" type="curve" smooth="yes"/>
      <point x="212" y="-32"/>
      <point x="122.667" y="-8.66667"/>
      <point x="42" y="38" type="curve"/>
      <point x="64" y="324" type="line"/>
      <point x="92.6667" y="308"/>
      <point x="120.667" y="300"/>
    </contour>
  </outline>
</glyph>
<glyph name="endash" format="1">
  <advance width="972"/>
  <unicode hex="2013"/>
  <outline>
    <contour>
      <point x="97" y="476" type="line"/>
      <point x="876" y="476" type="line"/>
      <point x="876" y="302" type="line"/>
      <point x="97" y="302" type="line"/>
    </contour>
  </outline>
</glyph>
<glyph name="emdash" format="1">
  <advance width="1244"/>
  <unicode hex="2014"/>
  <outline>
    <contour>
      <point x="97" y="476" type="line"/>
      <point x="1147" y="476" type="line"/>
      <point x="1147" y="302" type="line"/>
      <point x="97" y="302" type="line"/>
    </contour>
  </outline>
</glyph>
<glyph name="quoteleft" format="1">
  <advance width="600"/>
  <unicode hex="2018"/>
  <outline>
    <contour>
      <point x="504" y="1200" type="line"/>
      <point x="403.5" y="1200" type="line" smooth="yes"/>
      <point x="325.625" y="1200"/>
      <point x="314" y="1173.27"/>
      <point x="314" y="1094" type="curve"/>
      <point x="504" y="1094" type="line"/>
      <point x="504" y="710" type="line"/>
      <point x="84" y="710" type="line"/>
      <point x="84.6667" y="722.667"/>
      <point x="85" y="739.5"/>
      <point x="85" y="760.5" type="curve" smooth="yes"/>
      <point x="85" y="781.5"/>
      <point x="85.3333" y="807"/>
      <point x="86" y="837" type="curve" smooth="yes"/>
      <point x="89" y="969" type="line"/>
      <point x="96.9368" y="1228.27"/>
      <point x="105.516" y="1405.02"/>
      <point x="345.5" y="1432.5" type="curve" smooth="yes"/>
      <point x="389.167" y="1437.5"/>
      <point x="442" y="1440"/>
      <point x="504" y="1440" type="curve"/>
    </contour>
  </outline>
</glyph>
<glyph name="quoteright" format="1">
  <advance width="590"/>
  <unicode hex="2019"/>
  <outline>
    <contour>
      <point x="100" y="918" type="line"/>
      <point x="128.75" y="918"/>
      <point x="159.889" y="915.623"/>
      <point x="188.435" y="915.623" type="curve" smooth="yes"/>
      <point x="273.362" y="915.623"/>
      <point x="292" y="937.465"/>
      <point x="292" y="1024" type="curve"/>
      <point x="100" y="1024" type="line"/>
      <point x="100" y="1408" type="line"/>
      <point x="520" y="1408" type="line"/>
      <point x="517" y="1281" type="line"/>
      <point x="513.441" y="1055.01"/>
      <point x="536.021" y="802.004"/>
      <point x="386.5" y="721.5" type="curve" smooth="yes"/>
      <point x="315.18" y="683.084"/>
      <point x="217.918" y="678"/>
      <point x="100" y="678" type="curve"/>
    </contour>
  </outline>
</glyph>
<glyph name="quotesinglbase" format="1">
  <advance width="458"/>
  <unicode hex="201A"/>
  <outline>
    <contour>
      <point x="82" y="253" type="line"/>
      <point x="378" y="253" type="line"/>
      <point x="320" y="-255" type="line"/>
      <point x="124" y="-255" type="line"/>
    </contour>
  </outline>
</glyph>
<glyph name="quotedblleft" format="1">
  <advance width="1162"/>
  <unicode hex="201C"/>
  <outline>
    <contour>
      <point x="504" y="1200" type="line"/>
      <point x="403.5" y="1200" type="line" smooth="yes"/>
      <point x="325.625" y="1200"/>
      <point x="314" y="1173.27"/>
      <point x="314" y="1094" type="curve"/>
      <point x="504" y="1094" type="line"/>
      <point x="504" y="710" type="line"/>
      <point x="84" y="710" type="line"/>
      <point x="84.6667" y="722.667"/>
      <point x="85" y="739.5"/>
      <point x="85" y="760.5" type="curve" smooth="yes"/>
      <point x="85" y="781.5"/>
      <point x="85.3333" y="807"/>
      <point x="86" y="837" type="curve" smooth="yes"/>
      <point x="89" y="969" type="line"/>
      <point x="96.9368" y="1228.27"/>
      <point x="105.516" y="1405.02"/>
      <point x="345.5" y="1432.5" type="curve" smooth="yes"/>
      <point x="389.167" y="1437.5"/>
      <point x="442" y="1440"/>
      <point x="504" y="1440" type="curve"/>
    </contour>
    <contour>
      <point x="1066" y="1200" type="line"/>
      <point x="966.5" y="1200" type="line" smooth="yes"/>
      <point x="888.738" y="1200"/>
      <point x="874" y="1173.21"/>
      <point x="874" y="1094" type="curve"/>
      <point x="1066" y="1094" type="line"/>
      <point x="1066" y="710" type="line"/>
      <point x="646" y="710" type="line"/>
      <point x="646.667" y="722.667"/>
      <point x="647" y="739.5"/>
      <point x="647" y="760.5" type="curve" smooth="yes"/>
      <point x="647" y="781.5"/>
      <point x="647.333" y="807"/>
      <point x="648" y="837" type="curve" smooth="yes"/>
      <point x="651" y="969" type="line"/>
      <point x="658.511" y="1229.38"/>
      <point x="669.708" y="1411.1"/>
      <point x="914" y="1434" type="curve" smooth="yes"/>
      <point x="956.669" y="1438"/>
      <point x="1007.34" y="1440"/>
      <point x="1066" y="1440" type="curve"/>
    </contour>
  </outline>
</glyph>
<glyph name="quotedblright" format="1">
  <advance width="1152"/>
  <unicode hex="201D"/>
  <outline>
    <contour>
      <point x="100" y="918" type="line"/>
      <point x="128.75" y="918"/>
      <point x="159.889" y="915.623"/>
      <point x="188.435" y="915.623" type="curve" smooth="yes"/>
      <point x="273.362" y="915.623"/>
      <point x="292" y="937.465"/>
      <point x="292" y="1024" type="curve"/>
      <point x="100" y="1024" type="line"/>
      <point x="100" y="1408" type="line"/>
      <point x="520" y="1408" type="line"/>
      <point x="517" y="1281" type="line"/>
      <point x="513.441" y="1055.01"/>
      <point x="536.021" y="802.004"/>
      <point x="386.5" y="721.5" type="curve" smooth="yes"/>
      <point x="315.18" y="683.084"/>
      <point x="217.918" y="678"/>
      <point x="100" y="678" type="curve"/>
    </contour>
    <contour>
      <point x="662" y="918" type="line"/>
      <point x="690.983" y="918"/>
      <point x="722.491" y="915.492"/>
      <point x="751.245" y="915.492" type="curve" smooth="yes"/>
      <point x="835.773" y="915.492"/>
      <point x="852" y="937.951"/>
      <point x="852" y="1024" type="curve"/>
      <point x="662" y="1024" type="line"/>
      <point x="662" y="1408" type="line"/>
      <point x="1082" y="1408" type="line"/>
      <point x="1079" y="1281" type="line"/>
      <point x="1074.44" y="989.364"/>
      <point x="1105.66" y="722.057"/>
      <point x="833" y="687" type="curve" smooth="yes"/>
      <point x="786.333" y="681"/>
      <point x="729.333" y="678"/>
      <point x="662" y="678" type="curve"/>
    </contour>
  </outline>
</glyph>
<glyph name="quotedblbase" format="1">
  <advance width="838"/>
  <unicode hex="201E"/>
  <outline>
    <contour>
      <point x="466" y="300" type="line"/>
      <point x="762" y="300" type="line"/>
      <point x="704" y="-208" type="line"/>
      <point x="508" y="-208" type="line"/>
    </contour>
    <contour>
      <point x="80" y="300" type="line"/>
      <point x="374" y="300" type="line"/>
      <point x="316" y="-208" type="line"/>
      <point x="120" y="-208" type="line"/>
    </contour>
  </outline>
</glyph>
<glyph name="dagger" format="1">
  <advance width="720"/>
  <unicode hex="2020"/>
  <outline>
    <contour>
      <point x="48" y="1027" type="line"/>
      <point x="294" y="1027" type="line"/>
      <point x="294" y="1376" type="line"/>
      <point x="426" y="1376" type="line"/>
      <point x="426" y="1027" type="line"/>
      <point x="672" y="1027" type="line"/>
      <point x="672" y="901" type="line"/>
      <point x="426" y="901" type="line"/>
      <point x="426" y="0" type="line"/>
      <point x="294" y="0" type="line"/>
      <point x="294" y="901" type="line"/>
      <point x="48" y="901" type="line"/>
    </contour>
  </outline>
</glyph>
<glyph name="daggerdbl" format="1">
  <advance width="752"/>
  <unicode hex="2021"/>
  <outline>
    <contour>
      <point x="64" y="530" type="line"/>
      <point x="310" y="530" type="line"/>
      <point x="310" y="901" type="line"/>
      <point x="64" y="901" type="line"/>
      <point x="64" y="1027" type="line"/>
      <point x="310" y="1027" type="line"/>
      <point x="310" y="1376" type="line"/>
      <point x="442" y="1376" type="line"/>
      <point x="442" y="1027" type="line"/>
      <point x="688" y="1027" type="line"/>
      <point x="688" y="901" type="line"/>
      <point x="442" y="901" type="line"/>
      <point x="442" y="530" type="line"/>
      <point x="688" y="530" type="line"/>
      <point x="688" y="406" type="line"/>
      <point x="442" y="406" type="line"/>
      <point x="442" y="0" type="line"/>
      <point x="310" y="0" type="line"/>
      <point x="310" y="406" type="line"/>
      <point x="64" y="406" type="line"/>
    </contour>
  </outline>
</glyph>
<glyph name="bullet" format="1">
  <advance width="1036"/>
  <unicode hex="2022"/>
  <outline>
    <contour>
      <point x="517" y="114" type="curve" smooth="yes"/>
      <point x="257.827" y="114"/>
      <point x="67" y="272.494"/>
      <point x="67" y="530" type="curve" smooth="yes"/>
      <point x="67" y="786.261"/>
      <point x="259.909" y="946"/>
      <point x="519" y="946" type="curve" smooth="yes"/>
      <point x="779.254" y="946"/>
      <point x="969" y="788.588"/>
      <point x="969" y="530" type="curve" smooth="yes"/>
      <point x="969" y="268.919"/>
      <point x="776.555" y="114"/>
    </contour>
  </outline>
</glyph>
<glyph name="ellipsis" format="1">
  <advance width="1838"/>
  <unicode hex="2026"/>
  <outline>
    <contour>
      <point x="288" y="-32" type="curve" smooth="yes"/>
      <point x="160.997" y="-32"/>
      <point x="58" y="49.9826"/>
      <point x="58" y="176" type="curve" smooth="yes"/>
      <point x="58" y="299.262"/>
      <point x="164.696" y="382"/>
      <point x="288" y="382" type="curve" smooth="yes"/>
      <point x="410.467" y="382"/>
      <point x="518" y="297.335"/>
      <point x="518" y="176" type="curve" smooth="yes"/>
      <point x="518" y="50.9052"/>
      <point x="413.206" y="-32"/>
    </contour>
    <contour>
      <point x="920" y="-32" type="curve" smooth="yes"/>
      <point x="792.063" y="-32"/>
      <point x="688" y="49.3792"/>
      <point x="688" y="176" type="curve" smooth="yes"/>
      <point x="688" y="300.395"/>
      <point x="795.222" y="382"/>
      <point x="920" y="382" type="curve" smooth="yes"/>
      <point x="1042.47" y="382"/>
      <point x="1150" y="297.335"/>
      <point x="1150" y="176" type="curve" smooth="yes"/>
      <point x="1150" y="50.9052"/>
      <point x="1045.21" y="-32"/>
    </contour>
    <contour>
      <point x="1550" y="-32" type="curve" smooth="yes"/>
      <point x="1423" y="-32"/>
      <point x="1320" y="49.9826"/>
      <point x="1320" y="176" type="curve" smooth="yes"/>
      <point x="1320" y="300.755"/>
      <point x="1424.9" y="382"/>
      <point x="1550" y="382" type="curve" smooth="yes"/>
      <point x="1673.08" y="382"/>
      <point x="1780" y="297.958"/>
      <point x="1780" y="176" type="curve" smooth="yes"/>
      <point x="1780" y="49.8494"/>
      <point x="1676.28" y="-32"/>
    </contour>
  </outline>
</glyph>
<glyph name="perthousand" format="1">
  <advance width="2660"/>
  <unicode hex="2030"/>
  <outline>
    <contour>
      <point x="998" y="1376" type="line"/>
      <point x="1140" y="1376" type="line"/>
      <point x="800" y="0" type="line"/>
      <point x="662" y="0" type="line"/>
    </contour>
    <contour>
      <point x="1768" y="368" type="curve" smooth="yes"/>
      <point x="1768" y="134.29"/>
      <point x="1628.57" y="-32"/>
      <point x="1396" y="-32" type="curve" smooth="yes"/>
      <point x="1163.97" y="-32"/>
      <point x="1026" y="137.699"/>
      <point x="1026" y="368" type="curve" smooth="yes"/>
      <point x="1026" y="598.439"/>
      <point x="1167.03" y="770"/>
      <point x="1396" y="770" type="curve" smooth="yes"/>
      <point x="1626.77" y="770"/>
      <point x="1768" y="597.332"/>
    </contour>
    <contour>
      <point x="1280" y="368" type="curve" smooth="yes"/>
      <point x="1280" y="278.976"/>
      <point x="1309.89" y="172"/>
      <point x="1396" y="172" type="curve" smooth="yes"/>
      <point x="1485.9" y="172"/>
      <point x="1514" y="276.519"/>
      <point x="1514" y="368" type="curve" smooth="yes"/>
      <point x="1514" y="458.329"/>
      <point x="1484" y="562"/>
      <point x="1396" y="562" type="curve" smooth="yes"/>
      <point x="1305.88" y="562"/>
      <point x="1280" y="459.149"/>
    </contour>
    <contour>
      <point x="794" y="1014" type="curve" smooth="yes"/>
      <point x="794" y="778.789"/>
      <point x="653.834" y="614"/>
      <point x="420" y="614" type="curve" smooth="yes"/>
      <point x="186.763" y="614"/>
      <point x="50" y="782.5"/>
      <point x="50" y="1014" type="curve" smooth="yes"/>
      <point x="50" y="1247.99"/>
      <point x="193.744" y="1414"/>
      <point x="425" y="1414" type="curve" smooth="yes"/>
      <point x="655.908" y="1414"/>
      <point x="794" y="1242.38"/>
    </contour>
    <contour>
      <point x="304" y="1014" type="curve" smooth="yes"/>
      <point x="304" y="923.887"/>
      <point x="333.145" y="816"/>
      <point x="420" y="816" type="curve" smooth="yes"/>
      <point x="511.56" y="816"/>
      <point x="540" y="921.193"/>
      <point x="540" y="1014" type="curve" smooth="yes"/>
      <point x="540" y="1104.95"/>
      <point x="508.875" y="1208"/>
      <point x="420" y="1208" type="curve" smooth="yes"/>
      <point x="330.892" y="1208"/>
      <point x="304" y="1105.29"/>
    </contour>
    <contour>
      <point x="2610" y="368" type="curve" smooth="yes"/>
      <point x="2610" y="134.29"/>
      <point x="2470.58" y="-32"/>
      <point x="2238" y="-32" type="curve" smooth="yes"/>
      <point x="2006.37" y="-32"/>
      <point x="1866" y="138.15"/>
      <point x="1866" y="368" type="curve" smooth="yes"/>
      <point x="1866" y="599.653"/>
      <point x="2008.05" y="770"/>
      <point x="2238" y="770" type="curve" smooth="yes"/>
      <point x="2467.57" y="770"/>
      <point x="2610" y="596.134"/>
    </contour>
    <contour>
      <point x="2120" y="368" type="curve" smooth="yes"/>
      <point x="2120" y="276.738"/>
      <point x="2149.23" y="172"/>
      <point x="2238" y="172" type="curve" smooth="yes"/>
      <point x="2327.9" y="172"/>
      <point x="2356" y="276.519"/>
      <point x="2356" y="368" type="curve" smooth="yes"/>
      <point x="2356" y="458.329"/>
      <point x="2326" y="562"/>
      <point x="2238" y="562" type="curve" smooth="yes"/>
      <point x="2148.41" y="562"/>
      <point x="2120" y="459.416"/>
    </contour>
  </outline>
</glyph>
<glyph name="guilsinglleft" format="1">
  <advance width="577"/>
  <unicode hex="2039"/>
  <outline>
    <contour>
      <point x="53" y="810" type="line"/>
      <point x="483" y="1116" type="line"/>
      <point x="483" y="744" type="line"/>
      <point x="285" y="626" type="line"/>
      <point x="483" y="502" type="line"/>
      <point x="483" y="128" type="line"/>
      <point x="53" y="442" type="line"/>
    </contour>
  </outline>
</glyph>
<glyph name="guilsinglright" format="1">
  <advance width="577"/>
  <unicode hex="203A"/>
  <outline>
    <contour>
      <point x="94" y="502" type="line"/>
      <point x="290" y="626" type="line"/>
      <point x="94" y="744" type="line"/>
      <point x="94" y="1116" type="line"/>
      <point x="524" y="810" type="line"/>
      <point x="524" y="442" type="line"/>
      <point x="94" y="128" type="line"/>
    </contour>
  </outline>
</glyph>
<glyph name="fraction" format="1">
  <advance width="562"/>
  <unicode hex="2044"/>
  <outline>
    <contour>
      <point x="349" y="1408" type="line"/>
      <point x="553" y="1408" type="line"/>
      <point x="213" y="0" type="line"/>
      <point x="13" y="0" type="line"/>
    </contour>
  </outline>
</glyph>
<glyph name="foursuperior" format="1">
  <advance width="746"/>
  <unicode hex="2074"/>
  <outline>
    <contour>
      <point x="40" y="978" type="line"/>
      <point x="342" y="1376" type="line"/>
      <point x="598" y="1376" type="line"/>
      <point x="598" y="978" type="line"/>
      <point x="692" y="978" type="line"/>
      <point x="692" y="822" type="line"/>
      <point x="598" y="822" type="line"/>
      <point x="598" y="650" type="line"/>
      <point x="352" y="650" type="line"/>
      <point x="352" y="822" type="line"/>
      <point x="40" y="822" type="line"/>
    </contour>
    <contour>
      <point x="352" y="978" type="line"/>
      <point x="352" y="1180" type="line"/>
      <point x="208" y="978" type="line"/>
    </contour>
  </outline>
</glyph>
<glyph name="Euro" format="1">
  <advance width="1360"/>
  <unicode hex="20AC"/>
  <outline>
    <contour>
      <point x="630" y="766" type="line"/>
      <point x="627.388" y="743.801"/>
      <point x="626" y="720.521"/>
      <point x="626" y="696" type="curve" smooth="yes"/>
      <point x="626" y="666"/>
      <point x="628" y="638.667"/>
      <point x="632" y="614" type="curve"/>
      <point x="966" y="614" type="line"/>
      <point x="966" y="492" type="line"/>
      <point x="675" y="492" type="line"/>
      <point x="733.667" y="389.333"/>
      <point x="834.667" y="338"/>
      <point x="978" y="338" type="curve" smooth="yes"/>
      <point x="1083.97" y="338"/>
      <point x="1153.65" y="365.073"/>
      <point x="1232" y="396" type="curve"/>
      <point x="1284" y="74" type="line"/>
      <point x="1161.33" y="3.33333"/>
      <point x="1033.33" y="-32"/>
      <point x="900" y="-32" type="curve" smooth="yes"/>
      <point x="524.058" y="-32"/>
      <point x="273.145" y="193.597"/>
      <point x="192" y="492" type="curve"/>
      <point x="54" y="492" type="line"/>
      <point x="54" y="614" type="line"/>
      <point x="170" y="614" type="line"/>
      <point x="167.428" y="639.72"/>
      <point x="166" y="666.29"/>
      <point x="166" y="694" type="curve" smooth="yes"/>
      <point x="166" y="718"/>
      <point x="167" y="742"/>
      <point x="169" y="766" type="curve"/>
      <point x="54" y="766" type="line"/>
      <point x="54" y="892" type="line"/>
      <point x="191" y="892" type="line"/>
      <point x="267.878" y="1186.7"/>
      <point x="520.877" y="1414"/>
      <point x="888" y="1414" type="curve" smooth="yes"/>
      <point x="1027.33" y="1414"/>
      <point x="1160" y="1378"/>
      <point x="1286" y="1306" type="curve"/>
      <point x="1232" y="988" type="line"/>
      <point x="1132" y="1025.33"/>
      <point x="1043.33" y="1044"/>
      <point x="966" y="1044" type="curve" smooth="yes"/>
      <point x="824" y="1044"/>
      <point x="725" y="993.333"/>
      <point x="669" y="892" type="curve"/>
      <point x="966" y="892" type="line"/>
      <point x="966" y="766" type="line"/>
    </contour>
  </outline>
</glyph>
<glyph name="trademark" format="1">
  <advance width="1988"/>
  <unicode hex="2122"/>
  <outline>
    <contour>
      <point x="275" y="1162" type="line"/>
      <point x="97" y="1162" type="line"/>
      <point x="97" y="1376" type="line"/>
      <point x="771" y="1376" type="line"/>
      <point x="771" y="1162" type="line"/>
      <point x="593" y="1162" type="line"/>
      <point x="593" y="614" type="line"/>
      <point x="275" y="614" type="line"/>
    </contour>
    <contour>
      <point x="889" y="1376" type="line"/>
      <point x="1205" y="1376" type="line"/>
      <point x="1381" y="1070" type="line"/>
      <point x="1555" y="1376" type="line"/>
      <point x="1869" y="1376" type="line"/>
      <point x="1869" y="614" type="line"/>
      <point x="1555" y="614" type="line"/>
      <point x="1555" y="1018" type="line"/>
      <point x="1441" y="798" type="line"/>
      <point x="1317" y="798" type="line"/>
      <point x="1205" y="1018" type="line"/>
      <point x="1205" y="614" type="line"/>
      <point x="889" y="614" type="line"/>
    </contour>
  </outline>
</glyph>
<glyph name="minus" format="1">
  <advance width="1030"/>
  <unicode hex="2212"/>
  <outline>
    <contour>
      <point x="102" y="114" type="line"/>
      <point x="928" y="114" type="line"/>
      <point x="928" y="0" type="line"/>
      <point x="102" y="0" type="line"/>
    </contour>
  </outline>
</glyph>
<glyph name="notequal" format="1">
  <advance width="760"/>
  <unicode hex="2260"/>
  <outline>
    <contour>
      <point x="68" y="442" type="line"/>
      <point x="290" y="442" type="line"/>
      <point x="330" y="594" type="line"/>
      <point x="68" y="594" type="line"/>
      <point x="68" y="720" type="line"/>
      <point x="363" y="720" type="line"/>
      <point x="444" y="1026" type="line"/>
      <point x="586" y="1026" type="line"/>
      <point x="504" y="720" type="line"/>
      <point x="692" y="720" type="line"/>
      <point x="692" y="594" type="line"/>
      <point x="470" y="594" type="line"/>
      <point x="430" y="442" type="line"/>
      <point x="692" y="442" type="line"/>
      <point x="692" y="318" type="line"/>
      <point x="397" y="318" type="line"/>
      <point x="312" y="0" type="line"/>
      <point x="174" y="0" type="line"/>
      <point x="257" y="318" type="line"/>
      <point x="68" y="318" type="line"/>
    </contour>
  </outline>
</glyph>
<glyph name="lessequal" format="1">
  <advance width="986"/>
  <unicode hex="2264"/>
  <outline>
    <contour>
      <point x="92" y="1154" type="line"/>
      <point x="872" y="1582" type="line"/>
      <point x="872" y="1274" type="line"/>
      <point x="264" y="970" type="line"/>
      <point x="872" y="682" type="line"/>
      <point x="872" y="350" type="line"/>
      <point x="92" y="806" type="line"/>
    </contour>
    <contour>
      <point x="68" y="114" type="line"/>
      <point x="894" y="114" type="line"/>
      <point x="894" y="0" type="line"/>
      <point x="68" y="0" type="line"/>
    </contour>
  </outline>
</glyph>
<glyph name="greaterequal" format="1">
  <advance width="986"/>
  <unicode hex="2265"/>
  <outline>
    <contour>
      <point x="114" y="682" type="line"/>
      <point x="722" y="970" type="line"/>
      <point x="114" y="1274" type="line"/>
      <point x="114" y="1582" type="line"/>
      <point x="894" y="1154" type="line"/>
      <point x="894" y="806" type="line"/>
      <point x="114" y="350" type="line"/>
    </contour>
    <contour>
      <point x="90" y="114" type="line"/>
      <point x="916" y="114" type="line"/>
      <point x="916" y="0" type="line"/>
      <point x="90" y="0" type="line"/>
    </contour>
  </outline>
</glyph>
<glyph name="lozenge" format="1">
  <advance width="1043"/>
  <unicode hex="25CA"/>
  <outline>
    <contour>
      <point x="686" y="710" type="line"/>
      <point x="518" y="1236" type="line"/>
      <point x="334" y="710" type="line"/>
      <point x="518" y="172" type="line"/>
    </contour>
    <contour>
      <point x="56" y="710" type="line"/>
      <point x="314" y="1408" type="line"/>
      <point x="712" y="1408" type="line"/>
      <point x="988" y="710" type="line"/>
      <point x="686" y="0" type="line"/>
      <point x="314" y="0" type="line"/>
    </contour>
  </outline>
</glyph>
<glyph name="fi" format="1">
  <advance width="1733"/>
  <unicode hex="FB01"/>
  <outline>
    <contour>
      <point x="1518" y="398" type="line" smooth="yes"/>
      <point x="1518" y="337.385"/>
      <point x="1552.35" y="300"/>
      <point x="1610" y="300" type="curve" smooth="yes"/>
      <point x="1636.67" y="300"/>
      <point x="1664.67" y="308"/>
      <point x="1694" y="324" type="curve"/>
      <point x="1716" y="38" type="line"/>
      <point x="1635.33" y="-8.66667"/>
      <point x="1546" y="-32"/>
      <point x="1448" y="-32" type="curve" smooth="yes"/>
      <point x="1205.94" y="-32"/>
      <point x="1086" y="134.664"/>
      <point x="1086" y="378" type="curve" smooth="yes"/>
      <point x="1086" y="772" type="line"/>
      <point x="612" y="772" type="line"/>
      <point x="612" y="0" type="line"/>
      <point x="180" y="0" type="line"/>
      <point x="180" y="772" type="line"/>
      <point x="52" y="772" type="line"/>
      <point x="52" y="1026" type="line"/>
      <point x="180" y="1026" type="line"/>
      <point x="180" y="1136" type="line" smooth="yes"/>
      <point x="180" y="1401.43"/>
      <point x="293.365" y="1572"/>
      <point x="554" y="1572" type="curve" smooth="yes"/>
      <point x="659.333" y="1572"/>
      <point x="770.667" y="1546"/>
      <point x="888" y="1494" type="curve"/>
      <point x="874" y="1216" type="line"/>
      <point x="814" y="1236"/>
      <point x="765.333" y="1246"/>
      <point x="728" y="1246" type="curve" smooth="yes"/>
      <point x="650.667" y="1246"/>
      <point x="612" y="1204.67"/>
      <point x="612" y="1122" type="curve" smooth="yes"/>
      <point x="612" y="1026" type="line"/>
      <point x="1518" y="1026" type="line"/>
    </contour>
    <contour>
      <point x="1308" y="1158" type="curve" smooth="yes"/>
      <point x="1180.3" y="1158"/>
      <point x="1076" y="1239.45"/>
      <point x="1076" y="1366" type="curve" smooth="yes"/>
      <point x="1076" y="1489.33"/>
      <point x="1184.55" y="1572"/>
      <point x="1308" y="1572" type="curve" smooth="yes"/>
      <point x="1430.47" y="1572"/>
      <point x="1538" y="1487.33"/>
      <point x="1538" y="1366" type="curve" smooth="yes"/>
      <point x="1538" y="1240.9"/>
      <point x="1433.21" y="1158"/>
    </contour>
  </outline>
</glyph>
<glyph name="fl" format="1">
  <advance width="1709"/>
  <unicode hex="FB02"/>
  <outline>
    <contour>
      <point x="1418" y="-32" type="curve" smooth="yes"/>
      <point x="1175.46" y="-32"/>
      <point x="1056" y="136.001"/>
      <point x="1056" y="378" type="curve" smooth="yes"/>
      <point x="1056" y="1228" type="line"/>
      <point x="966" y="1240"/>
      <point x="889.333" y="1246"/>
      <point x="826" y="1246" type="curve" smooth="yes"/>
      <point x="683.333" y="1246"/>
      <point x="612" y="1204.67"/>
      <point x="612" y="1122" type="curve" smooth="yes"/>
      <point x="612" y="1026" type="line"/>
      <point x="870" y="1026" type="line"/>
      <point x="870" y="772" type="line"/>
      <point x="612" y="772" type="line"/>
      <point x="612" y="0" type="line"/>
      <point x="180" y="0" type="line"/>
      <point x="180" y="772" type="line"/>
      <point x="52" y="772" type="line"/>
      <point x="52" y="1026" type="line"/>
      <point x="180" y="1026" type="line"/>
      <point x="180" y="1136" type="line" smooth="yes"/>
      <point x="180" y="1493.26"/>
      <point x="542.218" y="1534"/>
      <point x="902" y="1534" type="curve" smooth="yes"/>
      <point x="1121.86" y="1534"/>
      <point x="1287.64" y="1477.98"/>
      <point x="1488" y="1436" type="curve"/>
      <point x="1488" y="408" type="line" smooth="yes"/>
      <point x="1488" y="336"/>
      <point x="1520.67" y="300"/>
      <point x="1586" y="300" type="curve" smooth="yes"/>
      <point x="1614.67" y="300"/>
      <point x="1644" y="308"/>
      <point x="1674" y="324" type="curve"/>
      <point x="1698" y="38" type="line"/>
      <point x="1609.33" y="-8.66667"/>
      <point x="1516" y="-32"/>
    </contour>
  </outline>
</glyph>
<glyph name=".notdef" format="1">
  <advance width="748"/>
  <outline>
    <contour>
      <point x="68" y="0" type="line"/>
      <point x="68" y="1365" type="line"/>
      <point x="612" y="1365" type="line"/>
      <point x="612" y="0" type="line"/>
    </contour>
    <contour>
      <point x="136" y="68" type="line"/>
      <point x="544" y="68" type="line"/>
      <point x="544" y="1297" type="line"/>
      <point x="136" y="1297" type="line"/>
    </contour>
  </outline>
</glyph>
